<svg xmlns="http://www.w3.org/2000/svg" viewBox="0 0 300.59 343.51"><defs><style>.cls-1{fill:#fff;}</style></defs><g id="Capa_2" data-name="Capa 2"><g id="Capa_1-2" data-name="Capa 1"><path id="Trazado_613-2" data-name="Trazado 613-2" class="cls-1" d="M300.58,315a14.46,14.46,0,0,1,0-28.92h0v-14h0a14.46,14.46,0,1,1,0-28.92h0v-14h0a14.46,14.46,0,1,1,0-28.92h0v-14h0a14.46,14.46,0,1,1,0-28.91h0v-14h0a14.46,14.46,0,1,1,0-28.91h0v-14h0a14.46,14.46,0,1,1,0-28.92h0v-14h0a14.46,14.46,0,1,1,0-28.92h0v-14h0A14.45,14.45,0,0,1,286.12,0h-14a14.45,14.45,0,0,1-14.46,14.46A14.46,14.46,0,0,1,243.18,0h-14A14.45,14.45,0,0,1,214.7,14.46h0A14.45,14.45,0,0,1,200.24,0h-14A14.46,14.46,0,0,1,157.3,0h-14a14.45,14.45,0,0,1-14.46,14.46A14.45,14.45,0,0,1,114.37,0h-14A14.45,14.45,0,0,1,85.89,14.46,14.45,14.45,0,0,1,71.43,0h-14A14.45,14.45,0,0,1,43,14.46,14.45,14.45,0,0,1,28.49,0h-14A14.46,14.46,0,0,1,0,14.46H0v14H0A14.46,14.46,0,0,1,0,57.4H0v14H0A14.46,14.46,0,0,1,14.47,85.88,14.47,14.47,0,0,1,0,100.34H0v14H0a14.46,14.46,0,0,1,14.46,14.46A14.47,14.47,0,0,1,0,143.28H0v14H0a14.46,14.46,0,0,1,14.46,14.46A14.47,14.47,0,0,1,0,186.22H0v14H0A14.46,14.46,0,0,1,14.47,214.7,14.47,14.47,0,0,1,0,229.16H0v14H0a14.46,14.46,0,0,1,14.46,14.46A14.47,14.47,0,0,1,0,272.1H0v14H0a14.46,14.46,0,0,1,14.46,14.46A14.47,14.47,0,0,1,0,315H0v14H0a14.47,14.47,0,0,1,14.46,14.45h14a14.46,14.46,0,1,1,28.91,0h14a14.46,14.46,0,1,1,28.91,0h14a14.46,14.46,0,1,1,28.91,0h14a14.46,14.46,0,0,1,28.92,0h14a14.46,14.46,0,0,1,28.92,0h14a14.46,14.46,0,0,1,28.92,0h14a14.45,14.45,0,0,1,14.46-14.46h0V315h0"/></g></g></svg>