<svg id="Grupo_338" data-name="Grupo 338" xmlns="http://www.w3.org/2000/svg" xmlns:xlink="http://www.w3.org/1999/xlink" width="127.021" height="112.15" viewBox="0 0 127.021 112.15">
  <defs>
    <clipPath id="clip-path">
      <rect id="Rectángulo_228" data-name="Rectángulo 228" width="127.021" height="112.15" fill="none"/>
    </clipPath>
  </defs>
  <g id="Grupo_337" data-name="Grupo 337" transform="translate(0 0)" clip-path="url(#clip-path)">
    <path id="Trazado_123" data-name="Trazado 123" d="M125.108,99.63c-1.727-2.293-7.442-8.254-22.05-11.983.276-.13.551-.232.827-.362a26.419,26.419,0,0,0,6.427-4.4,4.4,4.4,0,0,0,1.059-1.509,5.734,5.734,0,0,0-.391-5.744,5.487,5.487,0,0,0-5.79-2.132,6.041,6.041,0,0,0,1.77-3.5c.015-.161.029-.319.029-.465a5.972,5.972,0,0,0-.856-3.147,5.377,5.377,0,0,0,.812-.827,5.51,5.51,0,0,0,.9-4.846,5.345,5.345,0,0,0-.233-.681h1.09a4.356,4.356,0,0,0,4.352-4.353v-4.4a12.986,12.986,0,0,0-.378-3.205,8.447,8.447,0,0,0,9.139-4.018l.712-1.234a8.413,8.413,0,0,0-3.09-11.532l-12.273-7.093a9.787,9.787,0,0,0,.929-.392l.2-.088a13.119,13.119,0,0,0,1.509-.8,17.454,17.454,0,0,0,2.973-2.19,15.369,15.369,0,0,0,1.1-1.1l.1-.1c.3-.319.6-.668.885-1.017l.232-.276c.319-.376.639-.769.929-1.159.246-.3.464-.58.639-.812s.334-.436.493-.639c.058-.073.117-.146.173-.232l.246-.349a4.446,4.446,0,0,0-.29-5.266,5.675,5.675,0,0,0-.449-.493c-.1-.1-.173-.159-.29-.261a7.994,7.994,0,0,0-.986-.8l-.131-.088a8.241,8.241,0,0,0-1.6-.944,14.33,14.33,0,0,0-2.249-.812,13.983,13.983,0,0,0-2.466-.362,12.671,12.671,0,0,0-2.873.13,14.466,14.466,0,0,0-2.654.668,1.1,1.1,0,0,0-.159.058c-.392.144-.783.318-1.175.493a18.531,18.531,0,0,0-1.48-1.871,15.171,15.171,0,0,0-1.088-1.1L99.6,4.337c-.332-.319-.7-.639-1.059-.929l-.2-.173c-.405-.349-.827-.683-1.161-.929l-.13-.1c-.276-.219-.522-.407-.725-.58s-.422-.319-.624-.465c-.088-.071-.175-.144-.261-.2l-.29-.2a4.467,4.467,0,0,0-5.281.232,5.371,5.371,0,0,0-.58.537c-.058.073-.117.131-.173.2a7.02,7.02,0,0,0-.885,1.1,9.632,9.632,0,0,0-.971,1.626,13.916,13.916,0,0,0-.8,2.233,14.577,14.577,0,0,0-.391,2.524,14.036,14.036,0,0,0,.115,2.683c.015.058.015.117.029.175v.044L68.17,1.7A8.333,8.333,0,0,0,64.819.406a1.8,1.8,0,0,1-.276-.044c-.044,0-.1-.015-.159-.015a7.455,7.455,0,0,0-.828-.029c-.289,0-.58,0-.942.029-.161.029-.319.044-.407.073a7.853,7.853,0,0,0-1.276.29.871.871,0,0,0-.115.044,8.974,8.974,0,0,0-1.858.871L7.591,31.3a8.43,8.43,0,0,0-3.1,11.532l.725,1.234A8.368,8.368,0,0,0,10.333,48a8.17,8.17,0,0,0,2.2.3c.464,0,.921-.118,1.378-.125a24.489,24.489,0,0,0,.141,5.355q.182,2.758.563,5.5A103.765,103.765,0,0,0,18.449,74.9c.292.965.584,1.928.9,2.884a41.948,41.948,0,0,0,3.39,8.03c1.114,1.913,2.772,3.778,5.162,3.778h.6A5.656,5.656,0,0,0,32.9,87.5a7.712,7.712,0,0,0,1.712,1.19A114.226,114.226,0,0,0,2.106,101.6a4.354,4.354,0,0,0,3.817,7.79c.391-.146,39.834-14.884,92.174-3.7a60.344,60.344,0,0,1,10.981,3.7q.827.348,1.568.652a24.588,24.588,0,0,0,8.689,2.1,7.542,7.542,0,0,0,6.3-2.755c2.365-3.076,1.393-7.21-.522-9.764" transform="translate(0 0)" fill="#fff"/>
    <path id="Trazado_124" data-name="Trazado 124" d="M76.164,8.415a6.854,6.854,0,0,0-.652-.545,6.577,6.577,0,0,0-1.09-.678,9.871,9.871,0,0,0-1.474-.535A10.522,10.522,0,0,0,71.2,6.4a9.508,9.508,0,0,0-1.908.1,10.973,10.973,0,0,0-1.9.486,12.976,12.976,0,0,0-1.785.843,12,12,0,0,0-1.568,1.127,9.446,9.446,0,0,0-1.3,1.352,10.266,10.266,0,0,0-1.676,3,10.536,10.536,0,0,0-.379,1.436,9.914,9.914,0,0,0-.148,1.224,3.519,3.519,0,0,0-.013.465c.139-.139.289-.3.452-.459a29.891,29.891,0,0,1,3.205-2.732,22.006,22.006,0,0,1,1.884-1.218c.318-.164.627-.323.919-.475.3-.13.584-.253.846-.365.274-.092.52-.17.741-.243a4.057,4.057,0,0,1,.584-.143l.506-.107-.494.146a3.7,3.7,0,0,0-.566.188c-.212.084-.447.186-.709.3q-.382.2-.807.425c-.274.17-.564.35-.861.532a20.808,20.808,0,0,0-1.748,1.344,28.733,28.733,0,0,0-2.912,2.907c-.208.237-.386.449-.542.644.186.011.425.036.687.031.336,0,.759.019,1.185,0s.9-.055,1.378-.112.973-.144,1.472-.245a14.3,14.3,0,0,0,1.477-.379,14.051,14.051,0,0,0,1.417-.545,12.565,12.565,0,0,0,1.323-.681,12.925,12.925,0,0,0,2.314-1.706,13.378,13.378,0,0,0,.989-1c.313-.324.616-.707.906-1.047s.563-.679.816-1.02c.272-.345.512-.649.705-.9.211-.242.383-.509.507-.66.125-.175.188-.268.188-.268s-.073-.086-.216-.229" transform="translate(37.598 3.967)" fill="#8cb94d"/>
    <path id="Trazado_125" data-name="Trazado 125" d="M62.623,14.876A20.47,20.47,0,0,1,61.4,12.993c-.165-.319-.324-.631-.473-.919-.128-.3-.255-.585-.363-.851-.091-.272-.17-.522-.245-.739a4.391,4.391,0,0,1-.144-.584c-.068-.323-.105-.511-.105-.511s.054.186.149.5a4.069,4.069,0,0,0,.186.567c.084.206.186.447.3.71.131.246.272.519.422.8.172.274.349.567.533.861A21.242,21.242,0,0,0,63,14.577c.2.238.413.457.624.683a16.079,16.079,0,0,1,2.13-3.689c-.139-.4-.279-.783-.451-1.156a12.767,12.767,0,0,0-.684-1.325A12.944,12.944,0,0,0,62.91,6.774a13.9,13.9,0,0,0-1-.984c-.326-.319-.705-.616-1.047-.9s-.678-.563-1.018-.817c-.35-.276-.65-.512-.9-.7-.245-.212-.512-.387-.66-.511-.177-.125-.272-.19-.272-.19s-.088.075-.227.219a5.864,5.864,0,0,0-.545.653,6.617,6.617,0,0,0-.676,1.086A10.682,10.682,0,0,0,56.03,6.1a10.6,10.6,0,0,0-.259,1.759,10.706,10.706,0,0,0,.1,1.9,11.507,11.507,0,0,0,.491,1.905,12.64,12.64,0,0,0,.841,1.779,11.312,11.312,0,0,0,1.13,1.574,9.722,9.722,0,0,0,1.351,1.3,10.143,10.143,0,0,0,3,1.673c.042.013.081.021.118.032a13.458,13.458,0,0,1,.592-2.168c-.263-.321-.522-.636-.773-.981" transform="translate(34.644 1.656)" fill="#62a750"/>
    <path id="Trazado_126" data-name="Trazado 126" d="M22.285,39.085l.065-8.754H22.3l-3.149,8.752-2.053,0-3.064-8.754-.05,0,.068,8.75H11.3l0-12.367h4.155l2.758,7.931.07,0,2.635-7.93h4.225V39.084Z" transform="translate(7.02 16.6)" fill="#62a750"/>
    <path id="Trazado_127" data-name="Trazado 127" d="M22.784,29.44a1.572,1.572,0,1,1,1.61-1.568,1.583,1.583,0,0,1-1.61,1.568m-1.4,9.9,0-8.7h2.807v8.7Z" transform="translate(13.159 16.339)" fill="#62a750"/>
    <path id="Trazado_128" data-name="Trazado 128" d="M30.1,37.678H27.074l-3.353-8.7,3.1,0,1.795,5.639h.052l1.8-5.639h2.995Z" transform="translate(14.738 18.006)" fill="#62a750"/>
    <path id="Trazado_129" data-name="Trazado 129" d="M31.9,29.439A1.571,1.571,0,1,1,33.5,27.871,1.587,1.587,0,0,1,31.9,29.439m-1.4,9.9v-8.7H33.3l0,8.7Z" transform="translate(18.817 16.34)" fill="#62a750"/>
    <path id="Trazado_130" data-name="Trazado 130" d="M39.213,37.678l-3.032,0-3.351-8.7h3.1l1.8,5.642h.049l1.8-5.642h2.991Z" transform="translate(20.398 18.006)" fill="#62a750"/>
    <path id="Trazado_131" data-name="Trazado 131" d="M41,29.44a1.572,1.572,0,1,1,1.607-1.569A1.584,1.584,0,0,1,41,29.44M39.6,39.346l0-8.7h2.8v8.7Z" transform="translate(24.477 16.339)" fill="#62a750"/>
    <path id="Trazado_132" data-name="Trazado 132" d="M51.225,34.223H45.046a1.969,1.969,0,0,0,2.036,1.642,2.212,2.212,0,0,0,1.884-.91l1.949,1.257a4.423,4.423,0,0,1-3.865,1.855,4.418,4.418,0,0,1-4.689-4.595,4.449,4.449,0,0,1,4.6-4.666c2.516,0,4.279,1.766,4.277,4.736,0,.227,0,.472-.015.681m-2.567-1.783a1.562,1.562,0,0,0-1.68-1.657,1.87,1.87,0,0,0-1.933,1.657Z" transform="translate(26.32 17.898)" fill="#62a750"/>
    <path id="Trazado_133" data-name="Trazado 133" d="M54.514,37.771V33.02c0-.96-.261-1.834-1.268-1.834s-1.506.874-1.506,1.871v4.715l-2.826,0v-8.7h2.724v1.21h.032a2.888,2.888,0,0,1,2.552-1.453c2.288,0,3.113,1.816,3.113,3.564l0,5.38Z" transform="translate(30.391 17.912)" fill="#62a750"/>
    <path id="Trazado_134" data-name="Trazado 134" d="M62.031,39.4V38.268l-.034,0a3.29,3.29,0,0,1-2.787,1.38c-2.568,0-4.057-2.2-4.057-4.63s1.539-4.558,4.022-4.558a3.322,3.322,0,0,1,2.6,1.167h.037l0-5.43,2.8,0V39.406Zm-2.155-6.6a2.048,2.048,0,0,0-2.02,2.215,2.072,2.072,0,0,0,2.022,2.255,2.243,2.243,0,0,0,0-4.47" transform="translate(34.268 16.278)" fill="#62a750"/>
    <path id="Trazado_135" data-name="Trazado 135" d="M62.445,30.277a5.542,5.542,0,0,1,3.8-1.471c2.857,0,3.915,1.435,3.915,4.6l0,4.386H67.6l0-.929h-.054A2.81,2.81,0,0,1,65.133,38c-1.352,0-3.1-.683-3.1-2.73,0-2.511,2.995-2.931,5.475-2.933V32.2c0-.856-.668-1.257-1.539-1.257a3.21,3.21,0,0,0-2.106.887ZM67.6,33.994l-.363,0c-1.232,0-2.618.157-2.618,1.187,0,.668.652.892,1.218.895A1.637,1.637,0,0,0,67.6,34.293Z" transform="translate(38.544 17.898)" fill="#62a750"/>
    <path id="Trazado_136" data-name="Trazado 136" d="M24.578,35.026a1.854,1.854,0,0,1,2.108,2.088v.465l-.929,9.162A80.978,80.978,0,0,1,24.7,55.064q-1.481,8.41-3.661,8.41H20.56Q19.792,63.581,18.1,60a36.425,36.425,0,0,1-2.5-6.831Q14.56,50.3,12.505,41.776a4.916,4.916,0,0,1-.5-1.946c.321-.833.488-1.25.488-1.25l.011-.053q2.8,0,3.857,5.448,1.948,7.571,2.714,9.929l1.787,4.624.624-3.178q.876-4.589,2.2-19.412Z" transform="translate(7.46 21.763)" fill="#62a750"/>
    <path id="Trazado_137" data-name="Trazado 137" d="M24.5,51.01a3.64,3.64,0,0,1-3.322-2.322l-.089-.517q0-2.52,3.7-6.751a16.113,16.113,0,0,1,2.52-2.357,6.488,6.488,0,0,1,2.409-1.571,5.51,5.51,0,0,1,2.036-.34,1.939,1.939,0,0,1,2.108,1.555q.392,1.554-1.464,1.553H31.41q-1.34,0-3.554,2.09-3.573,3.894-3.572,5.286.054.18.321.18A5.407,5.407,0,0,0,28.821,46.1a4.126,4.126,0,0,1,2.409-1.25q1.627.178,1.626,1.607-.09.822-2.625,2.716a10.384,10.384,0,0,0-3.607,4.16q-1.948,3.179-1.947,4.75v.054c0,.441.357.66,1.072.66h.446q2.7,0,7.268-2.571A26.176,26.176,0,0,1,36.2,54.707q1.053-.231,1.436.323a1.613,1.613,0,0,1-.044,1.571,21.49,21.49,0,0,1-5.341,3.661,15.435,15.435,0,0,1-6.857,1.928A3.824,3.824,0,0,1,21.713,59.8l-.232-1.428a11.992,11.992,0,0,1,1.607-4.8Z" transform="translate(13.102 23.083)" fill="#62a750"/>
    <path id="Trazado_138" data-name="Trazado 138" d="M34.6,40.726A8.137,8.137,0,0,1,32.3,41q-1.42.01-1.518-.961a2,2,0,0,1,1.034-1.8q1.136-.82,5.778-.981,5.268,0,7.768,1.8t2.4,3.311a6.33,6.33,0,0,1-1.706,3.439,18.167,18.167,0,0,1-5.054,3.68l-2.338,1.161V51.3l3.178,2.231a43.7,43.7,0,0,1,7.679,4.893q1.608,1.466,1.634,2.278a1.225,1.225,0,0,1-.418,1.125,1.791,1.791,0,0,1-1.054.315q-.948,0-4.394-2.914-.126,0-6.537-3.215.287,4.966-.285,5.572a1.7,1.7,0,0,1-1.052.636,1.467,1.467,0,0,1-1.046-.511q-.562-.533-.9-7.68l-1.625-.8a1.929,1.929,0,0,1-1.01-2.09q.17-1.428,2.331-2.482a72.669,72.669,0,0,0-.572-7.928m3.233-.251.589,6.716a14.888,14.888,0,0,0,3.607-1.785q2.554-2.019,2.554-2.946t-3.392-1.733a16.078,16.078,0,0,0-2.2-.269Z" transform="translate(19.122 23.153)" fill="#62a750"/>
    <path id="Trazado_139" data-name="Trazado 139" d="M45.005,41.455l-.874.178q-1.7-.377-1.7-1.678,0-1.394,2.447-1.876l-.036-.34a1.337,1.337,0,0,1,1.411-1.446,1.888,1.888,0,0,1,1.787,1.339l.357-.018H52.06a17.6,17.6,0,0,1,8.893,1.662q3.716,1.892,3.278,4.955a18.7,18.7,0,0,1-2.411,6.527,38.336,38.336,0,0,1-4.546,6.385,25.311,25.311,0,0,1-5.7,4.849,3.6,3.6,0,0,1-2.126.927,1.476,1.476,0,0,1-1.642-1.7V61.2a4.175,4.175,0,0,1-.358.251q-2.106,0-2.411-5.858-.054-6.591-.036-14.143m3.108-.572q-.019,7.537-.018,14.323a39.606,39.606,0,0,0,.59,4.429,1.164,1.164,0,0,1-.019.212,2.044,2.044,0,0,1,.554-.07H49.6l1.464-.893A29.616,29.616,0,0,0,57.47,51.84q3.252-4.706,3.645-6.884a2.434,2.434,0,0,0-1.733-2.983q-2.126-1-7.768-1.3Z" transform="translate(26.365 22.55)" fill="#62a750"/>
    <path id="Trazado_140" data-name="Trazado 140" d="M59.454,51.01a3.638,3.638,0,0,1-3.322-2.322l-.089-.517q0-2.52,3.7-6.751a16.133,16.133,0,0,1,2.518-2.357,6.51,6.51,0,0,1,2.411-1.571,5.51,5.51,0,0,1,2.036-.34,1.937,1.937,0,0,1,2.106,1.555q.394,1.554-1.464,1.553h-.981q-1.34,0-3.556,2.09-3.57,3.894-3.57,5.286.054.18.321.18A5.4,5.4,0,0,0,63.775,46.1a4.134,4.134,0,0,1,2.411-1.25q1.625.178,1.626,1.607-.09.822-2.627,2.716a10.4,10.4,0,0,0-3.607,4.16q-1.946,3.179-1.946,4.75v.054c0,.441.357.66,1.072.66h.446q2.7,0,7.268-2.571a26.018,26.018,0,0,1,2.732-1.518q1.055-.231,1.438.323a1.613,1.613,0,0,1-.044,1.571A21.52,21.52,0,0,1,67.2,60.261a15.435,15.435,0,0,1-6.857,1.928,3.825,3.825,0,0,1-3.68-2.393l-.232-1.428a12,12,0,0,1,1.608-4.8Z" transform="translate(34.821 23.083)" fill="#62a750"/>
    <path id="Trazado_141" data-name="Trazado 141" d="M2.687,71.3s40.277-15.514,94.648-3.891a73.667,73.667,0,0,1,13.282,4.572c11.745,4.759,11.244-1.226,9.34-3.766-2.69-3.583-13.118-12.372-42.5-13.34-23.861-.8-51.869,2.651-74.766,16.426" transform="translate(1.669 34.029)" fill="#8cb94d"/>
    <path id="Trazado_142" data-name="Trazado 142" d="M64.842,6.161a4.093,4.093,0,0,1-1.5,5.585L11.611,41.615a4.086,4.086,0,0,1-5.584-1.5L5.305,38.87a4.083,4.083,0,0,1,1.5-5.584l51.73-29.87A4.09,4.09,0,0,1,64.122,4.91Z" transform="translate(2.955 1.782)" fill="#8cb94d"/>
    <path id="Trazado_143" data-name="Trazado 143" d="M96.276,38.87a4.082,4.082,0,0,0-1.5-5.584L43.045,3.417A4.093,4.093,0,0,0,37.46,4.91l-.718,1.252a4.082,4.082,0,0,0,1.5,5.582L89.974,41.615a4.089,4.089,0,0,0,5.584-1.5Z" transform="translate(22.487 1.783)" fill="#62a750"/>
  </g>
</svg>
