<svg id="Grupo_81" data-name="Grupo 81" xmlns="http://www.w3.org/2000/svg" width="99.026" height="103.431" viewBox="0 0 99.026 103.431">
  <rect id="Rectángulo_92" data-name="Rectángulo 92" width="10.598" height="33.816" transform="translate(54.902 59.612)" fill="#ffa506"/>
  <path id="Trazado_33" data-name="Trazado 33" d="M38.468,26.83V46.582l-10.6-10.6V26.83Z" transform="translate(27.032 32.782)" fill="#c17700"/>
  <path id="Trazado_34" data-name="Trazado 34" d="M25.334,24.263,38.176,38.127A21.461,21.461,0,1,1,46,19.2H27.556a3.018,3.018,0,0,0-2.222,5.066" transform="translate(-3.16 0)" fill="#ffa506"/>
  <path id="Trazado_35" data-name="Trazado 35" d="M79.9,8.635H26.716a21.982,21.982,0,0,1,.122,2.28A21.416,21.416,0,0,1,18.924,27.57l19.9,21.492H49.374L82.116,13.7A3.018,3.018,0,0,0,79.9,8.635" transform="translate(16.101 10.551)" fill="#ffd804"/>
  <path id="Trazado_36" data-name="Trazado 36" d="M69.514,52.055H18.851A10.007,10.007,0,0,1,28.858,42.048H59.506A10.007,10.007,0,0,1,69.514,52.055" transform="translate(16.012 51.376)" fill="#ffd804"/>
  <path id="Trazado_37" data-name="Trazado 37" d="M34.346,10.913a21.416,21.416,0,0,1-7.914,16.655L13.591,13.7A3.013,3.013,0,0,1,15.8,8.636H34.226a21.942,21.942,0,0,1,.12,2.277" transform="translate(8.592 10.552)" fill="#ffc533"/>
</svg>
