<svg xmlns="http://www.w3.org/2000/svg" xmlns:xlink="http://www.w3.org/1999/xlink" width="189" height="189" viewBox="0 0 189 189">
  <defs>
    <clipPath id="clip-path">
      <rect id="Rectángulo_228" data-name="Rectángulo 228" width="117.682" height="103.905" fill="none"/>
    </clipPath>
  </defs>
  <g id="Grupo_689" data-name="Grupo 689" transform="translate(-4868.932 -1294.931)">
    <g id="Elipse_80" data-name="Elipse 80" transform="translate(4878.932 1304.931)" fill="#fff" stroke="#8cb94d" stroke-width="10">
      <circle cx="84.5" cy="84.5" r="84.5" stroke="none"/>
      <circle cx="84.5" cy="84.5" r="89.5" fill="none"/>
    </g>
    <g id="Grupo_688" data-name="Grupo 688" transform="translate(4904.336 1337.726)">
      <g id="Grupo_337" data-name="Grupo 337" transform="translate(0 0)" clip-path="url(#clip-path)">
        <path id="Trazado_123" data-name="Trazado 123" d="M115.91,92.305c-1.6-2.124-6.895-7.647-20.429-11.1.255-.12.511-.215.766-.335A24.477,24.477,0,0,0,102.2,76.8a4.072,4.072,0,0,0,.981-1.4,5.313,5.313,0,0,0-.362-5.322A5.084,5.084,0,0,0,97.456,68.1a5.6,5.6,0,0,0,1.64-3.239c.014-.149.027-.3.027-.431a5.533,5.533,0,0,0-.793-2.916,4.982,4.982,0,0,0,.753-.766,5.1,5.1,0,0,0,.834-4.49,4.954,4.954,0,0,0-.216-.631h1.009a4.036,4.036,0,0,0,4.032-4.033V47.523a12.032,12.032,0,0,0-.35-2.97,7.826,7.826,0,0,0,8.467-3.722l.659-1.143A7.794,7.794,0,0,0,110.655,29L99.284,22.431a9.068,9.068,0,0,0,.861-.364l.188-.081a12.154,12.154,0,0,0,1.4-.739,16.17,16.17,0,0,0,2.755-2.029,14.238,14.238,0,0,0,1.021-1.021l.093-.093c.282-.3.551-.619.82-.942l.215-.255c.3-.348.592-.712.861-1.074.228-.282.43-.538.592-.753s.309-.4.457-.592c.054-.068.108-.135.161-.215l.228-.323a4.119,4.119,0,0,0-.269-4.879,5.257,5.257,0,0,0-.416-.457c-.095-.095-.161-.147-.269-.242a7.406,7.406,0,0,0-.913-.739l-.122-.081a7.635,7.635,0,0,0-1.478-.874,13.276,13.276,0,0,0-2.083-.753,12.955,12.955,0,0,0-2.285-.335,11.74,11.74,0,0,0-2.662.12,13.4,13.4,0,0,0-2.459.619,1.015,1.015,0,0,0-.147.054c-.364.134-.726.294-1.089.457a17.17,17.17,0,0,0-1.371-1.733,14.059,14.059,0,0,0-1.008-1.023l-.081-.066c-.308-.3-.644-.592-.981-.861L91.113,3c-.376-.323-.766-.632-1.076-.861l-.12-.093c-.255-.2-.484-.377-.671-.538s-.391-.3-.578-.431c-.081-.066-.162-.134-.242-.188L88.157.7a4.138,4.138,0,0,0-4.892.215,4.976,4.976,0,0,0-.538.5c-.054.068-.108.122-.161.188a6.5,6.5,0,0,0-.82,1.021,8.923,8.923,0,0,0-.9,1.507,12.894,12.894,0,0,0-.741,2.068,13.506,13.506,0,0,0-.362,2.339,13.005,13.005,0,0,0,.107,2.486c.014.054.014.108.027.162v.041L63.158,1.571a7.721,7.721,0,0,0-3.1-1.2A1.671,1.671,0,0,1,59.8.335c-.041,0-.095-.014-.147-.014a6.907,6.907,0,0,0-.768-.027c-.267,0-.538,0-.873.027-.149.027-.3.041-.377.068a7.275,7.275,0,0,0-1.182.269A.807.807,0,0,0,56.345.7a8.314,8.314,0,0,0-1.721.807L7.033,29A7.811,7.811,0,0,0,4.156,39.688l.671,1.143a7.752,7.752,0,0,0,4.745,3.643,7.57,7.57,0,0,0,2.041.281c.43,0,.853-.11,1.277-.116a22.689,22.689,0,0,0,.131,4.962q.169,2.555.521,5.092a96.136,96.136,0,0,0,3.55,14.7c.27.894.541,1.786.832,2.672a38.864,38.864,0,0,0,3.141,7.44c1.032,1.772,2.569,3.5,4.783,3.5H26.4a5.24,5.24,0,0,0,4.086-1.936,7.145,7.145,0,0,0,1.586,1.1A105.828,105.828,0,0,0,1.951,94.133a4.034,4.034,0,0,0,3.536,7.218c.362-.135,36.906-13.789,85.4-3.428a55.907,55.907,0,0,1,10.174,3.428q.766.322,1.453.6a22.78,22.78,0,0,0,8.05,1.948,6.988,6.988,0,0,0,5.833-2.552c2.192-2.85,1.29-6.68-.484-9.046" transform="translate(0 0)" fill="#fff"/>
        <path id="Trazado_124" data-name="Trazado 124" d="M75.013,8.266a6.352,6.352,0,0,0-.6-.5A6.093,6.093,0,0,0,73.4,7.133a9.146,9.146,0,0,0-1.365-.5A9.749,9.749,0,0,0,70.411,6.4a8.809,8.809,0,0,0-1.768.093,10.166,10.166,0,0,0-1.763.451,12.022,12.022,0,0,0-1.654.781,11.117,11.117,0,0,0-1.453,1.044,8.752,8.752,0,0,0-1.2,1.253A9.512,9.512,0,0,0,61.015,12.8a9.761,9.761,0,0,0-.352,1.331,9.185,9.185,0,0,0-.137,1.134,3.26,3.26,0,0,0-.012.431c.129-.129.267-.275.419-.425A27.693,27.693,0,0,1,63.9,12.74a20.388,20.388,0,0,1,1.745-1.128c.294-.152.581-.3.852-.44.279-.12.541-.234.784-.338.254-.086.482-.158.686-.225a3.759,3.759,0,0,1,.541-.132l.469-.1-.458.135a3.432,3.432,0,0,0-.524.174c-.2.078-.415.173-.656.273q-.354.185-.748.394c-.254.158-.523.324-.8.493a19.278,19.278,0,0,0-1.619,1.245,26.621,26.621,0,0,0-2.7,2.693c-.192.219-.358.416-.5.6.173.011.394.033.637.029.311,0,.7.018,1.1,0s.834-.051,1.277-.1.9-.134,1.364-.227a13.249,13.249,0,0,0,1.368-.351,13.019,13.019,0,0,0,1.313-.5,11.641,11.641,0,0,0,1.226-.631,11.975,11.975,0,0,0,2.144-1.58,12.392,12.392,0,0,0,.916-.927c.29-.3.571-.655.84-.97s.521-.629.756-.945c.252-.32.475-.6.653-.834.2-.224.354-.472.47-.611.116-.162.174-.248.174-.248s-.068-.08-.2-.212" transform="translate(30.385 3.206)" fill="#8cb94d"/>
        <path id="Trazado_125" data-name="Trazado 125" d="M62.118,13.978a18.965,18.965,0,0,1-1.133-1.744c-.153-.3-.3-.584-.439-.852-.119-.282-.236-.542-.336-.789-.084-.252-.158-.484-.227-.685a4.069,4.069,0,0,1-.134-.541c-.063-.3-.1-.473-.1-.473s.05.173.138.464a3.769,3.769,0,0,0,.173.526c.078.191.173.415.273.658.122.228.252.481.391.742.159.254.323.526.494.8A19.679,19.679,0,0,0,62.466,13.7c.186.221.383.424.578.632a14.9,14.9,0,0,1,1.974-3.417c-.129-.368-.258-.726-.418-1.071a11.829,11.829,0,0,0-.634-1.227,11.992,11.992,0,0,0-1.583-2.147,12.875,12.875,0,0,0-.922-.912c-.3-.3-.653-.571-.97-.838s-.628-.521-.943-.757c-.324-.255-.6-.475-.834-.652-.227-.2-.475-.359-.611-.473-.164-.116-.252-.176-.252-.176s-.081.069-.21.2a5.433,5.433,0,0,0-.5.605,6.131,6.131,0,0,0-.626,1.006,9.9,9.9,0,0,0-.5,1.365,9.817,9.817,0,0,0-.24,1.63,9.919,9.919,0,0,0,.093,1.763A10.661,10.661,0,0,0,56.318,11a11.711,11.711,0,0,0,.78,1.648,10.48,10.48,0,0,0,1.047,1.459A9.007,9.007,0,0,0,59.4,15.315a9.4,9.4,0,0,0,2.78,1.55c.039.012.075.02.11.03a12.468,12.468,0,0,1,.548-2.008c-.243-.3-.484-.589-.717-.909" transform="translate(27.997 1.338)" fill="#62a750"/>
        <path id="Trazado_126" data-name="Trazado 126" d="M21.478,38.176l.06-8.11h-.047l-2.917,8.108h-1.9l-2.839-8.11-.047,0,.063,8.107H11.3l0-11.458h3.85L17.7,34.065h.065l2.441-7.347h3.915V38.174Z" transform="translate(5.673 13.415)" fill="#62a750"/>
        <path id="Trazado_127" data-name="Trazado 127" d="M22.666,29.209a1.457,1.457,0,1,1,1.492-1.453,1.466,1.466,0,0,1-1.492,1.453m-1.3,9.176V30.326h2.6v8.06Z" transform="translate(10.634 13.204)" fill="#62a750"/>
        <path id="Trazado_128" data-name="Trazado 128" d="M29.633,37.038H26.827l-3.106-8.056,2.872,0L28.256,34.2H28.3l1.664-5.224h2.774Z" transform="translate(11.911 14.551)" fill="#62a750"/>
        <path id="Trazado_129" data-name="Trazado 129" d="M31.778,29.208a1.455,1.455,0,1,1,1.49-1.453,1.47,1.47,0,0,1-1.49,1.453m-1.3,9.176V30.325h2.6l0,8.059Z" transform="translate(15.207 13.205)" fill="#62a750"/>
        <path id="Trazado_130" data-name="Trazado 130" d="M38.744,37.038l-2.809,0-3.1-8.06H35.7l1.664,5.227h.045l1.667-5.227h2.771Z" transform="translate(16.485 14.551)" fill="#62a750"/>
        <path id="Trazado_131" data-name="Trazado 131" d="M40.887,29.209a1.457,1.457,0,1,1,1.489-1.454,1.468,1.468,0,0,1-1.489,1.454m-1.3,9.178,0-8.06h2.6v8.059Z" transform="translate(19.781 13.204)" fill="#62a750"/>
        <path id="Trazado_132" data-name="Trazado 132" d="M50.573,33.825H44.849a1.824,1.824,0,0,0,1.887,1.522,2.049,2.049,0,0,0,1.745-.843l1.806,1.164a4.1,4.1,0,0,1-3.581,1.718,4.093,4.093,0,0,1-4.344-4.257,4.122,4.122,0,0,1,4.263-4.323c2.331,0,3.964,1.636,3.963,4.388,0,.21,0,.437-.014.631M48.2,32.172a1.447,1.447,0,0,0-1.556-1.535,1.733,1.733,0,0,0-1.791,1.535Z" transform="translate(21.27 14.464)" fill="#62a750"/>
        <path id="Trazado_133" data-name="Trazado 133" d="M54.1,37.113v-4.4c0-.889-.242-1.7-1.175-1.7s-1.4.81-1.4,1.733v4.368l-2.618,0V29.054h2.524v1.121h.03a2.676,2.676,0,0,1,2.364-1.346c2.119,0,2.884,1.682,2.884,3.3v4.984Z" transform="translate(24.561 14.476)" fill="#62a750"/>
        <path id="Trazado_134" data-name="Trazado 134" d="M61.525,38.434V37.381l-.032,0a3.048,3.048,0,0,1-2.582,1.278c-2.379,0-3.758-2.038-3.758-4.29s1.426-4.222,3.727-4.222a3.078,3.078,0,0,1,2.4,1.082h.035l0-5.031,2.6,0V38.435Zm-2-6.115a1.9,1.9,0,0,0-1.872,2.052A1.92,1.92,0,0,0,59.53,36.46a1.967,1.967,0,0,0,1.9-2.073,1.987,1.987,0,0,0-1.9-2.068" transform="translate(27.694 13.155)" fill="#62a750"/>
        <path id="Trazado_135" data-name="Trazado 135" d="M62.415,30.168a5.134,5.134,0,0,1,3.522-1.362c2.647,0,3.628,1.329,3.628,4.259l0,4.063H67.189l0-.861h-.05a2.894,2.894,0,0,1-5.106-1.474c0-2.327,2.774-2.716,5.073-2.717v-.128c0-.793-.619-1.164-1.426-1.164a2.974,2.974,0,0,0-1.951.822Zm4.775,3.444h-.336c-1.142,0-2.426.146-2.426,1.1,0,.619.6.826,1.128.829a1.517,1.517,0,0,0,1.634-1.654Z" transform="translate(31.149 14.464)" fill="#62a750"/>
        <path id="Trazado_136" data-name="Trazado 136" d="M23.653,35.026a1.718,1.718,0,0,1,1.953,1.935v.431l-.861,8.488a75.024,75.024,0,0,1-.976,7.71q-1.372,7.791-3.392,7.791h-.446q-.712.1-2.283-3.218a33.747,33.747,0,0,1-2.316-6.328q-.96-2.663-2.863-10.557a4.555,4.555,0,0,1-.463-1.8c.3-.772.452-1.158.452-1.158l.011-.05q2.6,0,3.574,5.047,1.8,7.014,2.515,9.2L20.212,56.8l.578-2.944Q21.6,49.6,22.826,35.87Z" transform="translate(6.028 17.588)" fill="#62a750"/>
        <path id="Trazado_137" data-name="Trazado 137" d="M24.247,49.991A3.372,3.372,0,0,1,21.17,47.84l-.083-.479q0-2.334,3.425-6.255a14.928,14.928,0,0,1,2.334-2.184,6.011,6.011,0,0,1,2.232-1.456,5.1,5.1,0,0,1,1.887-.315,1.8,1.8,0,0,1,1.953,1.441q.363,1.44-1.356,1.439h-.91q-1.242,0-3.293,1.936-3.31,3.607-3.309,4.9.05.167.3.167a5.01,5.01,0,0,0,3.906-1.589,3.823,3.823,0,0,1,2.232-1.158q1.507.164,1.507,1.489-.083.762-2.432,2.516a9.62,9.62,0,0,0-3.342,3.854q-1.8,2.945-1.8,4.4v.05c0,.409.33.611.993.611h.413q2.5,0,6.734-2.382a24.25,24.25,0,0,1,2.533-1.406q.976-.214,1.331.3a1.494,1.494,0,0,1-.041,1.456,19.91,19.91,0,0,1-4.948,3.392,14.3,14.3,0,0,1-6.352,1.786,3.543,3.543,0,0,1-3.408-2.217l-.215-1.323a11.11,11.11,0,0,1,1.489-4.451Z" transform="translate(10.588 18.655)" fill="#62a750"/>
        <path id="Trazado_138" data-name="Trazado 138" d="M34.315,40.472a7.539,7.539,0,0,1-2.125.255q-1.316.009-1.406-.891a1.849,1.849,0,0,1,.958-1.664q1.052-.759,5.354-.909,4.88,0,7.2,1.67T46.517,42a5.865,5.865,0,0,1-1.58,3.186,16.832,16.832,0,0,1-4.682,3.41l-2.166,1.076v.595l2.944,2.067a40.486,40.486,0,0,1,7.114,4.533q1.489,1.359,1.514,2.11a1.135,1.135,0,0,1-.388,1.042,1.659,1.659,0,0,1-.976.291q-.879,0-4.071-2.7-.117,0-6.057-2.979.266,4.6-.264,5.163a1.577,1.577,0,0,1-.975.589,1.359,1.359,0,0,1-.969-.473q-.52-.493-.835-7.116l-1.505-.744a1.787,1.787,0,0,1-.936-1.936q.158-1.323,2.16-2.3a67.325,67.325,0,0,0-.53-7.345m3-.233.545,6.222A13.793,13.793,0,0,0,41.2,44.807q2.366-1.87,2.366-2.729t-3.142-1.606a14.9,14.9,0,0,0-2.035-.249Z" transform="translate(15.453 18.711)" fill="#62a750"/>
        <path id="Trazado_139" data-name="Trazado 139" d="M44.816,41.076l-.81.165q-1.573-.349-1.573-1.555,0-1.291,2.267-1.738l-.033-.315a1.238,1.238,0,0,1,1.307-1.34,1.749,1.749,0,0,1,1.655,1.241l.33-.017h3.392a16.31,16.31,0,0,1,8.239,1.54q3.443,1.753,3.037,4.59a17.325,17.325,0,0,1-2.234,6.048,35.518,35.518,0,0,1-4.212,5.915A23.45,23.45,0,0,1,50.906,60.1a3.334,3.334,0,0,1-1.969.859,1.367,1.367,0,0,1-1.522-1.571v-.018a3.866,3.866,0,0,1-.332.233q-1.951,0-2.234-5.427-.05-6.106-.033-13.1m2.88-.53q-.018,6.983-.017,13.27a36.694,36.694,0,0,0,.547,4.1,1.078,1.078,0,0,1-.018.2,1.893,1.893,0,0,1,.514-.065h.347l1.356-.828A27.439,27.439,0,0,0,56.365,50.7q3.013-4.36,3.377-6.378a2.255,2.255,0,0,0-1.606-2.764q-1.969-.926-7.2-1.208Z" transform="translate(21.307 18.224)" fill="#62a750"/>
        <path id="Trazado_140" data-name="Trazado 140" d="M59.2,49.991a3.371,3.371,0,0,1-3.078-2.151l-.083-.479q0-2.334,3.425-6.255A14.947,14.947,0,0,1,61.8,38.922a6.031,6.031,0,0,1,2.234-1.456,5.1,5.1,0,0,1,1.887-.315,1.794,1.794,0,0,1,1.951,1.441q.365,1.44-1.356,1.439h-.909q-1.242,0-3.294,1.936-3.308,3.607-3.308,4.9.05.167.3.167a5.006,5.006,0,0,0,3.9-1.589,3.83,3.83,0,0,1,2.234-1.158q1.505.164,1.507,1.489-.083.762-2.433,2.516a9.632,9.632,0,0,0-3.342,3.854q-1.8,2.945-1.8,4.4v.05c0,.409.33.611.993.611h.413q2.5,0,6.734-2.382a24.1,24.1,0,0,1,2.531-1.406q.978-.214,1.332.3a1.494,1.494,0,0,1-.041,1.456,19.938,19.938,0,0,1-4.948,3.392,14.3,14.3,0,0,1-6.352,1.786,3.544,3.544,0,0,1-3.41-2.217l-.215-1.323a11.118,11.118,0,0,1,1.49-4.451Z" transform="translate(28.14 18.655)" fill="#62a750"/>
        <path id="Trazado_141" data-name="Trazado 141" d="M2.687,70.088S40,55.714,90.376,66.482a68.251,68.251,0,0,1,12.305,4.236c10.881,4.409,10.417-1.136,8.654-3.489-2.492-3.32-12.154-11.463-39.38-12.359C49.849,54.128,23.9,57.326,2.687,70.088" transform="translate(1.349 27.501)" fill="#8cb94d"/>
        <path id="Trazado_142" data-name="Trazado 142" d="M60.424,5.919a3.792,3.792,0,0,1-1.386,5.175L11.107,38.766a3.785,3.785,0,0,1-5.173-1.386l-.668-1.157A3.783,3.783,0,0,1,6.655,31.05L54.581,3.376a3.79,3.79,0,0,1,5.176,1.383Z" transform="translate(2.388 1.44)" fill="#8cb94d"/>
        <path id="Trazado_143" data-name="Trazado 143" d="M91.859,36.223a3.782,3.782,0,0,0-1.388-5.173L42.541,3.377A3.792,3.792,0,0,0,37.367,4.76L36.7,5.92a3.781,3.781,0,0,0,1.386,5.172L86.02,38.766a3.788,3.788,0,0,0,5.173-1.388Z" transform="translate(18.173 1.441)" fill="#62a750"/>
      </g>
    </g>
  </g>
</svg>
