<svg id="Grupo_335" data-name="Grupo 335" xmlns="http://www.w3.org/2000/svg" xmlns:xlink="http://www.w3.org/1999/xlink" width="102.77" height="112.149" viewBox="0 0 102.77 112.149">
  <defs>
    <clipPath id="clip-path">
      <rect id="Rectángulo_227" data-name="Rectángulo 227" width="102.77" height="112.15" fill="none"/>
    </clipPath>
  </defs>
  <g id="Grupo_334" data-name="Grupo 334" transform="translate(0 0)" clip-path="url(#clip-path)">
    <path id="Trazado_118" data-name="Trazado 118" d="M100.329,82.67,82.771,81.058,77.08,97.741a2.241,2.241,0,0,1-4,.505l-9.147-14.12-4.564-7.05-7.984-12.3-7.962,12.3-4.566,7.07-9.148,14.1a2.241,2.241,0,0,1-4-.505L20.016,81.058,2.439,82.67A2.235,2.235,0,0,1,.361,79.232L11.9,61.421l.291-.446L41.265,16.128H61.5L90.579,60.975l.291.446,11.536,17.811a2.229,2.229,0,0,1-2.078,3.438" transform="translate(0 12.884)" fill="#ffd804"/>
    <path id="Trazado_119" data-name="Trazado 119" d="M85.166,60.975a8.173,8.173,0,0,1-.757,1.126c-2.117,2.661-5.2,3.4-7.69,3.983a12.684,12.684,0,0,0-2.526.775,13.207,13.207,0,0,0-1.263,2.234c-1.126,2.312-2.524,5.166-5.613,6.643-3.049,1.475-6.138.8-8.624.272a11.707,11.707,0,0,0-2.661-.408,13.17,13.17,0,0,0-2.04,1.437l-.038.04-7.984-12.3-7.962,12.3c-.02,0-.04-.02-.059-.04a12.232,12.232,0,0,0-2.1-1.457,13.406,13.406,0,0,0-2.6.428c-2.486.523-5.573,1.2-8.622-.272-3.069-1.477-4.488-4.332-5.614-6.643a12.534,12.534,0,0,0-1.3-2.272,14.6,14.6,0,0,0-2.486-.738C12.739,65.5,9.651,64.762,7.533,62.1a8.172,8.172,0,0,1-.757-1.126L35.852,16.128H56.09Z" transform="translate(5.413 12.884)" fill="#c17200"/>
    <path id="Trazado_120" data-name="Trazado 120" d="M47.8,88.636c-3.242,0-5.969-4.2-9-4.891-3.132-.711-7.406,1.873-10.232.509-2.873-1.385-3.508-6.352-5.974-8.322s-7.462-1.5-9.441-3.981-.4-7.215-1.788-10.088C10,59.039,5.293,57.313,4.582,54.181c-.691-3.035,2.783-6.622,2.783-9.863s-3.474-6.83-2.783-9.863C5.295,31.321,10,29.6,11.361,26.771c1.385-2.873-.182-7.622,1.788-10.088s6.962-2,9.441-3.981,3.1-6.937,5.974-8.322c2.826-1.364,7.1,1.221,10.232.509C41.829,4.2,44.556,0,47.8,0s5.969,4.2,9,4.891c3.132.711,7.406-1.873,10.232-.509,2.873,1.385,3.508,6.352,5.974,8.322s7.462,1.5,9.441,3.981.4,7.215,1.788,10.088C85.6,29.6,90.3,31.323,91.013,34.455c.691,3.035-2.783,6.622-2.783,9.863s3.474,6.83,2.783,9.863c-.712,3.134-5.415,4.859-6.778,7.683-1.385,2.873.182,7.622-1.788,10.088s-6.962,2-9.441,3.981-3.1,6.937-5.974,8.322c-2.826,1.364-7.1-1.221-10.232-.509-3.033.689-5.76,4.889-9,4.889" transform="translate(3.588 -0.001)" fill="#ffa506"/>
    <path id="Trazado_121" data-name="Trazado 121" d="M41.009,54.812a28.051,28.051,0,0,1-28.02-28.02,4.855,4.855,0,0,1,9.711,0,18.308,18.308,0,1,0,36.617,0,4.855,4.855,0,0,1,9.711,0,28.05,28.05,0,0,1-28.018,28.02" transform="translate(10.377 17.525)" fill="#ffefab"/>
    <path id="Trazado_122" data-name="Trazado 122" d="M64.172,41.935a4.854,4.854,0,0,1-4.855-4.855,18.308,18.308,0,1,0-36.617,0,4.855,4.855,0,0,1-9.711,0,28.019,28.019,0,1,1,56.038,0,4.854,4.854,0,0,1-4.855,4.855" transform="translate(10.377 7.237)" fill="#ffd804"/>
  </g>
</svg>
