<svg id="Grupo_78" data-name="Grupo 78" xmlns="http://www.w3.org/2000/svg" width="90.128" height="102.923" viewBox="0 0 90.128 102.923">
  <path id="Trazado_30" data-name="Trazado 30" d="M290.9,354.589a45.06,45.06,0,0,0-17.773,85A19.2,19.2,0,0,1,283.74,456.56v.86h20.141v-.607a18.957,18.957,0,0,1,10.194-17A45.064,45.064,0,0,0,290.9,354.589m2.915,75.469a30.309,30.309,0,1,1,30.311-30.308,30.311,30.311,0,0,1-30.311,30.308" transform="translate(-248.748 -354.497)" fill="#ffd804"/>
  <path id="Trazado_31" data-name="Trazado 31" d="M285.7,361.223a30.309,30.309,0,1,0,30.311,30.308A30.309,30.309,0,0,0,285.7,361.223m0,45.717a15.409,15.409,0,1,1,15.409-15.409A15.409,15.409,0,0,1,285.7,406.94" transform="translate(-240.634 -346.278)" fill="#ffa506"/>
  <path id="Trazado_32" data-name="Trazado 32" d="M292.912,383.338A15.409,15.409,0,1,1,277.5,367.929a15.409,15.409,0,0,1,15.409,15.409" transform="translate(-232.439 -338.084)" fill="#c17200"/>
</svg>
