<svg xmlns="http://www.w3.org/2000/svg" viewBox="0 0 94.44 45.87"><defs><style>.cls-1{fill:#fff;}</style></defs><g id="Capa_2" data-name="Capa 2"><g id="Capa_1-2" data-name="Capa 1"><path id="Trazado_263" data-name="Trazado 263" class="cls-1" d="M59.22,3.62A3.62,3.62,0,1,1,55.6,0a3.62,3.62,0,0,1,3.62,3.62h0"/><path id="Trazado_264" data-name="Trazado 264" class="cls-1" d="M58.23,11.22l2.08,3.61a25.11,25.11,0,0,1,2.89,12.8v1.69a4.33,4.33,0,1,1-8.65.13v-.13l-.19-15.57a2.88,2.88,0,0,1,.07-.59A2.34,2.34,0,0,1,55.9,11.8v-.58H45.29v.58A2.34,2.34,0,0,1,46.94,14l.19,13.27a7.44,7.44,0,0,0,7.44,7.43H59a5.51,5.51,0,0,0,5.52-5.51l-.2-15.4a2.33,2.33,0,0,1,1.62-2v-.58Z"/><path id="Trazado_265" data-name="Trazado 265" class="cls-1" d="M11.57,10.87h0A11.57,11.57,0,0,0,0,22.44H0v.82a11.57,11.57,0,0,0,23.14,0v-.82A11.57,11.57,0,0,0,11.57,10.87h0m3.07,22.21c-2.55.76-6-3.2-7.69-8.85S6,13.38,8.5,12.62s6,3.19,7.69,8.84,1,10.85-1.55,11.62"/><path id="Trazado_266" data-name="Trazado 266" class="cls-1" d="M76.05,34.55H67V34a2.33,2.33,0,0,0,1.66-2.23V14.05A2.36,2.36,0,0,0,67,11.8v-.58H77c.9,2,2,4.28,3.13,6.65l1.57,3.3,3.64-10h9.1v.58a2.36,2.36,0,0,0-1.66,2.25V31.73A2.33,2.33,0,0,0,94.44,34v.59H83.59V34a1.36,1.36,0,0,0,1.33-.84,4,4,0,0,0,.38-1.54v-18l-3.13,8.52-3.66,10-.45-1L69.74,13.6V14a9,9,0,0,0,0,1v1a24.18,24.18,0,0,0,1.47,8.29A25.06,25.06,0,0,0,74,29.41a13.93,13.93,0,0,1,2.06,5.14"/><path id="Trazado_267" data-name="Trazado 267" class="cls-1" d="M45.5,32.6a.51.51,0,0,1-.44.16c-.34-.07-.53-.34-.57-.85v-2a6.27,6.27,0,0,0-6.27-6.27h-1c2.53,0,4.38-.53,5.53-1.58a5.94,5.94,0,0,0,1.69-4.59,6.2,6.2,0,0,0-1.33-4.22,5.74,5.74,0,0,0-3.4-1.72A31.43,31.43,0,0,0,35,11.22H23.6v.58a2.36,2.36,0,0,1,1.66,2.25V31.73A2.32,2.32,0,0,1,23.6,34v.6H34.33V34h0a2.32,2.32,0,0,1-1.65-2.22V24h1.63a2.85,2.85,0,0,1,1.6.52l0,0a2.73,2.73,0,0,1,1.12,2.21v3a5.09,5.09,0,0,0,5.08,5.07c1.85,0,3-.71,3.58-2ZM37.08,20.53a2.77,2.77,0,0,1-2.76,2.76H32.68V14.15a2.2,2.2,0,1,1,4.4,0Z"/><path id="Trazado_268" data-name="Trazado 268" class="cls-1" d="M1.53,43.5a1.17,1.17,0,0,0,.29.84,1,1,0,0,0,.77.3.91.91,0,0,0,.61-.21.69.69,0,0,0,.25-.56.59.59,0,0,0-.08-.34,1,1,0,0,0-.21-.24,1.74,1.74,0,0,0-.33-.18l-.4-.17c-.31-.11-.59-.22-.87-.34a3,3,0,0,1-.71-.41,1.7,1.7,0,0,1-.48-.58,1.74,1.74,0,0,1-.18-.84A1.63,1.63,0,0,1,.38,40a1.7,1.7,0,0,1,.52-.58A2.19,2.19,0,0,1,1.64,39a3.15,3.15,0,0,1,.87-.12,2.79,2.79,0,0,1,1,.17,2.15,2.15,0,0,1,.73.46,2,2,0,0,1,.44.67,2.18,2.18,0,0,1,.15.8H3.33a1,1,0,0,0-.21-.7.71.71,0,0,0-.61-.25.86.86,0,0,0-.56.17.56.56,0,0,0-.24.5.61.61,0,0,0,.26.53,2.55,2.55,0,0,0,.68.34l.82.31a3.37,3.37,0,0,1,.75.4,2.17,2.17,0,0,1,.54.59,1.51,1.51,0,0,1,.21.83,2.21,2.21,0,0,1-.18.91,1.86,1.86,0,0,1-.52.66,2.09,2.09,0,0,1-.78.41,3.72,3.72,0,0,1-1,.14,3,3,0,0,1-1-.16,2.2,2.2,0,0,1-.8-.46,2.16,2.16,0,0,1-.52-.74,2.44,2.44,0,0,1-.19-1Z"/><path id="Trazado_269" data-name="Trazado 269" class="cls-1" d="M10.55,41.15V45.7H9.1v-.64a1.33,1.33,0,0,1-.23.3,1.24,1.24,0,0,1-.32.23,2,2,0,0,1-.4.16,1.61,1.61,0,0,1-.44.06,2.16,2.16,0,0,1-.9-.18,2.3,2.3,0,0,1-.7-.5,2.25,2.25,0,0,1-.45-.76,2.94,2.94,0,0,1,0-1.9,2.21,2.21,0,0,1,.45-.75,2.3,2.3,0,0,1,.7-.5,2.16,2.16,0,0,1,.9-.18,1.61,1.61,0,0,1,.44.06,2,2,0,0,1,.4.16,1.31,1.31,0,0,1,.32.25,1.09,1.09,0,0,1,.23.29v-.65ZM8,44.58a1,1,0,0,0,.44-.09A1.07,1.07,0,0,0,9,43.87a1,1,0,0,0,.08-.45A1,1,0,0,0,9,43a1.07,1.07,0,0,0-.22-.37.94.94,0,0,0-.34-.25,1,1,0,0,0-.88,0,.94.94,0,0,0-.34.25,1.15,1.15,0,0,0-.3.81,1.12,1.12,0,0,0,.08.45,1.07,1.07,0,0,0,.56.62,1,1,0,0,0,.44.09"/><path id="Trazado_270" data-name="Trazado 270" class="cls-1" d="M11.58,41.15H13v.66a1.26,1.26,0,0,1,.57-.57,2.22,2.22,0,0,1,1.68-.07,1.23,1.23,0,0,1,.51.39,1.35,1.35,0,0,1,.29.6,4.76,4.76,0,0,1,.07.84v2.7H14.71V43.37a1.59,1.59,0,0,0-.18-.8.65.65,0,0,0-.62-.31.77.77,0,0,0-.67.31,1.46,1.46,0,0,0-.21.84V45.7H11.58Z"/><path id="Trazado_271" data-name="Trazado 271" class="cls-1" d="M20,45.7l-.4,0-.56,0a3.27,3.27,0,0,1-.54,0,1.21,1.21,0,0,1-.52-.19,1,1,0,0,1-.4-.48,2.07,2.07,0,0,1-.16-.89V42.23h-.72V41.15h.72V39.8h1.44v1.35h1v1.08h-1v1.61a1.4,1.4,0,0,0,.05.41.59.59,0,0,0,.13.23.43.43,0,0,0,.2.11l.24,0h.28a1,1,0,0,0,.24,0Z"/><path id="Trazado_272" data-name="Trazado 272" class="cls-1" d="M25.23,41.15V45.7H23.79v-.64a1.33,1.33,0,0,1-.23.3,1.24,1.24,0,0,1-.32.23,2,2,0,0,1-.4.16,1.61,1.61,0,0,1-.44.06,2.16,2.16,0,0,1-.9-.18,2.3,2.3,0,0,1-.7-.5,2.25,2.25,0,0,1-.45-.76,2.94,2.94,0,0,1,0-1.9,2.21,2.21,0,0,1,.45-.75,2.3,2.3,0,0,1,.7-.5,2.16,2.16,0,0,1,.9-.18,1.61,1.61,0,0,1,.44.06,2,2,0,0,1,.4.16,1.31,1.31,0,0,1,.32.25,1.09,1.09,0,0,1,.23.29v-.65Zm-2.52,3.43a1,1,0,0,0,.44-.09,1.2,1.2,0,0,0,.34-.25,1.25,1.25,0,0,0,.22-.37,1.28,1.28,0,0,0,0-.89,1.25,1.25,0,0,0-.22-.37,1,1,0,0,0-.34-.25,1.06,1.06,0,0,0-.89,0,1,1,0,0,0-.34.25,1.25,1.25,0,0,0-.3.81,1.33,1.33,0,0,0,.08.45,1.25,1.25,0,0,0,.22.37,1.36,1.36,0,0,0,.34.25,1,1,0,0,0,.45.09"/><path id="Trazado_273" data-name="Trazado 273" class="cls-1" d="M34.9,43.33a3,3,0,0,1-.36,1,3.16,3.16,0,0,1-.69.81,3.54,3.54,0,0,1-1,.54,4,4,0,0,1-2.74-.09A3.27,3.27,0,0,1,29,44.82a3.33,3.33,0,0,1-.7-1.1,3.81,3.81,0,0,1-.24-1.33,3.57,3.57,0,0,1,.24-1.3,3.3,3.3,0,0,1,1.77-1.88,3.6,3.6,0,0,1,1.45-.28,4,4,0,0,1,1.37.21,3.16,3.16,0,0,1,1,.59,2.83,2.83,0,0,1,.66.87,3.26,3.26,0,0,1,.32,1.06H33.3a2,2,0,0,0-.19-.54,1.57,1.57,0,0,0-.35-.42,1.49,1.49,0,0,0-.5-.29,1.75,1.75,0,0,0-.64-.1,1.9,1.9,0,0,0-.85.17,1.94,1.94,0,0,0-.63.46,2.14,2.14,0,0,0-.39.67,2.44,2.44,0,0,0,0,1.6,1.9,1.9,0,0,0,1,1.12,2.43,2.43,0,0,0,.89.17,1.6,1.6,0,0,0,.53-.09,1.92,1.92,0,0,0,.47-.25,1.58,1.58,0,0,0,.36-.37,1.5,1.5,0,0,0,.22-.46Z"/><path id="Trazado_274" data-name="Trazado 274" class="cls-1" d="M40.38,41.15V45.7H38.94v-.64a1.33,1.33,0,0,1-.23.3,1.44,1.44,0,0,1-.32.23,2,2,0,0,1-.4.16,1.67,1.67,0,0,1-.44.06,2.13,2.13,0,0,1-.9-.18,2.3,2.3,0,0,1-.7-.5,2.25,2.25,0,0,1-.45-.76,2.82,2.82,0,0,1,0-1.9,2.21,2.21,0,0,1,.45-.75,2.3,2.3,0,0,1,.7-.5,2.13,2.13,0,0,1,.9-.18,1.67,1.67,0,0,1,.44.06,2,2,0,0,1,.4.16,1.54,1.54,0,0,1,.32.25,1.09,1.09,0,0,1,.23.29v-.65Zm-2.53,3.43a1,1,0,0,0,.45-.09,1.36,1.36,0,0,0,.34-.25,1.25,1.25,0,0,0,.22-.37,1.28,1.28,0,0,0,0-.89,1.25,1.25,0,0,0-.22-.37,1,1,0,0,0-.34-.25,1.06,1.06,0,0,0-.89,0,1,1,0,0,0-.34.25,1.2,1.2,0,0,0-.3.81,1.33,1.33,0,0,0,.08.45,1.25,1.25,0,0,0,.22.37,1.2,1.2,0,0,0,.34.25,1,1,0,0,0,.45.09"/><path id="Trazado_275" data-name="Trazado 275" class="cls-1" d="M44.26,45.7l-.4,0-.56,0a3.27,3.27,0,0,1-.54,0,1.25,1.25,0,0,1-.53-.19,1.18,1.18,0,0,1-.4-.48,2.06,2.06,0,0,1-.15-.89V42.23H41V41.15h.72V39.8h1.43v1.35h1v1.08h-1v1.61a1.4,1.4,0,0,0,0,.41.59.59,0,0,0,.13.23.56.56,0,0,0,.2.11l.25,0H44a1.06,1.06,0,0,0,.25,0Z"/><path id="Trazado_276" data-name="Trazado 276" class="cls-1" d="M49.53,41.15V45.7H48.09v-.64a1.33,1.33,0,0,1-.23.3,1.72,1.72,0,0,1-.32.23,2.23,2.23,0,0,1-.4.16,1.67,1.67,0,0,1-.44.06,2.13,2.13,0,0,1-.9-.18,2.3,2.3,0,0,1-.7-.5,2.25,2.25,0,0,1-.45-.76,2.82,2.82,0,0,1,0-1.9,2.21,2.21,0,0,1,.45-.75,2.3,2.3,0,0,1,.7-.5,2.13,2.13,0,0,1,.9-.18,1.67,1.67,0,0,1,.44.06,2.23,2.23,0,0,1,.4.16,1.85,1.85,0,0,1,.32.25,1.09,1.09,0,0,1,.23.29v-.65ZM47,44.58a1,1,0,0,0,.45-.09,1.15,1.15,0,0,0,.33-.25,1.1,1.1,0,0,0,.23-.37A1.28,1.28,0,0,0,48,43a1.1,1.1,0,0,0-.23-.37,1,1,0,0,0-.33-.25,1.06,1.06,0,0,0-.89,0,.94.94,0,0,0-.34.25,1.2,1.2,0,0,0-.3.81,1.33,1.33,0,0,0,.08.45,1.07,1.07,0,0,0,.22.37,1.2,1.2,0,0,0,.34.25,1,1,0,0,0,.44.09"/><rect id="Rectángulo_58" data-name="Rectángulo 58" class="cls-1" x="50.57" y="39.09" width="1.44" height="6.6"/><path id="Trazado_277" data-name="Trazado 277" class="cls-1" d="M52.84,39.64a.89.89,0,0,1,.88-.91h0a.77.77,0,0,1,.37.07.85.85,0,0,1,.3.19.72.72,0,0,1,.2.29.89.89,0,0,1,.07.36.84.84,0,0,1-.07.35.87.87,0,0,1-.49.49,1,1,0,0,1-.37.08.86.86,0,0,1-.36-.08,1,1,0,0,1-.3-.19,1.21,1.21,0,0,1-.2-.3,1,1,0,0,1-.07-.35m.21,1.51h1.44v4.54H53.05Z"/><path id="Trazado_278" data-name="Trazado 278" class="cls-1" d="M55.53,41.15H57v.66a1.36,1.36,0,0,1,.57-.57,2.25,2.25,0,0,1,1.69-.07,1.29,1.29,0,0,1,.51.39,1.33,1.33,0,0,1,.28.6,4,4,0,0,1,.08.84v2.7H58.65V43.37a1.7,1.7,0,0,0-.17-.8.67.67,0,0,0-.63-.31.74.74,0,0,0-.66.31,1.47,1.47,0,0,0-.22.84V45.7H55.53Z"/><path id="Trazado_279" data-name="Trazado 279" class="cls-1" d="M65.83,41.15V45.7H64.39v-.64a1.33,1.33,0,0,1-.23.3,1.5,1.5,0,0,1-.33.23,1.76,1.76,0,0,1-.4.16,1.54,1.54,0,0,1-.43.06,2.13,2.13,0,0,1-.9-.18,2.19,2.19,0,0,1-.7-.5,2.1,2.1,0,0,1-.45-.76,2.82,2.82,0,0,1,0-1.9,2.06,2.06,0,0,1,.45-.75,2.19,2.19,0,0,1,.7-.5A2.13,2.13,0,0,1,63,41a1.54,1.54,0,0,1,.43.06,1.76,1.76,0,0,1,.4.16,1.59,1.59,0,0,1,.33.25,1.34,1.34,0,0,1,.23.29v-.65ZM63.3,44.58a.94.94,0,0,0,.44-.09,1.07,1.07,0,0,0,.34-.25,1.1,1.1,0,0,0,.23-.37,1.28,1.28,0,0,0,0-.89,1.28,1.28,0,0,0-.23-.37.94.94,0,0,0-.34-.25,1,1,0,0,0-.88,0,.94.94,0,0,0-.34.25,1.15,1.15,0,0,0-.3.81,1.12,1.12,0,0,0,.08.45,1.07,1.07,0,0,0,.22.37,1.2,1.2,0,0,0,.34.25,1,1,0,0,0,.44.09"/></g></g></svg>