<svg xmlns="http://www.w3.org/2000/svg" viewBox="0 0 273.5 67" fill="#FFFFFF"><path d="M29.36,39.54l-1.62,1a6.19,6.19,0,0,0-3.29,5.12V63h8.49L29.63,41.44Z"/><path d="M22.72,45.62a7.79,7.79,0,0,1,4.17-6.46l2.21-1.23L25,11.24a3.51,3.51,0,0,0-3.64-2.91H14.2a3.47,3.47,0,0,0-3.63,2.86L2.32,63h20.4Z"/><path d="M39.09,63H53.23V28c0-.1.08-.19.07-.28s0,0,0-.06a2.28,2.28,0,0,0,0-.25v0a1.75,1.75,0,0,0-.06-.21l0,0a1.36,1.36,0,0,0-.1-.19v0L53,26.83l0,0-.15-.11h0l-.15-.06h0l-.19,0h0a1.07,1.07,0,0,0-.28,0h0a1.62,1.62,0,0,0-.32.14L41.9,32.55l-14.26,8A7.44,7.44,0,0,0,26,41.72a6.66,6.66,0,0,0-1.19,1.62q-.09.18-.17.36a4.91,4.91,0,0,0-.17.75,4.57,4.57,0,0,0-.06,1.17V63H39.09Z"/><path d="M89.73,62.81H87.16l-.46,1.57-.25,0h-.5l-.23,0,2.21-6.78.26,0h.57l.27,0,2.2,6.78-.25,0h-.52l-.24,0ZM87.41,62h2.06l-1-3.46Z"/><path d="M92,63.5a3.24,3.24,0,0,0,1.17.23,1.78,1.78,0,0,0,.41,0,1.1,1.1,0,0,0,.34-.14.78.78,0,0,0,.24-.23A.55.55,0,0,0,94.3,63a.61.61,0,0,0-.07-.31.66.66,0,0,0-.19-.21,1.25,1.25,0,0,0-.27-.15l-.33-.12-.33-.12a2.38,2.38,0,0,1-.88-.51,1.05,1.05,0,0,1-.27-.76,1.25,1.25,0,0,1,.46-1,2.07,2.07,0,0,1,1.34-.38,3.66,3.66,0,0,1,.72.07,4.44,4.44,0,0,1,.62.16A2.32,2.32,0,0,1,95,60a2.2,2.2,0,0,1-.13.35l-.49-.15a2.59,2.59,0,0,0-.62-.07,1.48,1.48,0,0,0-.62.12.44.44,0,0,0-.27.43A.53.53,0,0,0,93,61a.61.61,0,0,0,.18.19,1.21,1.21,0,0,0,.26.14l.32.11.41.14a3.1,3.1,0,0,1,.43.18,1.27,1.27,0,0,1,.35.26,1.2,1.2,0,0,1,.24.38,1.56,1.56,0,0,1-.05,1.17,1.41,1.41,0,0,1-.4.49,1.93,1.93,0,0,1-.63.32,2.75,2.75,0,0,1-.81.11,4.5,4.5,0,0,1-.79-.06,4,4,0,0,1-.63-.17,1.88,1.88,0,0,1,.08-.38Q92,63.68,92,63.5Z"/><path d="M98.38,64.49a2.37,2.37,0,0,1-1-.19,2,2,0,0,1-.71-.53,2.22,2.22,0,0,1-.42-.8,3.73,3.73,0,0,1,0-2,2.22,2.22,0,0,1,.42-.8,2,2,0,0,1,.71-.54,2.57,2.57,0,0,1,2,0,2,2,0,0,1,.71.54,2.22,2.22,0,0,1,.42.8,3.72,3.72,0,0,1,0,2,2.22,2.22,0,0,1-.42.8,2,2,0,0,1-.71.53A2.37,2.37,0,0,1,98.38,64.49Zm0-.75a1.07,1.07,0,0,0,1-.47,2.9,2.9,0,0,0,0-2.62,1.07,1.07,0,0,0-1-.47,1.06,1.06,0,0,0-1,.47,2.95,2.95,0,0,0,0,2.62A1.06,1.06,0,0,0,98.38,63.74Z"/><path d="M105.09,63.53a1.5,1.5,0,0,1,.13.33,1.78,1.78,0,0,1,.07.41,3.49,3.49,0,0,1-1.27.22,2.32,2.32,0,0,1-1.82-.68,2.66,2.66,0,0,1-.61-1.84,3.2,3.2,0,0,1,.15-1,2.27,2.27,0,0,1,.45-.8,2.11,2.11,0,0,1,.74-.54,2.5,2.5,0,0,1,1-.2,4.6,4.6,0,0,1,.7,0,2.87,2.87,0,0,1,.58.15,1.92,1.92,0,0,1,0,.37,1.63,1.63,0,0,1-.12.37,3.21,3.21,0,0,0-1.06-.16,1.26,1.26,0,0,0-1.08.48,2.08,2.08,0,0,0-.36,1.27,1.85,1.85,0,0,0,.41,1.32,1.47,1.47,0,0,0,1.11.42,3.39,3.39,0,0,0,.52,0A2.39,2.39,0,0,0,105.09,63.53Z"/><path d="M106.65,60.27H106a1.12,1.12,0,0,1,0-.17c0-.07,0-.13,0-.19s0-.13,0-.19a1.11,1.11,0,0,1,0-.17h1.53v4.84l-.23,0h-.45l-.23,0Zm-.21-1.8a1.93,1.93,0,0,1,0-.24c0-.09,0-.17,0-.24s0-.15,0-.24a1.68,1.68,0,0,1,0-.24l.26,0h.49l.25,0a1.68,1.68,0,0,1,0,.24q0,.13,0,.24c0,.07,0,.15,0,.24a1.93,1.93,0,0,1,0,.24l-.25,0h-.49Z"/><path d="M111.64,61.19a.92.92,0,0,0-.28-.77,1.33,1.33,0,0,0-.82-.22,3.5,3.5,0,0,0-.62.05,4.76,4.76,0,0,0-.56.14,1.47,1.47,0,0,1-.18-.74,4.32,4.32,0,0,1,.71-.16,5.16,5.16,0,0,1,.74-.06,2.12,2.12,0,0,1,1.43.43,1.73,1.73,0,0,1,.49,1.37v3l-.8.16a5.77,5.77,0,0,1-1,.08,3.76,3.76,0,0,1-.83-.08,1.7,1.7,0,0,1-.63-.27,1.26,1.26,0,0,1-.4-.48,1.61,1.61,0,0,1-.14-.71,1.44,1.44,0,0,1,.61-1.22,2,2,0,0,1,.65-.3,3,3,0,0,1,.77-.1h.49l.33,0Zm0,.91-.36,0-.37,0a1.53,1.53,0,0,0-.89.22.75.75,0,0,0-.31.66.81.81,0,0,0,.1.44.71.71,0,0,0,.26.25.89.89,0,0,0,.34.1l.36,0,.45,0a2.69,2.69,0,0,0,.41-.07Z"/><path d="M117.18,63.53a1.5,1.5,0,0,1,.13.33,1.75,1.75,0,0,1,.07.41,3.49,3.49,0,0,1-1.27.22,2.32,2.32,0,0,1-1.82-.68,2.66,2.66,0,0,1-.61-1.84,3.21,3.21,0,0,1,.15-1,2.27,2.27,0,0,1,.45-.8,2.11,2.11,0,0,1,.74-.54,2.5,2.5,0,0,1,1-.2,4.6,4.6,0,0,1,.7,0,2.87,2.87,0,0,1,.58.15,1.92,1.92,0,0,1,0,.37,1.61,1.61,0,0,1-.12.37,3.21,3.21,0,0,0-1.06-.16,1.26,1.26,0,0,0-1.08.48,2.08,2.08,0,0,0-.36,1.27,1.85,1.85,0,0,0,.41,1.32,1.47,1.47,0,0,0,1.11.42,3.39,3.39,0,0,0,.52,0A2.38,2.38,0,0,0,117.18,63.53Z"/><path d="M118.75,60.27h-.61a1.17,1.17,0,0,1,0-.17c0-.07,0-.13,0-.19s0-.13,0-.19a1.16,1.16,0,0,1,0-.17h1.53v4.84l-.23,0H119l-.23,0Zm-.21-1.8a1.85,1.85,0,0,1,0-.24c0-.09,0-.17,0-.24s0-.15,0-.24a1.62,1.62,0,0,1,0-.24l.26,0h.49l.25,0a1.67,1.67,0,0,1,0,.24c0,.09,0,.17,0,.24s0,.15,0,.24a1.92,1.92,0,0,1,0,.24l-.25,0h-.49Z"/><path d="M123.14,64.49a2.37,2.37,0,0,1-1-.19,2,2,0,0,1-.71-.53A2.22,2.22,0,0,1,121,63a3.72,3.72,0,0,1,0-2,2.22,2.22,0,0,1,.42-.8,2,2,0,0,1,.71-.54,2.57,2.57,0,0,1,2,0,2,2,0,0,1,.71.54,2.22,2.22,0,0,1,.42.8,3.73,3.73,0,0,1,0,2,2.22,2.22,0,0,1-.42.8,2,2,0,0,1-.71.53A2.37,2.37,0,0,1,123.14,64.49Zm0-.75a1.07,1.07,0,0,0,1-.47,2.9,2.9,0,0,0,0-2.62,1.07,1.07,0,0,0-1-.47,1.06,1.06,0,0,0-1,.47,2.95,2.95,0,0,0,0,2.62A1.06,1.06,0,0,0,123.14,63.74Zm.06-5-.23,0h-.49l-.22,0,1.08-1.2.29,0h.62l.27,0Z"/><path d="M126.62,59.54l.2,0h.4l.19,0c0,.09,0,.22.06.38a3.5,3.5,0,0,1,0,.4,1.92,1.92,0,0,1,.24-.32,1.84,1.84,0,0,1,.33-.29,1.72,1.72,0,0,1,1-.29,1.5,1.5,0,0,1,1.23.48,2.16,2.16,0,0,1,.4,1.41v3.06l-.24,0H130l-.23,0V61.56a1.83,1.83,0,0,0-.21-1,.73.73,0,0,0-.66-.32,1.34,1.34,0,0,0-.5.09,1.12,1.12,0,0,0-.41.29,1.47,1.47,0,0,0-.29.51,2.34,2.34,0,0,0-.11.76v2.45l-.23,0h-.47l-.24,0Z"/><path d="M137.41,57.46l.24,0h.46l.23,0v6.78a6.7,6.7,0,0,1-.8.17,6.34,6.34,0,0,1-1,.07,3.58,3.58,0,0,1-1-.13,2,2,0,0,1-1.33-1.17A2.9,2.9,0,0,1,134,62a3.1,3.1,0,0,1,.17-1.07,2.38,2.38,0,0,1,.49-.83,2.21,2.21,0,0,1,.77-.53,2.54,2.54,0,0,1,1-.19,3.38,3.38,0,0,1,.49,0,3.28,3.28,0,0,1,.44.09Zm0,2.89a2,2,0,0,0-.41-.11,2.76,2.76,0,0,0-.47,0,1.48,1.48,0,0,0-.67.14,1.3,1.3,0,0,0-.47.39,1.68,1.68,0,0,0-.27.58A2.81,2.81,0,0,0,135,62a1.71,1.71,0,0,0,.42,1.28,1.59,1.59,0,0,0,1.13.39l.45,0a2.14,2.14,0,0,0,.37-.07Z"/><path d="M140.53,62.19a1.58,1.58,0,0,0,.41,1.16,1.63,1.63,0,0,0,1.16.37,3.47,3.47,0,0,0,1.27-.24,1.41,1.41,0,0,1,.12.34,2.21,2.21,0,0,1,.06.4,3.12,3.12,0,0,1-.68.2,4.73,4.73,0,0,1-.82.07,3.11,3.11,0,0,1-1.13-.18A2,2,0,0,1,139.68,63a3.38,3.38,0,0,1-.14-1,3.56,3.56,0,0,1,.14-1,2.26,2.26,0,0,1,.42-.81,2,2,0,0,1,.71-.55,2.35,2.35,0,0,1,1-.2,2.12,2.12,0,0,1,.88.17,1.78,1.78,0,0,1,.63.47,2,2,0,0,1,.39.71,2.9,2.9,0,0,1,.13.89q0,.13,0,.28c0,.1,0,.18,0,.25Zm2.39-.7a1.79,1.79,0,0,0-.07-.5,1.28,1.28,0,0,0-.21-.42,1,1,0,0,0-.35-.29,1.27,1.27,0,0,0-1.39.24,1.71,1.71,0,0,0-.37,1Z"/><path d="M150.41,57.46l.24,0h.46l.23,0v6.78a6.74,6.74,0,0,1-.8.17,6.34,6.34,0,0,1-1,.07,3.58,3.58,0,0,1-1-.13,2,2,0,0,1-1.33-1.17A2.89,2.89,0,0,1,147,62a3.11,3.11,0,0,1,.17-1.07,2.39,2.39,0,0,1,.49-.83,2.21,2.21,0,0,1,.77-.53,2.54,2.54,0,0,1,1-.19,3.38,3.38,0,0,1,.49,0,3.28,3.28,0,0,1,.44.09Zm0,2.89a2,2,0,0,0-.41-.11,2.76,2.76,0,0,0-.47,0,1.48,1.48,0,0,0-.67.14,1.3,1.3,0,0,0-.47.39,1.68,1.68,0,0,0-.27.58A2.81,2.81,0,0,0,148,62a1.71,1.71,0,0,0,.42,1.28,1.59,1.59,0,0,0,1.13.39l.45,0a2.14,2.14,0,0,0,.37-.07Z"/><path d="M153.53,62.19a1.58,1.58,0,0,0,.41,1.16,1.63,1.63,0,0,0,1.15.37,3.47,3.47,0,0,0,1.27-.24,1.42,1.42,0,0,1,.12.34,2.24,2.24,0,0,1,.06.4,3.13,3.13,0,0,1-.68.2,4.73,4.73,0,0,1-.82.07,3.11,3.11,0,0,1-1.13-.18A2,2,0,0,1,152.68,63a3.38,3.38,0,0,1-.14-1,3.56,3.56,0,0,1,.14-1,2.26,2.26,0,0,1,.42-.81,2,2,0,0,1,.71-.55,2.35,2.35,0,0,1,1-.2,2.12,2.12,0,0,1,.88.17,1.78,1.78,0,0,1,.63.47,2,2,0,0,1,.39.71,2.88,2.88,0,0,1,.13.89q0,.13,0,.28c0,.1,0,.18,0,.25Zm2.39-.7a1.79,1.79,0,0,0-.07-.5,1.28,1.28,0,0,0-.21-.42,1,1,0,0,0-.35-.29,1.1,1.1,0,0,0-.5-.11,1.11,1.11,0,0,0-.88.35,1.71,1.71,0,0,0-.37,1Z"/><path d="M158,63.5a3.24,3.24,0,0,0,1.17.23,1.78,1.78,0,0,0,.41,0,1.1,1.1,0,0,0,.34-.14.79.79,0,0,0,.24-.23.55.55,0,0,0,.09-.31.62.62,0,0,0-.07-.31.66.66,0,0,0-.19-.21,1.24,1.24,0,0,0-.27-.15l-.33-.12-.33-.12a2.38,2.38,0,0,1-.88-.51,1.05,1.05,0,0,1-.27-.76,1.25,1.25,0,0,1,.46-1,2.07,2.07,0,0,1,1.34-.38,3.65,3.65,0,0,1,.72.07,4.43,4.43,0,0,1,.62.16A2.28,2.28,0,0,1,161,60a2.2,2.2,0,0,1-.13.35l-.49-.15a2.59,2.59,0,0,0-.62-.07,1.48,1.48,0,0,0-.62.12.44.44,0,0,0-.27.43.53.53,0,0,0,.07.27.61.61,0,0,0,.18.19,1.21,1.21,0,0,0,.26.14l.32.11.41.14a3.1,3.1,0,0,1,.43.18,1.27,1.27,0,0,1,.35.26,1.19,1.19,0,0,1,.24.38,1.44,1.44,0,0,1-.45,1.66,1.92,1.92,0,0,1-.63.32,2.75,2.75,0,0,1-.81.11,4.5,4.5,0,0,1-.79-.06,4,4,0,0,1-.63-.17,1.88,1.88,0,0,1,.08-.38Q157.91,63.68,158,63.5Z"/><path d="M164.92,61.19a.92.92,0,0,0-.28-.77,1.33,1.33,0,0,0-.82-.22,3.5,3.5,0,0,0-.62.05,4.73,4.73,0,0,0-.56.14,1.47,1.47,0,0,1-.18-.74,4.31,4.31,0,0,1,.71-.16,5.15,5.15,0,0,1,.74-.06,2.12,2.12,0,0,1,1.43.43,1.73,1.73,0,0,1,.49,1.37v3l-.8.16a5.77,5.77,0,0,1-1,.08,3.76,3.76,0,0,1-.83-.08,1.7,1.7,0,0,1-.63-.27,1.26,1.26,0,0,1-.4-.48,1.61,1.61,0,0,1-.14-.71,1.44,1.44,0,0,1,.61-1.22,2,2,0,0,1,.65-.3,3,3,0,0,1,.77-.1h.49l.33,0Zm0,.91-.36,0-.37,0a1.54,1.54,0,0,0-.89.22.76.76,0,0,0-.31.66.81.81,0,0,0,.1.44.71.71,0,0,0,.26.25.9.9,0,0,0,.34.1l.36,0,.45,0a2.7,2.7,0,0,0,.41-.07Z"/><path d="M167.24,59.54l.2,0h.41l.19,0c0,.09,0,.22.06.37a3.27,3.27,0,0,1,0,.39,2,2,0,0,1,.52-.56,1.39,1.39,0,0,1,.83-.24h.29a1.58,1.58,0,0,1,0,.18c0,.06,0,.13,0,.2a2.08,2.08,0,0,1,0,.24c0,.08,0,.16,0,.24l-.16,0h-.13a1.64,1.64,0,0,0-.49.07,1,1,0,0,0-.41.25,1.24,1.24,0,0,0-.29.49,2.47,2.47,0,0,0-.11.8v2.4l-.23,0h-.46l-.24,0Z"/><path d="M170.74,59.54l.2,0h.41l.19,0c0,.09,0,.22.06.37a3.27,3.27,0,0,1,0,.39,2,2,0,0,1,.52-.56,1.39,1.39,0,0,1,.83-.24h.29a1.58,1.58,0,0,1,0,.18c0,.06,0,.13,0,.2a2.08,2.08,0,0,1,0,.24c0,.08,0,.16,0,.24l-.16,0H173a1.64,1.64,0,0,0-.49.07,1,1,0,0,0-.41.25,1.24,1.24,0,0,0-.29.49,2.47,2.47,0,0,0-.11.8v2.4l-.23,0H171l-.24,0Z"/><path d="M176.07,64.49a2.37,2.37,0,0,1-1-.19,2,2,0,0,1-.71-.53A2.22,2.22,0,0,1,174,63a3.72,3.72,0,0,1,0-2,2.22,2.22,0,0,1,.42-.8,2,2,0,0,1,.71-.54,2.57,2.57,0,0,1,2,0,2,2,0,0,1,.71.54,2.22,2.22,0,0,1,.42.8,3.72,3.72,0,0,1,0,2,2.22,2.22,0,0,1-.42.8,2,2,0,0,1-.71.53A2.37,2.37,0,0,1,176.07,64.49Zm0-.75a1.07,1.07,0,0,0,1-.47,2.9,2.9,0,0,0,0-2.62,1.07,1.07,0,0,0-1-.47,1.06,1.06,0,0,0-1,.47,2.94,2.94,0,0,0,0,2.62A1.06,1.06,0,0,0,176.07,63.74Z"/><path d="M179.53,57.46l.23,0h.46l.23,0v5.45a1.45,1.45,0,0,0,0,.41.56.56,0,0,0,.13.23.37.37,0,0,0,.19.1l.23,0h.19l.18,0a2.87,2.87,0,0,1,.08.72,1.25,1.25,0,0,1-.32.06h-.35a1.89,1.89,0,0,1-.51-.07,1.09,1.09,0,0,1-.41-.22,1,1,0,0,1-.28-.41,1.68,1.68,0,0,1-.1-.63Z"/><path d="M182.34,57.46l.23,0H183l.23,0v5.45a1.45,1.45,0,0,0,0,.41.56.56,0,0,0,.13.23.37.37,0,0,0,.19.1l.23,0h.19l.18,0a2.87,2.87,0,0,1,.08.72,1.25,1.25,0,0,1-.32.06h-.35a1.89,1.89,0,0,1-.51-.07,1.09,1.09,0,0,1-.41-.22,1,1,0,0,1-.28-.41,1.68,1.68,0,0,1-.1-.63Z"/><path d="M187.72,61.19a.92.92,0,0,0-.28-.77,1.33,1.33,0,0,0-.82-.22,3.5,3.5,0,0,0-.62.05,4.73,4.73,0,0,0-.56.14,1.47,1.47,0,0,1-.18-.74,4.31,4.31,0,0,1,.71-.16,5.15,5.15,0,0,1,.74-.06,2.12,2.12,0,0,1,1.43.43,1.73,1.73,0,0,1,.49,1.37v3l-.8.16a5.77,5.77,0,0,1-1,.08,3.76,3.76,0,0,1-.83-.08,1.7,1.7,0,0,1-.63-.27,1.26,1.26,0,0,1-.4-.48,1.61,1.61,0,0,1-.14-.71,1.44,1.44,0,0,1,.61-1.22,2,2,0,0,1,.65-.3,3,3,0,0,1,.77-.1h.49l.33,0Zm0,.91-.36,0L187,62a1.54,1.54,0,0,0-.89.22.76.76,0,0,0-.31.66.81.81,0,0,0,.1.44.71.71,0,0,0,.26.25.9.9,0,0,0,.34.1l.36,0,.45,0a2.7,2.7,0,0,0,.41-.07Z"/><path d="M193.15,57.46l.24,0h.46l.23,0v6.78a6.74,6.74,0,0,1-.8.17,6.34,6.34,0,0,1-1,.07,3.58,3.58,0,0,1-1-.13A2,2,0,0,1,190,63.18a2.89,2.89,0,0,1-.2-1.14A3.11,3.11,0,0,1,190,61a2.39,2.39,0,0,1,.49-.83,2.21,2.21,0,0,1,.77-.53,2.54,2.54,0,0,1,1-.19,3.38,3.38,0,0,1,.49,0,3.28,3.28,0,0,1,.44.09Zm0,2.89a2,2,0,0,0-.41-.11,2.76,2.76,0,0,0-.47,0,1.48,1.48,0,0,0-.67.14,1.3,1.3,0,0,0-.47.39,1.68,1.68,0,0,0-.27.58,2.81,2.81,0,0,0-.09.73,1.71,1.71,0,0,0,.42,1.28,1.59,1.59,0,0,0,1.13.39l.45,0a2.14,2.14,0,0,0,.37-.07Z"/><path d="M197.53,64.49a2.37,2.37,0,0,1-1-.19,2,2,0,0,1-.71-.53,2.22,2.22,0,0,1-.42-.8,3.72,3.72,0,0,1,0-2,2.22,2.22,0,0,1,.42-.8,2,2,0,0,1,.71-.54,2.57,2.57,0,0,1,2,0,2,2,0,0,1,.71.54,2.22,2.22,0,0,1,.42.8,3.72,3.72,0,0,1,0,2,2.22,2.22,0,0,1-.42.8,2,2,0,0,1-.71.53A2.37,2.37,0,0,1,197.53,64.49Zm0-.75a1.07,1.07,0,0,0,1-.47,2.9,2.9,0,0,0,0-2.62,1.07,1.07,0,0,0-1-.47,1.06,1.06,0,0,0-1,.47,2.94,2.94,0,0,0,0,2.62A1.06,1.06,0,0,0,197.53,63.74Z"/><path d="M201,59.54l.2,0h.41l.19,0c0,.09,0,.22.06.37a3.27,3.27,0,0,1,0,.39,2,2,0,0,1,.52-.56,1.39,1.39,0,0,1,.83-.24h.29a1.58,1.58,0,0,1,0,.18c0,.06,0,.13,0,.2a2.08,2.08,0,0,1,0,.24c0,.08,0,.16,0,.24l-.16,0h-.13a1.64,1.64,0,0,0-.49.07,1,1,0,0,0-.41.25,1.24,1.24,0,0,0-.29.49,2.47,2.47,0,0,0-.11.8v2.4l-.23,0h-.46l-.24,0Z"/><path d="M205.07,62.19a1.58,1.58,0,0,0,.41,1.16,1.63,1.63,0,0,0,1.15.37,3.47,3.47,0,0,0,1.27-.24,1.42,1.42,0,0,1,.12.34,2.24,2.24,0,0,1,.06.4,3.13,3.13,0,0,1-.68.2,4.73,4.73,0,0,1-.82.07,3.11,3.11,0,0,1-1.13-.18A2,2,0,0,1,204.22,63a3.38,3.38,0,0,1-.14-1,3.56,3.56,0,0,1,.14-1,2.26,2.26,0,0,1,.42-.81,2,2,0,0,1,.71-.55,2.35,2.35,0,0,1,1-.2,2.12,2.12,0,0,1,.88.17,1.78,1.78,0,0,1,.63.47,2,2,0,0,1,.39.71,2.88,2.88,0,0,1,.13.89q0,.13,0,.28c0,.1,0,.18,0,.25Zm2.39-.7a1.79,1.79,0,0,0-.07-.5,1.28,1.28,0,0,0-.21-.42,1,1,0,0,0-.35-.29,1.1,1.1,0,0,0-.5-.11,1.11,1.11,0,0,0-.88.35,1.71,1.71,0,0,0-.37,1Z"/><path d="M209.53,63.5a3.24,3.24,0,0,0,1.17.23,1.78,1.78,0,0,0,.41,0,1.1,1.1,0,0,0,.34-.14.79.79,0,0,0,.24-.23.55.55,0,0,0,.09-.31.62.62,0,0,0-.07-.31.66.66,0,0,0-.19-.21,1.24,1.24,0,0,0-.27-.15l-.33-.12-.33-.12a2.38,2.38,0,0,1-.88-.51,1.05,1.05,0,0,1-.27-.76,1.25,1.25,0,0,1,.46-1,2.07,2.07,0,0,1,1.34-.38,3.65,3.65,0,0,1,.72.07,4.43,4.43,0,0,1,.62.16,2.28,2.28,0,0,1-.07.38,2.2,2.2,0,0,1-.13.35l-.49-.15a2.59,2.59,0,0,0-.62-.07,1.48,1.48,0,0,0-.62.12.44.44,0,0,0-.27.43.53.53,0,0,0,.07.27.61.61,0,0,0,.18.19,1.21,1.21,0,0,0,.26.14l.32.11.41.14a3.1,3.1,0,0,1,.43.18,1.27,1.27,0,0,1,.35.26,1.19,1.19,0,0,1,.24.38,1.44,1.44,0,0,1-.45,1.66,1.92,1.92,0,0,1-.63.32,2.75,2.75,0,0,1-.81.11,4.5,4.5,0,0,1-.79-.06,4,4,0,0,1-.63-.17,1.88,1.88,0,0,1,.08-.38Q209.46,63.68,209.53,63.5Z"/><path d="M216.42,60.27h-.61a1.23,1.23,0,0,1,0-.17c0-.07,0-.13,0-.19s0-.13,0-.19a1.21,1.21,0,0,1,0-.17h1.53v4.84l-.23,0h-.45l-.23,0Zm-.21-1.8a1.86,1.86,0,0,1,0-.24c0-.09,0-.17,0-.24s0-.15,0-.24a1.62,1.62,0,0,1,0-.24l.26,0H217l.25,0a1.68,1.68,0,0,1,0,.24c0,.09,0,.17,0,.24s0,.15,0,.24a1.93,1.93,0,0,1,0,.24l-.25,0h-.49Z"/><path d="M218.86,59.54l.2,0h.4l.19,0q0,.14.06.38a3.5,3.5,0,0,1,0,.4A1.92,1.92,0,0,1,220,60a1.84,1.84,0,0,1,.33-.29,1.72,1.72,0,0,1,1-.29,1.5,1.5,0,0,1,1.23.48,2.16,2.16,0,0,1,.4,1.41v3.06l-.24,0h-.47l-.23,0V61.56a1.83,1.83,0,0,0-.21-1,.73.73,0,0,0-.66-.32,1.34,1.34,0,0,0-.5.09,1.12,1.12,0,0,0-.41.29,1.47,1.47,0,0,0-.29.51,2.34,2.34,0,0,0-.11.76v2.45l-.23,0h-.47l-.24,0Z"/><path d="M224.31,59.54l.2,0h.4l.19,0c0,.09,0,.22.06.37a3.27,3.27,0,0,1,0,.39,1.77,1.77,0,0,1,.21-.32,1.51,1.51,0,0,1,.3-.28,1.54,1.54,0,0,1,.4-.2,1.57,1.57,0,0,1,.5-.08,1.26,1.26,0,0,1,1.34.88,2.31,2.31,0,0,1,.23-.32,1.76,1.76,0,0,1,.31-.28,1.51,1.51,0,0,1,.39-.2,1.76,1.76,0,0,1,1.71.4,2.18,2.18,0,0,1,.38,1.4v3.08l-.24,0h-.47l-.23,0V61.56a1.91,1.91,0,0,0-.2-1,.7.7,0,0,0-.65-.33,1,1,0,0,0-.78.35,1.55,1.55,0,0,0-.3,1v2.73l-.23,0h-.46l-.23,0V61.5a1.89,1.89,0,0,0-.19-.95.65.65,0,0,0-.6-.32,1,1,0,0,0-.44.1,1,1,0,0,0-.36.31,1.59,1.59,0,0,0-.25.52,2.68,2.68,0,0,0-.09.73v2.47l-.23,0h-.47l-.24,0Z"/><path d="M234.32,64.49a2.37,2.37,0,0,1-1-.19,2,2,0,0,1-.71-.53,2.22,2.22,0,0,1-.42-.8,3.72,3.72,0,0,1,0-2,2.22,2.22,0,0,1,.42-.8,2,2,0,0,1,.71-.54,2.57,2.57,0,0,1,2,0,2,2,0,0,1,.71.54,2.22,2.22,0,0,1,.42.8,3.72,3.72,0,0,1,0,2,2.22,2.22,0,0,1-.42.8,2,2,0,0,1-.71.53A2.37,2.37,0,0,1,234.32,64.49Zm0-.75a1.07,1.07,0,0,0,1-.47,2.9,2.9,0,0,0,0-2.62,1.07,1.07,0,0,0-1-.47,1.06,1.06,0,0,0-1,.47,2.94,2.94,0,0,0,0,2.62A1.06,1.06,0,0,0,234.32,63.74Z"/><path d="M237.79,57.46l.23,0h.47l.24,0v2.66a1.43,1.43,0,0,1,.53-.49,1.7,1.7,0,0,1,.87-.21,2.21,2.21,0,0,1,.8.14,1.6,1.6,0,0,1,.63.44,2.06,2.06,0,0,1,.41.75,3.56,3.56,0,0,1,.15,1.08,2.63,2.63,0,0,1-.7,1.95,2.74,2.74,0,0,1-2,.7,4.78,4.78,0,0,1-.85-.08,5.17,5.17,0,0,1-.74-.18Zm.93,6.13a1.83,1.83,0,0,0,.36.08l.4,0a1.87,1.87,0,0,0,.65-.11,1.37,1.37,0,0,0,.51-.33,1.58,1.58,0,0,0,.34-.57,2.35,2.35,0,0,0,.13-.82,2.28,2.28,0,0,0-.27-1.22,1,1,0,0,0-.9-.43,1.34,1.34,0,0,0-.43.07,1.14,1.14,0,0,0-.39.23,1.1,1.1,0,0,0-.29.41,1.63,1.63,0,0,0-.11.63Z"/><path d="M243.64,60.27H243a1.23,1.23,0,0,1,0-.17c0-.07,0-.13,0-.19s0-.13,0-.19a1.21,1.21,0,0,1,0-.17h1.53v4.84l-.23,0h-.45l-.23,0Zm-.21-1.8a1.86,1.86,0,0,1,0-.24c0-.09,0-.17,0-.24s0-.15,0-.24a1.62,1.62,0,0,1,0-.24l.26,0h.49l.25,0a1.68,1.68,0,0,1,0,.24c0,.09,0,.17,0,.24s0,.15,0,.24a1.93,1.93,0,0,1,0,.24l-.25,0h-.49Z"/><path d="M246.06,57.46l.23,0h.46l.23,0v5.45a1.45,1.45,0,0,0,0,.41.56.56,0,0,0,.13.23.37.37,0,0,0,.19.1l.23,0h.19l.18,0a2.87,2.87,0,0,1,.08.72,1.25,1.25,0,0,1-.32.06h-.35a1.89,1.89,0,0,1-.51-.07,1.09,1.09,0,0,1-.41-.22,1,1,0,0,1-.28-.41,1.68,1.68,0,0,1-.1-.63Z"/><path d="M249.17,60.27h-.61a1.23,1.23,0,0,1,0-.17c0-.07,0-.13,0-.19s0-.13,0-.19a1.21,1.21,0,0,1,0-.17h1.53v4.84l-.23,0h-.45l-.23,0Zm-.21-1.8a1.86,1.86,0,0,1,0-.24c0-.09,0-.17,0-.24s0-.15,0-.24a1.62,1.62,0,0,1,0-.24l.26,0h.49l.25,0a1.68,1.68,0,0,1,0,.24c0,.09,0,.17,0,.24s0,.15,0,.24a1.93,1.93,0,0,1,0,.24l-.25,0h-.49Z"/><path d="M254.15,61.19a.92.92,0,0,0-.28-.77,1.33,1.33,0,0,0-.82-.22,3.5,3.5,0,0,0-.62.05,4.73,4.73,0,0,0-.56.14,1.47,1.47,0,0,1-.18-.74,4.31,4.31,0,0,1,.71-.16,5.15,5.15,0,0,1,.74-.06,2.12,2.12,0,0,1,1.43.43,1.73,1.73,0,0,1,.49,1.37v3l-.8.16a5.77,5.77,0,0,1-1,.08,3.76,3.76,0,0,1-.83-.08,1.7,1.7,0,0,1-.63-.27,1.26,1.26,0,0,1-.4-.48,1.61,1.61,0,0,1-.14-.71,1.44,1.44,0,0,1,.61-1.22,2,2,0,0,1,.65-.3,3,3,0,0,1,.77-.1h.49l.33,0Zm0,.91-.36,0-.37,0a1.54,1.54,0,0,0-.89.22.76.76,0,0,0-.31.66.81.81,0,0,0,.1.44.71.71,0,0,0,.26.25.9.9,0,0,0,.34.1l.36,0,.45,0a2.7,2.7,0,0,0,.41-.07Z"/><path d="M256.47,59.54l.2,0h.41l.19,0c0,.09,0,.22.06.37a3.27,3.27,0,0,1,0,.39,2,2,0,0,1,.52-.56,1.39,1.39,0,0,1,.83-.24H259a1.58,1.58,0,0,1,0,.18c0,.06,0,.13,0,.2a2.08,2.08,0,0,1,0,.24c0,.08,0,.16,0,.24l-.16,0h-.13a1.64,1.64,0,0,0-.49.07,1,1,0,0,0-.41.25,1.24,1.24,0,0,0-.29.49,2.47,2.47,0,0,0-.11.8v2.4l-.23,0h-.46l-.24,0Z"/><path d="M260.26,60.27h-.61a1.23,1.23,0,0,1,0-.17c0-.07,0-.13,0-.19s0-.13,0-.19a1.21,1.21,0,0,1,0-.17h1.53v4.84l-.23,0h-.45l-.23,0Zm-.21-1.8a1.86,1.86,0,0,1,0-.24c0-.09,0-.17,0-.24s0-.15,0-.24a1.62,1.62,0,0,1,0-.24l.26,0h.49l.25,0a1.68,1.68,0,0,1,0,.24c0,.09,0,.17,0,.24s0,.15,0,.24a1.93,1.93,0,0,1,0,.24l-.25,0h-.49Z"/><path d="M264.66,64.49a2.37,2.37,0,0,1-1-.19,2,2,0,0,1-.71-.53,2.22,2.22,0,0,1-.42-.8,3.72,3.72,0,0,1,0-2,2.22,2.22,0,0,1,.42-.8,2,2,0,0,1,.71-.54,2.57,2.57,0,0,1,2,0,2,2,0,0,1,.71.54,2.22,2.22,0,0,1,.42.8,3.72,3.72,0,0,1,0,2,2.22,2.22,0,0,1-.42.8,2,2,0,0,1-.71.53A2.37,2.37,0,0,1,264.66,64.49Zm0-.75a1.07,1.07,0,0,0,1-.47,2.9,2.9,0,0,0,0-2.62,1.07,1.07,0,0,0-1-.47,1.06,1.06,0,0,0-1,.47,2.94,2.94,0,0,0,0,2.62A1.06,1.06,0,0,0,264.66,63.74Z"/><path d="M268.05,63.5a3.24,3.24,0,0,0,1.17.23,1.78,1.78,0,0,0,.41,0,1.1,1.1,0,0,0,.34-.14.79.79,0,0,0,.24-.23.55.55,0,0,0,.09-.31.62.62,0,0,0-.07-.31.66.66,0,0,0-.19-.21,1.24,1.24,0,0,0-.27-.15l-.33-.12-.33-.12a2.38,2.38,0,0,1-.88-.51,1.05,1.05,0,0,1-.27-.76,1.25,1.25,0,0,1,.46-1,2.07,2.07,0,0,1,1.34-.38,3.65,3.65,0,0,1,.72.07,4.43,4.43,0,0,1,.62.16A2.28,2.28,0,0,1,271,60a2.2,2.2,0,0,1-.13.35l-.49-.15a2.59,2.59,0,0,0-.62-.07,1.48,1.48,0,0,0-.62.12.44.44,0,0,0-.27.43A.53.53,0,0,0,269,61a.61.61,0,0,0,.18.19,1.21,1.21,0,0,0,.26.14l.32.11.41.14a3.1,3.1,0,0,1,.43.18,1.27,1.27,0,0,1,.35.26,1.19,1.19,0,0,1,.24.38,1.44,1.44,0,0,1-.45,1.66,1.92,1.92,0,0,1-.63.32,2.75,2.75,0,0,1-.81.11,4.5,4.5,0,0,1-.79-.06,4,4,0,0,1-.63-.17,1.88,1.88,0,0,1,.08-.38Q268,63.68,268.05,63.5Z"/><path d="M98.35,12.15q1.15-.16,2.18-.25t2.29-.08q1.09,0,2.13.08t2.29.25l12.29,39.27a30.18,30.18,0,0,1-4.37.33,24.54,24.54,0,0,1-4-.33l-2.19-7.87h-13L93.7,51.42a23,23,0,0,1-3.77.33,24.21,24.21,0,0,1-4-.33Zm8.74,24.8-4.53-16.49L97.8,36.94Z"/><path d="M118.83,12.15q2.29-.27,4.81-.46t5.57-.19q10.32,0,15.7,5.13T150.29,32q0,10.32-5.46,15.18t-16.22,4.86q-2.79,0-5.13-.19t-4.64-.46Zm8,32.94,1.26.11q.76.06,1.86.05a18.15,18.15,0,0,0,4.67-.57,8.41,8.41,0,0,0,3.74-2.1,10.59,10.59,0,0,0,2.51-4.1,19.74,19.74,0,0,0,.93-6.61,19.85,19.85,0,0,0-.93-6.55,10.57,10.57,0,0,0-2.51-4.15A9,9,0,0,0,134.75,19a14.75,14.75,0,0,0-4.34-.63l-1.78,0a15.91,15.91,0,0,0-1.78.14Z"/><path d="M152.58,12.15a24.88,24.88,0,0,1,4-.33,25.92,25.92,0,0,1,4,.33V51.42a25.6,25.6,0,0,1-4,.33,25.2,25.2,0,0,1-4-.33Z"/><path d="M169.15,12.15l1.53-.19q1-.14,2.16-.22l2.4-.16q1.23-.08,2.21-.08a24.12,24.12,0,0,1,5.84.66,12.38,12.38,0,0,1,4.51,2.08,9.46,9.46,0,0,1,2.92,3.69,13.14,13.14,0,0,1,1,5.49,13.59,13.59,0,0,1-1.17,5.9,10.79,10.79,0,0,1-3.17,4,13.1,13.1,0,0,1-4.64,2.24,21.32,21.32,0,0,1-5.54.71q-1.26,0-2.18-.05T172.91,36v15.4q-.38.05-.87.08l-1,0-1.06,0a8.14,8.14,0,0,1-.85-.08Zm3.77,20.37,1,.08.82.05.93.05q.52,0,1.34,0a22.92,22.92,0,0,0,3.88-.33,9.12,9.12,0,0,0,3.47-1.34,7.36,7.36,0,0,0,2.51-2.84,10.47,10.47,0,0,0,1-4.83,9.65,9.65,0,0,0-.74-4,6.43,6.43,0,0,0-2.1-2.59,9,9,0,0,0-3.33-1.42,20.2,20.2,0,0,0-4.37-.44q-1.42,0-2.51.08t-1.8.19Z"/><path d="M193.62,12.15h21a7.86,7.86,0,0,1,.08.79q0,.46,0,.9t0,.9a8,8,0,0,1-.08.85H197.38V28.86h13.87c0,.22.06.48.08.79s0,.61,0,.9,0,.56,0,.9a8.15,8.15,0,0,1-.08.85H197.38V48h17.75c0,.22.06.48.08.79s0,.61,0,.9,0,.56,0,.9a8.14,8.14,0,0,1-.08.85H193.62Z"/><path d="M218.8,12l2.1-.19,1.75-.16q.85-.08,1.78-.11t2.18,0a24.53,24.53,0,0,1,5.16.55,13.22,13.22,0,0,1,4.56,1.88,9.89,9.89,0,0,1,3.25,3.6,11.88,11.88,0,0,1,1.23,5.71,9.58,9.58,0,0,1-.76,3.88,12,12,0,0,1-2,3.14,12.92,12.92,0,0,1-2.84,2.4,19.37,19.37,0,0,1-3.3,1.67l-.44.16L244,51.42a5.59,5.59,0,0,1-1.09.11h-2.16a5.44,5.44,0,0,1-1.07-.11L225.9,33.23V33l1.2-.33a22.92,22.92,0,0,0,3.6-1.28,13.37,13.37,0,0,0,3.09-1.91,8.91,8.91,0,0,0,2.16-2.65,7.52,7.52,0,0,0,.82-3.6q0-4.26-2.62-6.39a10.94,10.94,0,0,0-7.1-2.13q-1.15,0-2.13.05t-2.35.22V51.42q-.38.05-.93.08l-1,0-1,0c-.33,0-.62,0-.87-.08Z"/><path d="M244.63,12.15q.38-.05.93-.08l1,0,1,0q.49,0,.87.08v23.7a25.2,25.2,0,0,0,.57,5.82,10.3,10.3,0,0,0,1.75,3.91,6.65,6.65,0,0,0,3,2.21,12.18,12.18,0,0,0,4.31.68q5,0,7.29-2.9t2.32-9.72V12.15q.38-.05.87-.08l1,0,1,0q.55,0,.93.08v24.2q0,7.86-3.22,11.8T258,52.07q-6.94,0-10.16-3.93t-3.22-11.8Zm14.42-3.22a14.52,14.52,0,0,1-2.35.16,11.62,11.62,0,0,1-1.91-.16l6.06-6.06a19,19,0,0,1,2.57-.16,20.72,20.72,0,0,1,2.68.16Z"/><path d="M73.81,26.17H64.13c-2,0-5.15.91-5.15,3.26V63H77.4V29.44C77.4,27,76.25,26.17,73.81,26.17Z"/><path d="M59,29.44V63h4V26C61.29,26.34,59,27.45,59,29.44Z"/><path d="M57.26,63V29.44a4.62,4.62,0,0,1,2.63-4,8.48,8.48,0,0,1,3.12-1V20.93a4.22,4.22,0,0,0-2.38-4L41,8.1a1.52,1.52,0,0,0-2.14,1.34V32.36L41,31.21,51,25.43A3,3,0,0,1,52.39,25,2.75,2.75,0,0,1,55,28V63Z"/></svg>