<svg id="Grupo_182" data-name="Grupo 182" xmlns="http://www.w3.org/2000/svg" xmlns:xlink="http://www.w3.org/1999/xlink" width="248" height="67.782" viewBox="0 0 248 67.782">
  <defs>
    <clipPath id="clip-path">
      <rect id="Rectángulo_115" data-name="Rectángulo 115" width="248" height="67.782" fill="#1bc9a8"/>
    </clipPath>
  </defs>
  <rect id="Rectángulo_113" data-name="Rectángulo 113" width="4.214" height="66.723" transform="translate(104.455 1.059)" fill="#1bc9a8"/>
  <path id="Trazado_83" data-name="Trazado 83" d="M54.079,0,50.708,3.371l20.8,20.805V63.015H4.768V5.805H33.373V29.642H38.14V1.037H0V67.782H76.28V22.2Z" transform="translate(0 0)" fill="#1bc9a8"/>
  <g id="Grupo_181" data-name="Grupo 181">
    <g id="Grupo_180" data-name="Grupo 180" clip-path="url(#clip-path)">
      <path id="Trazado_84" data-name="Trazado 84" d="M359.495,11.244c-.075-.074-.145-.141-.212-.2s-.138-.127-.212-.2a4.969,4.969,0,0,0,1.139-3.217,5.041,5.041,0,0,0-.391-1.978,5.375,5.375,0,0,0-1.106-1.665,5.033,5.033,0,0,0-2.324-1.318h-6.3v17.25h6.993a5.793,5.793,0,0,0,1.285-.514,4.915,4.915,0,0,0,1.128-.849,5.2,5.2,0,0,0,1.128-5.653,4.92,4.92,0,0,0-1.128-1.653M353.1,5.5h1.989a2.085,2.085,0,0,1,1.486.626,2.267,2.267,0,0,1,.447.682,2.058,2.058,0,0,1,.167.815,2.033,2.033,0,0,1-.167.827,2.154,2.154,0,0,1-.447.659,2.122,2.122,0,0,1-.67.447,2.051,2.051,0,0,1-.815.167H353.1Zm4.268,10.9a2.069,2.069,0,0,1-1.519.626H353.1v-4.29h2.748a2.149,2.149,0,0,1,1.519,3.664" transform="translate(-212.443 -1.617)" fill="#1bc9a8"/>
      <path id="Trazado_85" data-name="Trazado 85" d="M400.784,19.893H407.2V16.9h-6.413V12.34H407.2V9.324h-6.413v-3.8H407.2V2.665h-9.429V19.915h3.016Z" transform="translate(-241.376 -1.617)" fill="#1bc9a8"/>
      <path id="Trazado_86" data-name="Trazado 86" d="M446.479,15.829a1.539,1.539,0,0,1-.715-.123,1.839,1.839,0,0,1-.581-.391L443.217,13.3l-2.145,2.1,1.966,2.011a4.838,4.838,0,0,0,1.631,1.095,4.714,4.714,0,0,0,1.788.335h.067a4.373,4.373,0,0,0,1.855-.4,3.936,3.936,0,0,0,.849-.469,5.287,5.287,0,0,0,1.687-2.145,4.734,4.734,0,0,0,.324-1.743,4.443,4.443,0,0,0-.3-1.743,4.9,4.9,0,0,0-.927-1.5l-.067-.067-4.469-3.911a1.672,1.672,0,0,1-.4-1.251,1.686,1.686,0,0,1,.626-1.229l.045-.045a1.768,1.768,0,0,1,1.318-.425,1.739,1.739,0,0,1,1.229.67l1.43,1.788L452.088,4.5l-1.452-1.81a4.412,4.412,0,0,0-1.475-1.229,4.906,4.906,0,0,0-.872-.357,4.748,4.748,0,0,0-.939-.179A4.95,4.95,0,0,0,445.5,1.1a4.721,4.721,0,0,0-1.7.939l-.067.045a5.26,5.26,0,0,0-1.184,1.542,4.469,4.469,0,0,0-.491,1.81,4.722,4.722,0,0,0,.246,1.855,7.07,7.07,0,0,0,.413.86,4.714,4.714,0,0,0,.57.793l.067.067,4.469,3.91a1.649,1.649,0,0,1,.425,1.173,1.788,1.788,0,0,1-.491,1.173,1.662,1.662,0,0,1-1.274.559" transform="translate(-267.654 -0.548)" fill="#1bc9a8"/>
      <path id="Trazado_87" data-name="Trazado 87" d="M493.044,19.914h3.016V5.592h4.268V2.665H488.866V5.592h4.178Z" transform="translate(-296.657 -1.617)" fill="#1bc9a8"/>
      <path id="Trazado_88" data-name="Trazado 88" d="M351.115,75.987l2.748-.045a4.667,4.667,0,0,0,1.553-.491,5.337,5.337,0,0,0,1.307-.961,4.914,4.914,0,0,0,1.128-1.653,5.137,5.137,0,0,0,0-3.933,5.26,5.26,0,0,0-3.228-2.927H348.1V83.159h3.016Zm0-7.217H353.1a2.052,2.052,0,0,1,.815.167,2.258,2.258,0,0,1,.682.447,2.09,2.09,0,0,1,.458,2.312,2.05,2.05,0,0,1-.458.659,2.257,2.257,0,0,1-.682.447,2.045,2.045,0,0,1-.815.168h-1.989Z" transform="translate(-211.236 -40.037)" fill="#1bc9a8"/>
      <path id="Trazado_89" data-name="Trazado 89" d="M397.374,83.033h6.413V80.039h-6.413V65.806h-3.016v17.25h3.016Z" transform="translate(-239.307 -39.933)" fill="#1bc9a8"/>
      <path id="Trazado_90" data-name="Trazado 90" d="M437.389,65.636l-6.547,17.317h3.218l1.452-3.8H442.6l1.475,3.8h3.24l-6.726-17.317Zm-.737,10.5L439,69.9l2.436,6.234Z" transform="translate(-261.446 -39.83)" fill="#1bc9a8"/>
      <path id="Trazado_91" data-name="Trazado 91" d="M487.511,70.419a5.381,5.381,0,0,1,1.855-1.229,5.749,5.749,0,0,1,4.223,0,5.388,5.388,0,0,1,1.855,1.229l2.145-2.123a8.72,8.72,0,0,0-6.1-2.547,8.669,8.669,0,0,0-3.262.648,8.353,8.353,0,0,0-2.86,1.9,8.564,8.564,0,0,0-1.9,2.838,9.057,9.057,0,0,0-.626,3.263A8.65,8.65,0,0,0,483,76.05a8.564,8.564,0,0,0,2.369,4.446,8.342,8.342,0,0,0,2.86,1.9,8.59,8.59,0,0,0,3.262.626,8.57,8.57,0,0,0,6.1-2.525l-2.145-2.122A5.537,5.537,0,0,1,491.488,80a5.622,5.622,0,0,1-2.168-.424,5.507,5.507,0,0,1-1.81-1.207,5.616,5.616,0,0,1-1.229-1.821,5.692,5.692,0,0,1,0-4.312,5.62,5.62,0,0,1,1.229-1.821" transform="translate(-293 -39.898)" fill="#1bc9a8"/>
      <path id="Trazado_92" data-name="Trazado 92" d="M546.884,80.039h-6.413V75.481h6.413V72.464h-6.413v-3.8h6.413v-2.86h-9.429v17.25h3.016v-.022h6.413Z" transform="translate(-326.142 -39.933)" fill="#1bc9a8"/>
      <path id="Trazado_93" data-name="Trazado 93" d="M345.314,131.45h4.178v14.323h3.016V131.45h4.268v-2.927H345.314Z" transform="translate(-209.546 -77.991)" fill="#1bc9a8"/>
      <path id="Trazado_94" data-name="Trazado 94" d="M404.226,128.738a9.1,9.1,0,0,0-12.87,0,8.025,8.025,0,0,0-1.128,1.352,9.125,9.125,0,0,0-.815,1.531,8.93,8.93,0,0,0-.738,3.553,8.822,8.822,0,0,0,.738,3.553,9.11,9.11,0,0,0,.815,1.531,9.817,9.817,0,0,0,2.48,2.48,9.113,9.113,0,0,0,1.531.815,8.828,8.828,0,0,0,3.553.738,8.936,8.936,0,0,0,3.553-.738,9.127,9.127,0,0,0,1.531-.815,8.063,8.063,0,0,0,1.352-1.128,9.1,9.1,0,0,0,0-12.87m-.838,8.8a6.122,6.122,0,0,1-3.24,3.251,5.843,5.843,0,0,1-2.357.48,5.922,5.922,0,0,1-2.368-.48,6.094,6.094,0,0,1-3.251-3.251,5.928,5.928,0,0,1-.48-2.368,5.853,5.853,0,0,1,.48-2.357,6.123,6.123,0,0,1,3.251-3.24,5.928,5.928,0,0,1,2.368-.48,5.849,5.849,0,0,1,2.357.48,6.152,6.152,0,0,1,3.24,3.24,5.858,5.858,0,0,1,.48,2.357,5.934,5.934,0,0,1-.48,2.368" transform="translate(-235.857 -76.508)" fill="#1bc9a8"/>
      <path id="Trazado_95" data-name="Trazado 95" d="M481.426,128.523h-3.016v17.25h3.016v-.022h6.413v-2.994h-6.413Z" transform="translate(-290.311 -77.991)" fill="#1bc9a8"/>
      <rect id="Rectángulo_114" data-name="Rectángulo 114" width="3.016" height="17.25" transform="translate(205.214 50.532)" fill="#1bc9a8"/>
      <path id="Trazado_96" data-name="Trazado 96" d="M558.384,141.515l-5.072-13.049h-3.24l6.748,17.272h3.172l6.547-17.272h-3.217Z" transform="translate(-333.798 -77.957)" fill="#1bc9a8"/>
      <path id="Trazado_97" data-name="Trazado 97" d="M616.211,131.384v-2.86h-9.429v17.249H609.8v-.022h6.413v-2.994H609.8V138.2h6.413v-3.016H609.8v-3.8Z" transform="translate(-368.211 -77.992)" fill="#1bc9a8"/>
    </g>
  </g>
</svg>
