<svg xmlns="http://www.w3.org/2000/svg" viewBox="0 0 227.96 62.3"><g id="Capa_2" data-name="Capa 2"><g id="Capa_1-2" data-name="Capa 1"><rect x="96.01" y="0.97" width="3.87" height="61.33" fill="#fff"/><polygon points="46.61 3.1 65.73 22.22 65.73 57.92 35.06 57.92 4.38 57.92 4.38 5.33 30.68 5.33 30.68 27.25 32.87 27.25 32.87 27.25 32.87 27.25 35.06 27.25 35.06 5.33 35.06 0.95 30.68 0.95 4.38 0.95 0 0.95 0 5.33 0 57.92 0 62.3 4.38 62.3 35.06 62.3 65.73 62.3 70.11 62.3 70.11 57.92 70.11 22.86 70.11 20.41 49.71 0 46.61 3.1" fill="#fff"/><path d="M135.17,8.85l-.2-.19-.19-.18a4.55,4.55,0,0,0,1-3,4.83,4.83,0,0,0-.35-1.82,5.12,5.12,0,0,0-1-1.53A4.7,4.7,0,0,0,132.31,1h-5.79V16.82H133a5.7,5.7,0,0,0,1.18-.47,4.88,4.88,0,0,0,1-.78,4.8,4.8,0,0,0,1-5.2,4.36,4.36,0,0,0-1-1.52m-5.88-5.28h1.83a2,2,0,0,1,1.37.58,2,2,0,0,1,.56,1.37,1.91,1.91,0,0,1-.56,1.37,2,2,0,0,1-1.37.56h-1.83Zm3.93,10a1.89,1.89,0,0,1-1.4.58h-2.53V10.23h2.53a1.95,1.95,0,0,1,2,2,1.89,1.89,0,0,1-.57,1.39" fill="#fff"/><polygon points="146.53 16.8 152.42 16.8 152.42 14.05 146.53 14.05 146.53 9.86 152.42 9.86 152.42 7.08 146.53 7.08 146.53 3.59 152.42 3.59 152.42 0.96 143.75 0.96 143.75 16.82 146.53 16.82 146.53 16.8" fill="#fff"/><path d="M164.37,14.05a1.42,1.42,0,0,1-.65-.12,1.7,1.7,0,0,1-.54-.36l-1.8-1.84-2,1.93,1.81,1.84a4.32,4.32,0,0,0,1.5,1,4.24,4.24,0,0,0,1.64.31h.06a4,4,0,0,0,1.71-.37,3.74,3.74,0,0,0,.78-.43,4.43,4.43,0,0,0,.68-.62,4.22,4.22,0,0,0,.87-1.35,4.34,4.34,0,0,0,.3-1.61,4.12,4.12,0,0,0-.28-1.6,4.55,4.55,0,0,0-.85-1.37l-.06-.07-4.11-3.59a1.54,1.54,0,0,1-.37-1.15,1.58,1.58,0,0,1,.57-1.13l0,0a1.63,1.63,0,0,1,1.21-.39,1.6,1.6,0,0,1,1.13.62l1.31,1.64,2.18-1.73L168.19,2A3.93,3.93,0,0,0,166.84.84a4.22,4.22,0,0,0-.8-.33,4.06,4.06,0,0,0-.87-.16,4.51,4.51,0,0,0-1.7.16,4.39,4.39,0,0,0-1.56.86l-.06,0a4.86,4.86,0,0,0-1.09,1.42,4.09,4.09,0,0,0-.45,1.67,4.36,4.36,0,0,0,.22,1.7,7.18,7.18,0,0,0,.38.79,4.51,4.51,0,0,0,.53.73l.06.06,4.11,3.6a1.53,1.53,0,0,1,.39,1.07,1.65,1.65,0,0,1-.46,1.08,1.52,1.52,0,0,1-1.17.52" fill="#fff"/><polygon points="180.52 16.82 183.29 16.82 183.29 3.65 187.21 3.65 187.21 0.96 176.68 0.96 176.68 3.65 180.52 3.65 180.52 16.82" fill="#fff"/><path d="M128.58,33.05l2.52,0a4,4,0,0,0,1.43-.45,5.15,5.15,0,0,0,1.2-.88,4.63,4.63,0,0,0,1-1.52,4.73,4.73,0,0,0,0-3.62,4.85,4.85,0,0,0-3-2.69h-6v15.8h2.78Zm0-6.64h1.82a1.93,1.93,0,0,1,.75.15,2.31,2.31,0,0,1,.63.42,1.75,1.75,0,0,1,.42.61,1.93,1.93,0,0,1,.15.75,1.87,1.87,0,0,1-.15.76,1.85,1.85,0,0,1-.42.61,2.08,2.08,0,0,1-.63.41,1.93,1.93,0,0,1-.75.15h-1.82Z" fill="#fff"/><polygon points="145.29 39.62 151.19 39.62 151.19 36.87 145.29 36.87 145.29 23.78 142.52 23.78 142.52 39.64 145.29 39.64 145.29 39.62" fill="#fff"/><path d="M161.72,23.72l-6,15.92h2.95L160,36.15h6.51l1.35,3.49h3l-6.18-15.92Zm-.67,9.65,2.15-5.73,2.24,5.73Z" fill="#fff"/><path d="M178.79,28.05a5.15,5.15,0,0,1,1.71-1.13,5.41,5.41,0,0,1,3.88,0,5,5,0,0,1,1.7,1.13l2-1.95a7.6,7.6,0,0,0-2.62-1.74,7.7,7.7,0,0,0-3-.6,7.91,7.91,0,0,0-3,.6,7.64,7.64,0,0,0-2.63,1.74,8,8,0,0,0-1.75,2.61,8.23,8.23,0,0,0-.43,4.52,8.68,8.68,0,0,0,.43,1.46,8.24,8.24,0,0,0,1.75,2.63,7.64,7.64,0,0,0,2.63,1.74,8,8,0,0,0,6,0,7.6,7.6,0,0,0,2.62-1.74l-2-2a5.07,5.07,0,0,1-3.63,1.5,5.2,5.2,0,0,1-2-.39,5,5,0,0,1-1.66-1.11,5.24,5.24,0,0,1-1.13-1.68,5.22,5.22,0,0,1,0-4,5.35,5.35,0,0,1,1.13-1.68" fill="#fff"/><polygon points="202.9 36.87 197.01 36.87 197.01 32.68 202.9 32.68 202.9 29.9 197.01 29.9 197.01 26.41 202.9 26.41 202.9 23.78 194.24 23.78 194.24 39.64 197.01 39.64 197.01 39.62 202.9 39.62 202.9 36.87" fill="#fff"/><polygon points="124.8 49.14 128.64 49.14 128.64 62.3 131.41 62.3 131.41 49.14 135.33 49.14 135.33 46.45 124.8 46.45 124.8 49.14" fill="#fff"/><path d="M154.76,48a8.43,8.43,0,0,0-9.18-1.79A8.22,8.22,0,0,0,142.93,48a7.6,7.6,0,0,0-1,1.24,9.53,9.53,0,0,0-.75,1.41,8.29,8.29,0,0,0,0,6.53,9.53,9.53,0,0,0,.75,1.41,9.26,9.26,0,0,0,2.28,2.28,9.53,9.53,0,0,0,1.41.75,8.29,8.29,0,0,0,6.53,0,9.53,9.53,0,0,0,1.41-.75,7.6,7.6,0,0,0,1.24-1,8.35,8.35,0,0,0,0-11.83M154,56.1a5.52,5.52,0,0,1-1.2,1.79,5.76,5.76,0,0,1-1.78,1.2,5.42,5.42,0,0,1-2.16.44,5.51,5.51,0,0,1-2.18-.44,5.57,5.57,0,0,1-3-3,5.51,5.51,0,0,1-.44-2.18,5.45,5.45,0,0,1,.44-2.16,5.76,5.76,0,0,1,1.2-1.78,5.63,5.63,0,0,1,4-1.64,5.42,5.42,0,0,1,2.16.44,5.62,5.62,0,0,1,3,3,5.28,5.28,0,0,1,.44,2.16A5.34,5.34,0,0,1,154,56.1" fill="#fff"/><polygon points="175.67 46.45 172.9 46.45 172.9 62.3 175.67 62.3 175.67 62.28 181.56 62.28 181.56 59.53 175.67 59.53 175.67 46.45" fill="#fff"/><rect x="188.63" y="46.45" width="2.77" height="15.86" fill="#fff"/><polygon points="206.44 58.42 201.77 46.43 198.79 46.43 205 62.3 207.91 62.3 213.93 46.43 210.97 46.43 206.44 58.42" fill="#fff"/><polygon points="227.96 49.08 227.96 46.45 219.29 46.45 219.29 62.3 222.06 62.3 222.06 62.28 227.96 62.28 227.96 59.53 222.06 59.53 222.06 55.34 227.96 55.34 227.96 52.57 222.06 52.57 222.06 49.08 227.96 49.08" fill="#fff"/></g></g></svg>