<svg xmlns="http://www.w3.org/2000/svg" viewBox="0 0 298.57 93.3"><defs><style>.cls-1{fill:#fff;}</style></defs><g id="Capa_2" data-name="Capa 2"><g id="Capa_1-2" data-name="Capa 1"><path id="Trazado_797-2" data-name="Trazado 797-2" class="cls-1" d="M291.83,23.33a6.74,6.74,0,0,0,6.74,6.74v9.85a6.74,6.74,0,0,0,0,13.47v9.86a6.74,6.74,0,0,0,0,13.47v9.86a6.73,6.73,0,0,0-6.74,6.72H284a6.73,6.73,0,0,0-13.46,0h-7.86a6.74,6.74,0,0,0-13.47,0h-7.85a6.74,6.74,0,0,0-13.47,0H220a6.74,6.74,0,0,0-13.47,0h-7.86a6.74,6.74,0,0,0-13.47,0h-7.86a6.73,6.73,0,1,0-13.46,0H156a6.74,6.74,0,0,0-13.47,0h-7.86a6.74,6.74,0,0,0-13.47,0h-7.86a6.74,6.74,0,0,0-13.47,0H92a6.74,6.74,0,0,0-13.47,0H70.71a6.74,6.74,0,0,0-13.47,0H49.38a6.73,6.73,0,0,0-13.46,0H28.06a6.74,6.74,0,0,0-13.47,0H6.73A6.75,6.75,0,0,0,0,86.57V76.72A6.74,6.74,0,0,0,6.73,70,6.74,6.74,0,0,0,0,63.25V53.39a6.73,6.73,0,0,0,6.73-6.74A6.75,6.75,0,0,0,0,39.92V30.07a6.75,6.75,0,0,0,6.73-6.74A6.74,6.74,0,0,0,0,16.6V6.74A6.74,6.74,0,0,0,6.73,0h7.86a6.74,6.74,0,0,0,6.74,6.74A6.74,6.74,0,0,0,28.06,0h7.86a6.74,6.74,0,0,0,6.73,6.74A6.73,6.73,0,0,0,49.38,0h7.86A6.73,6.73,0,0,0,64,6.74h0A6.74,6.74,0,0,0,70.71,0h7.86A6.73,6.73,0,0,0,85.3,6.74h0A6.74,6.74,0,0,0,92,0h7.85a6.74,6.74,0,0,0,6.74,6.74A6.73,6.73,0,0,0,113.36,0h7.86A6.74,6.74,0,0,0,128,6.74,6.73,6.73,0,0,0,134.69,0h7.86a6.74,6.74,0,0,0,6.74,6.74A6.73,6.73,0,0,0,156,0h7.86a6.74,6.74,0,0,0,6.74,6.74A6.74,6.74,0,0,0,177.34,0h7.86a6.74,6.74,0,0,0,6.73,6.74A6.74,6.74,0,0,0,198.67,0h7.86a6.73,6.73,0,0,0,6.72,6.74h0A6.74,6.74,0,0,0,220,0h7.86a6.73,6.73,0,0,0,6.72,6.74h0A6.74,6.74,0,0,0,241.33,0h7.85a6.74,6.74,0,0,0,6.74,6.74A6.73,6.73,0,0,0,262.64,0h7.86a6.74,6.74,0,0,0,6.74,6.74A6.73,6.73,0,0,0,284,0h7.86a6.74,6.74,0,0,0,6.74,6.74V16.6a6.74,6.74,0,0,0-6.74,6.73"/></g></g></svg>