<svg xmlns="http://www.w3.org/2000/svg" width="63.291" height="75.154" viewBox="0 0 63.291 75.154">
  <g id="Grupo_637" data-name="Grupo 637" transform="translate(1531.693 -592)">
    <path id="Trazado_381" data-name="Trazado 381" d="M1.227,74.882h8.89a1.226,1.226,0,0,1,1.222,1.156l.919,16.609h1.175l.9-16.608a1.226,1.226,0,0,1,1.223-1.158h8.495a1.227,1.227,0,0,1,1.227,1.227V103.34a1.227,1.227,0,0,1-1.227,1.227H19.378a1.226,1.226,0,0,1-1.224-1.229c0-.037,0-.073.005-.11L19.7,86.864H18.543l-2.454,16.657a1.227,1.227,0,0,1-1.211,1.046H10.395a1.226,1.226,0,0,1-1.211-1.043L6.689,86.842H5.507l1.585,16.381a1.227,1.227,0,0,1-1.106,1.337c-.036,0-.073.005-.11.005H1.227A1.227,1.227,0,0,1,0,103.34V76.106A1.227,1.227,0,0,1,1.227,74.88" transform="translate(-1531.693 549.649)" fill="#6842ef"/>
    <path id="Trazado_382" data-name="Trazado 382" d="M1.227,1.3h8.89a1.226,1.226,0,0,1,1.222,1.154l.919,16.612h1.175l.9-16.608A1.227,1.227,0,0,1,15.554,1.3h8.5a1.227,1.227,0,0,1,1.227,1.227V29.756a1.227,1.227,0,0,1-1.227,1.227H19.378a1.226,1.226,0,0,1-1.224-1.23c0-.037,0-.073.005-.11L19.7,13.28H18.543L16.089,29.937a1.227,1.227,0,0,1-1.211,1.046H10.395a1.227,1.227,0,0,1-1.211-1.044L6.689,13.259H5.507l1.585,16.38a1.227,1.227,0,0,1-1.106,1.337c-.036,0-.073.005-.11.005H1.227A1.227,1.227,0,0,1,0,29.754V2.523A1.227,1.227,0,0,1,1.227,1.3" transform="translate(-1531.693 591.266)" fill="#6842ef"/>
    <path id="Trazado_383" data-name="Trazado 383" d="M63.909,74.882H76.192a1.227,1.227,0,0,1,1.227,1.227v3.7a1.227,1.227,0,0,1-1.227,1.227H76.17l-2.741-.059a1.227,1.227,0,0,0-1.249,1.2V86.31a1.227,1.227,0,0,0,1.193,1.227l1.759.044a1.226,1.226,0,0,1,1.194,1.227v2.047A1.227,1.227,0,0,1,75.1,92.081h-.029l-1.637-.041a1.227,1.227,0,0,0-1.255,1.2c0,.01,0,.019,0,.029v4a1.227,1.227,0,0,0,1.2,1.227l2.947.057a1.227,1.227,0,0,1,1.2,1.227v3.577a1.227,1.227,0,0,1-1.227,1.227H63.9a1.227,1.227,0,0,1-1.227-1.227V76.106A1.227,1.227,0,0,1,63.9,74.88" transform="translate(-1567.142 549.649)" fill="#6842ef"/>
    <path id="Trazado_384" data-name="Trazado 384" d="M102.594,74.881h7.545a1.227,1.227,0,0,1,1.211,1.04l.408,2.671L113.691,90.9l1.162-.021-1.431-14.656a1.226,1.226,0,0,1,1.1-1.337,1.115,1.115,0,0,1,.114-.006H119.4a1.227,1.227,0,0,1,1.227,1.227v27.234a1.227,1.227,0,0,1-1.227,1.227h-7.572a1.226,1.226,0,0,1-1.21-1.033l-.406-2.588-2.2-14.034h-1.182l1.625,16.311a1.227,1.227,0,0,1-1.1,1.34,1.159,1.159,0,0,1-.117.006h-4.644a1.227,1.227,0,0,1-1.227-1.226V76.105a1.226,1.226,0,0,1,1.227-1.226" transform="translate(-1589.025 549.65)" fill="#6842ef"/>
    <path id="Trazado_385" data-name="Trazado 385" d="M73.36,0C66.573,0,63.08,3.186,63.08,9.32V21.346c.11,6.263,3.536,9.473,10.28,9.473,6.788,0,10.28-3.209,10.28-9.473V9.408C83.641,3.186,80.149,0,73.36,0M74.3,22.258a.934.934,0,0,1-.64.881.776.776,0,0,1-.606,0,.934.934,0,0,1-.639-.881V8.495a.935.935,0,0,1,.639-.882.789.789,0,0,1,.6,0,.935.935,0,0,1,.64.882Z" transform="translate(-1567.37 592)" fill="#6842ef"/>
    <path id="Trazado_386" data-name="Trazado 386" d="M4.228,163.938H1.937L1.569,165H0l2.224-6.02H3.957L6.18,165H4.6ZM3.082,160.6l-.753,2.2H3.844Z" transform="translate(-1531.693 502.083)" fill="#6842ef"/>
    <path id="Trazado_387" data-name="Trazado 387" d="M20.754,160.779H19.1a1.291,1.291,0,0,0-1.207-.617,1.56,1.56,0,0,0-1.6,1.715,1.6,1.6,0,0,0,1.724,1.766A1.469,1.469,0,0,0,19.5,162.58H17.6V161.5h3.256v1.363a3,3,0,0,1-2.958,2.075,3.067,3.067,0,0,1-.009-6.134,2.723,2.723,0,0,1,2.862,1.972" transform="translate(-1540.08 502.189)" fill="#6842ef"/>
    <path id="Trazado_388" data-name="Trazado 388" d="M30.047,158.982h1.5v3.6a.985.985,0,0,0,1.069,1.124,1,1,0,0,0,1.089-.9.986.986,0,0,0,0-.226v-3.6h1.5v3.593a2.395,2.395,0,0,1-2.608,2.487,2.335,2.335,0,0,1-2.535-2.114,2.373,2.373,0,0,1,0-.373Z" transform="translate(-1548.685 502.082)" fill="#6842ef"/>
    <path id="Trazado_389" data-name="Trazado 389" d="M47.11,163.938H44.818L44.45,165H42.884l2.225-6.02h1.733L49.065,165H47.479ZM45.964,160.6l-.753,2.2h1.515Z" transform="translate(-1555.947 502.083)" fill="#6842ef"/>
    <path id="Trazado_390" data-name="Trazado 390" d="M60.66,158.982c1.506,0,2.26.849,2.26,1.9a1.758,1.758,0,0,1-1.366,1.743L62.974,165h-1.69l-1.278-2.272h-.36V165h-1.5v-6.022Zm-.088,1.218h-.925v1.492h.928c.56,0,.822-.283.822-.755,0-.445-.262-.737-.822-.737" transform="translate(-1564.582 502.082)" fill="#6842ef"/>
    <rect id="Rectángulo_426" data-name="Rectángulo 426" width="1.497" height="6.02" transform="translate(-1500.945 661.064)" fill="#6842ef"/>
    <path id="Trazado_391" data-name="Trazado 391" d="M78.755,158.814a2.845,2.845,0,0,1,2.915,2.11H80.023a1.355,1.355,0,0,0-1.286-.775,1.743,1.743,0,0,0,0,3.464,1.356,1.356,0,0,0,1.286-.775h1.646a2.841,2.841,0,0,1-2.915,2.1,3.067,3.067,0,0,1,0-6.133" transform="translate(-1574.501 502.182)" fill="#6842ef"/>
    <path id="Trazado_392" data-name="Trazado 392" d="M93.815,164.947a3.062,3.062,0,1,1,.109,0h-.109m0-1.338a1.753,1.753,0,1,0-1.623-1.875c0,.043,0,.086,0,.129a1.588,1.588,0,0,0,1.628,1.749" transform="translate(-1583.042 502.196)" fill="#6842ef"/>
    <path id="Trazado_393" data-name="Trazado 393" d="M110.318,159.793h-.866v-1.363h2.424v6.263h-1.558Z" transform="translate(-1593.597 502.394)" fill="#6842ef"/>
    <path id="Trazado_394" data-name="Trazado 394" d="M116.735,163.332c1.356-1.1,2.8-2.186,2.8-3.241,0-.452-.211-.745-.665-.745s-.71.343-.71.934h-1.444a2.062,2.062,0,0,1,1.944-2.173,2.172,2.172,0,0,1,.271,0,1.834,1.834,0,0,1,2.1,1.887c0,1.372-1.253,2.47-2.268,3.233h2.364v1.191h-4.394Z" transform="translate(-1597.704 502.578)" fill="#6842ef"/>
    <path id="Trazado_395" data-name="Trazado 395" d="M132.826,158.409V159.7h-2.731v1.183a1.623,1.623,0,0,1,1.173-.43,1.861,1.861,0,0,1,1.925,2.05,2.018,2.018,0,0,1-2.206,2.178c-1.435,0-2.268-.781-2.32-1.86h1.462a.752.752,0,0,0,.8.617c.57,0,.814-.4.814-.943a.758.758,0,0,0-.823-.867.7.7,0,0,0-.743.517h-1.445v-3.732Z" transform="translate(-1604.466 502.406)" fill="#6842ef"/>
    <path id="Trazado_396" data-name="Trazado 396" d="M140.974,159.793h-.866v-1.363h2.424v6.263h-1.557Z" transform="translate(-1610.936 502.394)" fill="#6842ef"/>
  </g>
</svg>
