<svg xmlns="http://www.w3.org/2000/svg" xmlns:xlink="http://www.w3.org/1999/xlink" width="104.466" height="41.374" viewBox="0 0 104.466 41.374">
  <defs>
    <clipPath id="clip-path">
      <rect id="Rectángulo_335" data-name="Rectángulo 335" width="104.466" height="41.374" transform="translate(0 0)" fill="none"/>
    </clipPath>
  </defs>
  <g id="Grupo_904" data-name="Grupo 904" transform="translate(-967.534 -2170)">
    <path id="Trazado_720" data-name="Trazado 720" d="M87.239,0H17.227a17.227,17.227,0,0,0,0,34.454h26.49a1.539,1.539,0,0,1,1.087.45L50.6,40.7a2.315,2.315,0,0,0,3.274,0L59.662,34.9a1.537,1.537,0,0,1,1.086-.45H87.239A17.227,17.227,0,1,0,87.239,0" transform="translate(967.534 2170)" fill="#231f20"/>
    <path id="Trazado_748" data-name="Trazado 748" d="M6.479-5.58V0H5.563V-3.821L3.862,0H3.227L1.517-3.821V0H.6V-5.58H1.59L3.548-1.2,5.5-5.58ZM11.544-2.32a2.861,2.861,0,0,1-.032.45H8.132a1.227,1.227,0,0,0,.393.851A1.242,1.242,0,0,0,9.393-.7a1.071,1.071,0,0,0,1.044-.618h.987a1.993,1.993,0,0,1-.727,1,2.132,2.132,0,0,1-1.3.389A2.259,2.259,0,0,1,8.257-.213a2.028,2.028,0,0,1-.787-.8,2.449,2.449,0,0,1-.285-1.2,2.506,2.506,0,0,1,.277-1.2,1.948,1.948,0,0,1,.779-.8A2.318,2.318,0,0,1,9.393-4.5a2.253,2.253,0,0,1,1.116.273,1.929,1.929,0,0,1,.763.767A2.309,2.309,0,0,1,11.544-2.32Zm-.955-.289a1.041,1.041,0,0,0-.361-.811,1.292,1.292,0,0,0-.875-.305,1.175,1.175,0,0,0-.811.3,1.258,1.258,0,0,0-.4.815Zm2.73-1.068v2.449a.47.47,0,0,0,.116.357.579.579,0,0,0,.4.108h.562V0h-.723a1.393,1.393,0,0,1-.947-.289,1.191,1.191,0,0,1-.329-.939V-3.677h-.522v-.747H12.4v-1.1h.923v1.1h1.076v.747Zm2.633-.1a1.437,1.437,0,0,1,.534-.526,1.579,1.579,0,0,1,.791-.189v.947h-.233a1.115,1.115,0,0,0-.815.273,1.305,1.305,0,0,0-.277.947V0h-.915V-4.423h.915ZM19.845.072a2.265,2.265,0,0,1-1.132-.285,2.047,2.047,0,0,1-.795-.8,2.422,2.422,0,0,1-.289-1.2,2.375,2.375,0,0,1,.3-1.2,2.052,2.052,0,0,1,.811-.8A2.353,2.353,0,0,1,19.886-4.5a2.353,2.353,0,0,1,1.148.281,2.052,2.052,0,0,1,.811.8,2.375,2.375,0,0,1,.3,1.2,2.326,2.326,0,0,1-.305,1.2,2.112,2.112,0,0,1-.831.807A2.4,2.4,0,0,1,19.845.072Zm0-.795a1.362,1.362,0,0,0,.662-.169,1.285,1.285,0,0,0,.5-.506,1.626,1.626,0,0,0,.193-.819,1.66,1.66,0,0,0-.185-.815,1.247,1.247,0,0,0-.49-.5A1.339,1.339,0,0,0,19.87-3.7a1.317,1.317,0,0,0-.654.169,1.2,1.2,0,0,0-.478.5,1.722,1.722,0,0,0-.177.815,1.552,1.552,0,0,0,.365,1.1A1.207,1.207,0,0,0,19.845-.723Zm5.812-4.118V-3.2h1.927v.747H25.658v1.71h2.168V0H24.743V-5.588h3.083v.747Zm4.7,4.913a2.229,2.229,0,0,1-.935-.189,1.643,1.643,0,0,1-.654-.514,1.281,1.281,0,0,1-.257-.727h.947a.646.646,0,0,0,.269.47.977.977,0,0,0,.614.189,1.034,1.034,0,0,0,.6-.149.448.448,0,0,0,.213-.381A.392.392,0,0,0,30.92-1.6a4.439,4.439,0,0,0-.751-.265,7.245,7.245,0,0,1-.811-.265,1.421,1.421,0,0,1-.542-.393,1.031,1.031,0,0,1-.229-.7,1.089,1.089,0,0,1,.209-.646,1.39,1.39,0,0,1,.6-.462,2.235,2.235,0,0,1,.9-.169,1.848,1.848,0,0,1,1.216.381A1.369,1.369,0,0,1,32-3.075h-.915a.652.652,0,0,0-.241-.474.9.9,0,0,0-.586-.177.951.951,0,0,0-.554.136.423.423,0,0,0-.193.361.391.391,0,0,0,.128.3.915.915,0,0,0,.313.189q.185.068.546.173a5.939,5.939,0,0,1,.791.261,1.472,1.472,0,0,1,.534.389,1.03,1.03,0,0,1,.233.682,1.144,1.144,0,0,1-.209.674,1.384,1.384,0,0,1-.59.466A2.2,2.2,0,0,1,30.362.072Zm3.548-3.749v2.449a.47.47,0,0,0,.116.357.579.579,0,0,0,.4.108h.562V0h-.723a1.393,1.393,0,0,1-.947-.289,1.191,1.191,0,0,1-.329-.939V-3.677h-.522v-.747h.522v-1.1h.923v1.1h1.076v.747Zm1.413,1.445a2.448,2.448,0,0,1,.277-1.18,2.03,2.03,0,0,1,.755-.8A2.022,2.022,0,0,1,37.411-4.5a1.931,1.931,0,0,1,.911.2,1.849,1.849,0,0,1,.622.51v-.642h.923V0h-.923V-.658a1.818,1.818,0,0,1-.634.522,1.955,1.955,0,0,1-.915.209,1.945,1.945,0,0,1-1.044-.293A2.078,2.078,0,0,1,35.6-1.04,2.519,2.519,0,0,1,35.324-2.232Zm3.621.016a1.6,1.6,0,0,0-.189-.795,1.324,1.324,0,0,0-.494-.514A1.292,1.292,0,0,0,37.6-3.7a1.315,1.315,0,0,0-.658.173,1.3,1.3,0,0,0-.494.506,1.579,1.579,0,0,0-.189.791,1.648,1.648,0,0,0,.189.8,1.331,1.331,0,0,0,.5.526,1.277,1.277,0,0,0,.654.181A1.292,1.292,0,0,0,38.262-.9a1.318,1.318,0,0,0,.494-.518A1.625,1.625,0,0,0,38.944-2.216Zm1.63,0a2.506,2.506,0,0,1,.277-1.2,1.97,1.97,0,0,1,.767-.8A2.218,2.218,0,0,1,42.742-4.5a2.205,2.205,0,0,1,1.329.381,1.877,1.877,0,0,1,.71,1.088h-.987a1.044,1.044,0,0,0-.385-.514,1.138,1.138,0,0,0-.666-.185,1.108,1.108,0,0,0-.9.4,1.681,1.681,0,0,0-.333,1.112A1.7,1.7,0,0,0,41.846-1.1a1.1,1.1,0,0,0,.9.4,1.016,1.016,0,0,0,1.052-.7h.987a1.977,1.977,0,0,1-.723,1.072,2.132,2.132,0,0,1-1.317.4,2.193,2.193,0,0,1-1.124-.285,2,2,0,0,1-.767-.8A2.506,2.506,0,0,1,40.574-2.216ZM45.969-5.01a.567.567,0,0,1-.417-.169.567.567,0,0,1-.169-.417.567.567,0,0,1,.169-.417.567.567,0,0,1,.417-.169.557.557,0,0,1,.409.169.567.567,0,0,1,.169.417.567.567,0,0,1-.169.417A.557.557,0,0,1,45.969-5.01Zm.45.586V0H45.5V-4.423Zm2.93,4.5a2.265,2.265,0,0,1-1.132-.285,2.047,2.047,0,0,1-.795-.8,2.422,2.422,0,0,1-.289-1.2,2.375,2.375,0,0,1,.3-1.2,2.052,2.052,0,0,1,.811-.8A2.353,2.353,0,0,1,49.389-4.5a2.353,2.353,0,0,1,1.148.281,2.052,2.052,0,0,1,.811.8,2.375,2.375,0,0,1,.3,1.2,2.326,2.326,0,0,1-.305,1.2,2.112,2.112,0,0,1-.831.807A2.4,2.4,0,0,1,49.349.072Zm0-.795a1.362,1.362,0,0,0,.662-.169,1.285,1.285,0,0,0,.5-.506,1.626,1.626,0,0,0,.193-.819,1.66,1.66,0,0,0-.185-.815,1.247,1.247,0,0,0-.49-.5,1.339,1.339,0,0,0-.658-.169,1.317,1.317,0,0,0-.654.169,1.2,1.2,0,0,0-.478.5,1.722,1.722,0,0,0-.177.815,1.552,1.552,0,0,0,.365,1.1A1.207,1.207,0,0,0,49.349-.723Zm.867-4.961-1.774.875v-.674l1.774-.979ZM54.591-4.5a1.984,1.984,0,0,1,.935.217,1.542,1.542,0,0,1,.646.642,2.113,2.113,0,0,1,.233,1.028V0H55.5V-2.473a1.284,1.284,0,0,0-.3-.911A1.057,1.057,0,0,0,54.39-3.7a1.07,1.07,0,0,0-.815.317,1.273,1.273,0,0,0-.3.911V0h-.915V-4.423h.915v.506a1.515,1.515,0,0,1,.574-.425A1.835,1.835,0,0,1,54.591-4.5Z" transform="translate(1004.994 2186.241)" fill="#fff"/>
    <path id="Trazado_747" data-name="Trazado 747" d="M4.231-4a1.517,1.517,0,0,1-.474,1.164,2.018,2.018,0,0,1-1.421.442H1.2V0H.642V-5.612H2.336a2.021,2.021,0,0,1,1.417.442A1.52,1.52,0,0,1,4.231-4ZM2.336-2.874Q3.653-2.874,3.653-4a1.1,1.1,0,0,0-.313-.851,1.45,1.45,0,0,0-1-.289H1.2v2.264ZM4.721-2.2a2.5,2.5,0,0,1,.269-1.184,1.926,1.926,0,0,1,.747-.787,2.113,2.113,0,0,1,1.08-.277,1.967,1.967,0,0,1,1.08.289,1.682,1.682,0,0,1,.654.739v-.963h.562V0H8.55V-.971a1.76,1.76,0,0,1-.662.743,1.946,1.946,0,0,1-1.08.293A2.074,2.074,0,0,1,5.736-.217a1.947,1.947,0,0,1-.747-.795A2.525,2.525,0,0,1,4.721-2.2Zm3.829.008a1.93,1.93,0,0,0-.217-.931,1.547,1.547,0,0,0-.59-.618,1.609,1.609,0,0,0-.823-.217,1.667,1.667,0,0,0-.835.209,1.48,1.48,0,0,0-.582.606,1.972,1.972,0,0,0-.213.943,2,2,0,0,0,.213.943,1.5,1.5,0,0,0,.582.618,1.642,1.642,0,0,0,.835.213,1.609,1.609,0,0,0,.823-.217,1.547,1.547,0,0,0,.59-.618A1.93,1.93,0,0,0,8.55-2.192ZM10.766-3.6a1.373,1.373,0,0,1,.566-.634,1.813,1.813,0,0,1,.935-.225v.586h-.153a1.417,1.417,0,0,0-.979.329,1.412,1.412,0,0,0-.369,1.1V0H10.2V-4.383h.562ZM12.66-2.2a2.471,2.471,0,0,1,.273-1.184,1.953,1.953,0,0,1,.751-.787,2.113,2.113,0,0,1,1.08-.277,1.951,1.951,0,0,1,1.076.293,1.657,1.657,0,0,1,.65.735v-.963h.562V2.071H16.49V-.963a1.651,1.651,0,0,1-.654.735,1.986,1.986,0,0,1-1.088.293,2.074,2.074,0,0,1-1.072-.281,1.947,1.947,0,0,1-.747-.795A2.525,2.525,0,0,1,12.66-2.2Zm3.829.008a1.93,1.93,0,0,0-.217-.931,1.547,1.547,0,0,0-.59-.618,1.609,1.609,0,0,0-.823-.217,1.667,1.667,0,0,0-.835.209,1.48,1.48,0,0,0-.582.606,1.972,1.972,0,0,0-.213.943,2,2,0,0,0,.213.943,1.5,1.5,0,0,0,.582.618,1.642,1.642,0,0,0,.835.213,1.609,1.609,0,0,0,.823-.217,1.547,1.547,0,0,0,.59-.618A1.93,1.93,0,0,0,16.49-2.192Zm5.451-2.192V0h-.562V-.771a1.347,1.347,0,0,1-.594.626,1.862,1.862,0,0,1-.9.217A1.762,1.762,0,0,1,18.6-.413a1.881,1.881,0,0,1-.5-1.409V-4.383h.554v2.5a1.529,1.529,0,0,0,.357,1.092,1.279,1.279,0,0,0,.975.377A1.322,1.322,0,0,0,21-.819,1.663,1.663,0,0,0,21.379-2V-4.383Zm5.05,1.967q0,.289-.016.442H23.338a1.764,1.764,0,0,0,.241.851,1.418,1.418,0,0,0,.57.534,1.668,1.668,0,0,0,.771.181,1.548,1.548,0,0,0,.919-.265,1.244,1.244,0,0,0,.494-.715h.594A1.856,1.856,0,0,1,26.24-.341a2.1,2.1,0,0,1-1.321.405,2.211,2.211,0,0,1-1.108-.277A1.956,1.956,0,0,1,23.045-1a2.459,2.459,0,0,1-.277-1.192,2.513,2.513,0,0,1,.273-1.2,1.9,1.9,0,0,1,.763-.787,2.253,2.253,0,0,1,1.116-.273,2.142,2.142,0,0,1,1.1.273,1.886,1.886,0,0,1,.723.735A2.1,2.1,0,0,1,26.99-2.416Zm-.57-.016a1.557,1.557,0,0,0-.2-.835,1.327,1.327,0,0,0-.558-.522,1.7,1.7,0,0,0-.771-.177,1.531,1.531,0,0,0-1.068.4,1.6,1.6,0,0,0-.49,1.132Zm8.9-3.107V0h-.562V-4.423L32.779,0h-.409L30.394-4.407V0h-.562V-5.539h.594l2.144,4.8,2.144-4.8ZM40.2-4.383V0h-.562V-.771a1.347,1.347,0,0,1-.594.626,1.862,1.862,0,0,1-.9.217,1.762,1.762,0,0,1-1.284-.486,1.881,1.881,0,0,1-.5-1.409V-4.383h.554v2.5A1.529,1.529,0,0,0,37.27-.795a1.279,1.279,0,0,0,.975.377,1.322,1.322,0,0,0,1.012-.4A1.663,1.663,0,0,0,39.635-2V-4.383ZM41.85-3.6a1.373,1.373,0,0,1,.566-.634,1.813,1.813,0,0,1,.935-.225v.586H43.2a1.417,1.417,0,0,0-.979.329,1.412,1.412,0,0,0-.369,1.1V0h-.562V-4.383h.562ZM44.275-5.21a.394.394,0,0,1-.289-.12.4.4,0,0,1-.12-.3.39.39,0,0,1,.12-.293.4.4,0,0,1,.289-.116.4.4,0,0,1,.289.116.39.39,0,0,1,.12.293.4.4,0,0,1-.12.3A.394.394,0,0,1,44.275-5.21Zm.281.827V0h-.562V-4.383ZM46.2-5.941V0H45.64V-5.941Zm1.646,0V0h-.562V-5.941Zm3,6.005a2.233,2.233,0,0,1-1.112-.277A2,2,0,0,1,48.959-1a2.4,2.4,0,0,1-.285-1.192,2.376,2.376,0,0,1,.289-1.192,2.021,2.021,0,0,1,.787-.787,2.256,2.256,0,0,1,1.116-.277,2.278,2.278,0,0,1,1.12.277,1.987,1.987,0,0,1,.787.787,2.4,2.4,0,0,1,.285,1.192A2.382,2.382,0,0,1,52.769-1a2,2,0,0,1-.795.791A2.3,2.3,0,0,1,50.85.064Zm0-.49a1.681,1.681,0,0,0,.8-.2,1.5,1.5,0,0,0,.6-.594,1.927,1.927,0,0,0,.229-.975,1.955,1.955,0,0,0-.225-.975,1.476,1.476,0,0,0-.594-.594,1.681,1.681,0,0,0-.8-.2,1.681,1.681,0,0,0-.8.2,1.45,1.45,0,0,0-.59.594,1.984,1.984,0,0,0-.221.975,1.984,1.984,0,0,0,.221.975,1.458,1.458,0,0,0,.586.594A1.658,1.658,0,0,0,50.85-.425Z" transform="translate(1004.994 2194.888)" fill="#fff"/>
    <g id="Grupo_903" data-name="Grupo 903" transform="translate(967.534 2170)">
      <g id="Grupo_902" data-name="Grupo 902" clip-path="url(#clip-path)">
        <path id="Trazado_721" data-name="Trazado 721" d="M30.577,18.912a8.257,8.257,0,0,0-.437-1.638,8.031,8.031,0,0,0-.807-1.58,6.8,6.8,0,0,0-1.009-1.189,5.492,5.492,0,0,0-.9-.73,6.866,6.866,0,0,0-1.578-.756,7.387,7.387,0,0,0-2.04-.336c-.811-.014-1.62,0-2.43,0-.052,0-.1,0-.173-.007a.524.524,0,0,1,.047-.063,3.053,3.053,0,0,1,1.036-.691,4.908,4.908,0,0,1,1.566-.326,7.172,7.172,0,0,1,1.163.038c.125.013.249.031.374.032a2.487,2.487,0,0,1,.4.046c.156.026.312.054.469.072a.128.128,0,0,0,.1-.046c.023-.034-.026-.059-.051-.079-.1-.081-.194-.155-.289-.236-.252-.214-.5-.431-.754-.646l-.023-.023a1.243,1.243,0,0,1-.12-.079c-.746-.622-1.5-1.231-2.231-1.873a.491.491,0,0,0-.533-.166.246.246,0,0,1-.206-.022c-.017-.009-.044-.036-.065-.014-.08.082-.185.057-.283.073a9.227,9.227,0,0,0-1.971.468,8.91,8.91,0,0,0-1.207.545c-.255.148-.51.3-.764.447l-.026.021-.521.368a.038.038,0,0,1-.022.017,15.37,15.37,0,0,0-1.479,1.337c-.308.323-.6.664-.886,1-.268.311-.493.656-.774.957a.52.52,0,0,1-.526.14.2.2,0,0,1-.166-.233,1.8,1.8,0,0,1,.132-.518,8.424,8.424,0,0,1,.536-.96,8.971,8.971,0,0,1,3.208-3.113,11.045,11.045,0,0,1,4.213-1.372.13.13,0,0,0,.094-.052c-.409-.381-.816-.754-1.214-1.136-.5-.482-.995-.971-1.491-1.458a.223.223,0,0,0-.181-.088c-.321.02-.643-.007-.966.026a12.124,12.124,0,0,0-1.356.207,10.073,10.073,0,0,0-2.688.99A11.036,11.036,0,0,0,11.6,7.774a11.708,11.708,0,0,0-1.83,2.111c-.209.324-.419.649-.6.993a14.314,14.314,0,0,0-.792,1.862,12.8,12.8,0,0,0-.358,1.347,9.953,9.953,0,0,0-.2,1.482,12.28,12.28,0,0,0-.014,1.315c.017.425.055.85.108,1.274a11.4,11.4,0,0,0,.228,1.353,13.011,13.011,0,0,0,.683,2.1,11.423,11.423,0,0,0,1.289,2.264,11.973,11.973,0,0,0,.889,1.061,10.729,10.729,0,0,0,1.478,1.288,12.276,12.276,0,0,0,2.485,1.39l.027.025c.189.066.382.122.564.2a7.087,7.087,0,0,0,1.294.414c.393.086.785.188,1.186.245.354.051.706.123,1.064.158a2.835,2.835,0,0,1,.364.013c.23.057.465.027.692.075.069.014.137-.058.176-.039a1.884,1.884,0,0,0,.775.059,4.639,4.639,0,0,0,.667.005c.341-.024.679-.071,1.019-.1.109-.011.214-.046.318-.059a2.167,2.167,0,0,0,.335-.023c.332-.1.673-.165,1.006-.261a9.583,9.583,0,0,0,1.288-.472,9.053,9.053,0,0,0,1.551-.887,8.538,8.538,0,0,0,1.631-1.527,7.837,7.837,0,0,0,1.5-2.973,9.754,9.754,0,0,0,.251-1.683,8.082,8.082,0,0,0-.108-1.866M12.863,17.47a.389.389,0,0,1-.393.159.369.369,0,0,1-.323-.251,1.069,1.069,0,0,1-.05-.332c0-.588,0-1.176,0-1.765s0-1.177,0-1.765c0-.055,0-.109,0-.163.028-.327.161-.445.493-.442.221,0,.358.164.378.449,0,.044,0,.089,0,.134,0,1.142.008,2.284-.009,3.427a.854.854,0,0,1-.1.549m1.5-.088a.425.425,0,0,1-.475.228c-.277-.071-.338-.263-.34-.5,0-.415,0-.83,0-1.245h0c0-.422,0-.842,0-1.262a.407.407,0,0,1,.391-.436.419.419,0,0,1,.471.379,1.421,1.421,0,0,1,.011.207c0,.737,0,1.474,0,2.21a1.844,1.844,0,0,1-.061.42m3.622-.266a.476.476,0,0,1-.177.414.372.372,0,0,1-.5.014c-.007-.008-.016-.016-.024-.024l0,0a.055.055,0,0,1-.056-.054.573.573,0,0,1-.1-.347c0-.564.033-1.129-.022-1.69a.583.583,0,0,0-.179-.467.725.725,0,0,0-.8-.014.755.755,0,0,0-.349.634c-.005.376-.01.751-.012,1.127a2.51,2.51,0,0,1-.053.658l-.024.031a.458.458,0,0,1-.482.237.491.491,0,0,1-.3-.425c-.026-.281-.013-.559-.015-.839,0-.608,0-1.216,0-1.824a.375.375,0,0,1,.391-.381.37.37,0,0,1,.4.388c0,.044-.031.112.026.133s.078-.051.112-.084a1.311,1.311,0,0,1,.927-.424,1.148,1.148,0,0,1,1.09.507,1.311,1.311,0,0,1,.148.638c.013.6.008,1.2,0,1.795m6.279-1.985a.474.474,0,0,0-.5-.377.912.912,0,0,0-.957.447.373.373,0,0,1-.519.169.407.407,0,0,1-.107-.549,1.27,1.27,0,0,1,1.044-.633,3.168,3.168,0,0,1,.886,0,1.031,1.031,0,0,1,.924.538,1.548,1.548,0,0,1,.12.587c.01.277.012.554,0,.831a2.593,2.593,0,0,0,.131,1.012.277.277,0,0,1-.042.3l-.023.024c-.228.221-.478.187-.694-.095-.057-.074-.091-.2-.17-.21s-.158.087-.239.136a2.2,2.2,0,0,1-.718.273,1.268,1.268,0,0,1-1-.149.691.691,0,0,1-.35-.459c-.058,0-.055-.048-.055-.088a.932.932,0,0,1,.708-1.126c.494-.116,1-.195,1.484-.334.03-.009.058-.019.087-.029a.3.3,0,0,1,.025-.025,1.545,1.545,0,0,0-.032-.247m-5.389,2.107a1.634,1.634,0,0,1-.492-.824,2.074,2.074,0,0,1,.138-1.4,1.4,1.4,0,0,1,.876-.758,2.033,2.033,0,0,1,1.327.023,1.361,1.361,0,0,1,.9,1.265.909.909,0,0,1-.012.28c-.082.233-.3.257-.494.266-.348.019-.7.01-1.046.012h-.743c-.064,0-.1.007-.1.086a.89.89,0,0,0,.625.874.777.777,0,0,0,.7-.107c.159-.139.342-.255.5-.4a.34.34,0,0,1,.392-.044c.162.071.132.217.119.353-.008.01-.015.021-.022.031a.8.8,0,0,1-.412.471,2.044,2.044,0,0,1-1.424.24,1.575,1.575,0,0,1-.833-.363m6.91,9.2a.511.511,0,0,1-.386.335,1.459,1.459,0,0,1-.373.038H20.7c-.056,0-.112,0-.167,0,0,.058-.038.029-.064.021a1.57,1.57,0,0,1-.516-.223.753.753,0,0,1-.27-.865,2.524,2.524,0,0,1,.666-1.088c.256-.254.506-.514.774-.755A20.416,20.416,0,0,1,22.7,22.582a3.453,3.453,0,0,0,1.141-1.213,1.523,1.523,0,0,0,.122-1.3,1.237,1.237,0,0,0-1.035-.775,1.557,1.557,0,0,0-.769.049,1.289,1.289,0,0,0-.8.746,8.034,8.034,0,0,1-.332.763.705.705,0,0,1-.793.4.61.61,0,0,1-.552-.571,1.868,1.868,0,0,1,.278-1.217,2.688,2.688,0,0,1,2-1.347,3.731,3.731,0,0,1,.89-.064,4.5,4.5,0,0,1,1.352.241,1.355,1.355,0,0,1,.431.233l.032.019a.729.729,0,0,1,.218.159c.009.009.018.02.026.029a2.2,2.2,0,0,1,.44.5c.068.026.073.084.078.142.023.052.047.1.07.155.074.024.076.086.081.146.018.158.082.305.106.465a2.382,2.382,0,0,1-.061,1.133,3.314,3.314,0,0,1-.459.922A5.734,5.734,0,0,1,24.1,23.242c-.546.433-1.09.868-1.612,1.329a4.539,4.539,0,0,0-.628.68c-.032.042-.093.084-.061.14s.092.022.141.022c.966,0,1.931,0,2.9,0a1.713,1.713,0,0,1,.708.144.581.581,0,0,1,.3.446.726.726,0,0,1-.065.437" fill="#ffbc2d"/>
        <path id="Trazado_722" data-name="Trazado 722" d="M17.863,10.128l-.026.021c0-.017,0-.028.026-.021" fill="#ffbe32"/>
        <path id="Trazado_723" data-name="Trazado 723" d="M17.315,10.517a.04.04,0,0,1-.022.018c0-.019,0-.025.022-.018" fill="#ffbe32"/>
        <path id="Trazado_724" data-name="Trazado 724" d="M25.265,10.772l-.022-.023c.017,0,.026,0,.022.023" fill="#ffbe32"/>
        <path id="Trazado_725" data-name="Trazado 725" d="M15.008,27.637c-.02,0-.027-.007-.027-.025l.027.025" fill="#ffbe32"/>
        <path id="Trazado_726" data-name="Trazado 726" d="M25.851,26a.579.579,0,0,0-.3-.445,1.715,1.715,0,0,0-.709-.145c-.966,0-1.931,0-2.9,0-.048,0-.114.025-.14-.022s.029-.1.061-.139a4.447,4.447,0,0,1,.628-.681c.522-.461,1.065-.9,1.612-1.329A5.734,5.734,0,0,0,25.165,22.2a3.311,3.311,0,0,0,.458-.922,2.37,2.37,0,0,0,.061-1.133c-.024-.159-.088-.307-.1-.465-.047-.037-.093-.076-.081-.145-.024-.052-.047-.1-.07-.156-.061-.028-.113-.062-.078-.142a2.2,2.2,0,0,0-.441-.5.373.373,0,0,0-.026-.03.716.716,0,0,0-.218-.159c-.02.009-.026,0-.031-.019a1.366,1.366,0,0,0-.431-.233,4.573,4.573,0,0,0-1.353-.241,3.787,3.787,0,0,0-.89.064,2.689,2.689,0,0,0-2,1.347,1.862,1.862,0,0,0-.278,1.217.611.611,0,0,0,.552.572.706.706,0,0,0,.793-.4,8.28,8.28,0,0,0,.332-.762,1.285,1.285,0,0,1,.8-.747,1.546,1.546,0,0,1,.769-.048,1.232,1.232,0,0,1,1.034.774,1.519,1.519,0,0,1-.121,1.3A3.462,3.462,0,0,1,22.7,22.582a20.452,20.452,0,0,0-1.578,1.326c-.269.241-.518.5-.775.755a2.522,2.522,0,0,0-.665,1.088.75.75,0,0,0,.27.865,1.55,1.55,0,0,0,.516.223c.014-.027.037-.027.063-.02.056,0,.112-.005.167-.005h4.325a1.459,1.459,0,0,0,.373-.038.511.511,0,0,0,.386-.335A.719.719,0,0,0,25.851,26m-4.081-.6-.008-.009.01-.007.008.009s-.006.007-.01.007" fill="#fff"/>
        <path id="Trazado_727" data-name="Trazado 727" d="M25.284,17.155a2.63,2.63,0,0,1-.131-1.012c.011-.277.008-.554,0-.831a1.529,1.529,0,0,0-.12-.587,1.026,1.026,0,0,0-.923-.538,3.168,3.168,0,0,0-.886,0,1.268,1.268,0,0,0-1.045.633.408.408,0,0,0,.108.549A.374.374,0,0,0,22.8,15.2a.911.911,0,0,1,.957-.447.474.474,0,0,1,.505.377,1.671,1.671,0,0,1,.031.246c0,.02-.005.028-.025.026s-.056.02-.086.029c-.488.138-.99.217-1.485.334a.932.932,0,0,0-.708,1.126c.028.024.063.044.056.088a.688.688,0,0,0,.35.459,1.266,1.266,0,0,0,1,.149,2.2,2.2,0,0,0,.719-.273c.081-.049.164-.143.239-.136s.113.136.169.21c.216.282.467.316.695.095,0-.018.005-.025.023-.024a.275.275,0,0,0,.041-.3m-1.036-.637a.725.725,0,0,1-.518.489.56.56,0,0,1-.324.061.5.5,0,0,1-.562-.5.444.444,0,0,1,.358-.378c.336-.1.681-.165,1.022-.246.063-.015.08.008.08.065a2.2,2.2,0,0,1-.056.512" fill="#fff"/>
        <path id="Trazado_728" data-name="Trazado 728" d="M19.333,16.1h.744c.349,0,.7.007,1.046-.011.2-.01.412-.034.494-.267a.908.908,0,0,0,.012-.28,1.361,1.361,0,0,0-.9-1.264,2.027,2.027,0,0,0-1.327-.024,1.4,1.4,0,0,0-.876.758,2.068,2.068,0,0,0-.138,1.4,1.641,1.641,0,0,0,.492.825,1.57,1.57,0,0,0,.832.362,2.04,2.04,0,0,0,1.425-.239.809.809,0,0,0,.412-.472c-.006-.018.007-.026.022-.031.013-.135.042-.282-.119-.353a.34.34,0,0,0-.392.044c-.156.147-.339.263-.5.4a.78.78,0,0,1-.7.106.891.891,0,0,1-.626-.874c0-.079.041-.087.1-.086m-.1-.594a.777.777,0,0,1,.924-.728.765.765,0,0,1,.648.758c.006.088-.044.081-.1.081H20.02c-.223,0-.446,0-.669,0-.088,0-.132-.016-.119-.113" fill="#fff"/>
        <path id="Trazado_729" data-name="Trazado 729" d="M17.226,17.463a.574.574,0,0,1-.1-.348c0-.563.033-1.127-.022-1.689a.58.58,0,0,0-.18-.467.721.721,0,0,0-.8-.014.758.758,0,0,0-.35.634c0,.376-.009.751-.011,1.127a2.542,2.542,0,0,1-.053.657l-.024.032a.461.461,0,0,1-.482.238.493.493,0,0,1-.3-.427c-.028-.28-.014-.558-.016-.838,0-.608,0-1.216,0-1.824a.373.373,0,0,1,.391-.38.369.369,0,0,1,.4.387c0,.044-.031.112.025.132s.079-.049.112-.083a1.314,1.314,0,0,1,.928-.423,1.149,1.149,0,0,1,1.09.506,1.3,1.3,0,0,1,.147.638c.014.6.009,1.2.006,1.795a.476.476,0,0,1-.177.414.374.374,0,0,1-.5.014c0-.02-.006-.025-.023-.024l0,0c0-.039-.008-.065-.056-.054" fill="#fff"/>
        <path id="Trazado_730" data-name="Trazado 730" d="M12.1,15.281V13.516c0-.055,0-.109,0-.164.027-.326.16-.444.492-.441.222,0,.358.164.377.449,0,.044,0,.089,0,.133,0,1.143.009,2.285-.009,3.427a.862.862,0,0,1-.1.55.389.389,0,0,1-.393.159.368.368,0,0,1-.323-.251,1.069,1.069,0,0,1-.05-.332c0-.588,0-1.177,0-1.765" fill="#fff"/>
        <path id="Trazado_731" data-name="Trazado 731" d="M13.551,15.863c0-.42,0-.841,0-1.261a.407.407,0,0,1,.391-.436.417.417,0,0,1,.47.379,1.3,1.3,0,0,1,.012.207c0,.736,0,1.473,0,2.21a1.844,1.844,0,0,1-.061.42.424.424,0,0,1-.475.227c-.276-.07-.338-.262-.339-.5,0-.415,0-.831,0-1.246h0" fill="#fff"/>
        <path id="Trazado_732" data-name="Trazado 732" d="M25.428,19.38c-.061-.029-.113-.063-.078-.142.067.025.072.084.078.142" fill="#ffbe32"/>
        <path id="Trazado_733" data-name="Trazado 733" d="M25.579,19.68c-.047-.038-.093-.076-.081-.145.074.023.076.085.081.145" fill="#ffbe32"/>
        <path id="Trazado_734" data-name="Trazado 734" d="M21.993,16.892c.028.024.063.043.055.088-.058,0-.055-.048-.055-.088" fill="#ffbe32"/>
        <path id="Trazado_735" data-name="Trazado 735" d="M17.226,17.463c.048-.011.058.015.056.054a.055.055,0,0,1-.056-.054" fill="#ffbe32"/>
        <path id="Trazado_736" data-name="Trazado 736" d="M20.472,26.839c.015-.027.038-.027.064-.02,0,.057-.038.028-.064.02" fill="#ffbe32"/>
        <path id="Trazado_737" data-name="Trazado 737" d="M24.3,15.377c0,.02-.006.027-.025.025l.025-.025" fill="#ffbe32"/>
        <path id="Trazado_738" data-name="Trazado 738" d="M21.545,16.89c0-.019.007-.027.022-.032l-.022.032" fill="#ffbe32"/>
        <path id="Trazado_739" data-name="Trazado 739" d="M15.683,17.4l.024-.032-.024.032" fill="#ffbe32"/>
        <path id="Trazado_740" data-name="Trazado 740" d="M25.22,17.485c0-.019.005-.026.023-.024l-.023.024" fill="#ffbe32"/>
        <path id="Trazado_741" data-name="Trazado 741" d="M17.285,17.52c.017,0,.028,0,.023.024l-.023-.024" fill="#ffbe32"/>
        <path id="Trazado_742" data-name="Trazado 742" d="M24.665,18.545c-.02.008-.026,0-.031-.019l.031.019" fill="#ffbe32"/>
        <path id="Trazado_743" data-name="Trazado 743" d="M24.909,18.734l-.026-.03.026.03" fill="#ffbe32"/>
        <path id="Trazado_744" data-name="Trazado 744" d="M21.78,25.4l-.01.007-.008-.009.01-.007.008.009" fill="#ffbe32"/>
        <path id="Trazado_745" data-name="Trazado 745" d="M23.406,17.068a.5.5,0,0,1-.562-.5.444.444,0,0,1,.357-.378c.337-.1.682-.165,1.023-.247.062-.014.08.009.08.067a2.193,2.193,0,0,1-.056.511.725.725,0,0,1-.517.489.573.573,0,0,1-.325.061" fill="#ffbc2d"/>
        <path id="Trazado_746" data-name="Trazado 746" d="M20.019,15.616c-.223,0-.445,0-.668,0-.089,0-.132-.017-.119-.113a.777.777,0,0,1,.924-.729.764.764,0,0,1,.647.758c.006.089-.043.082-.1.082h-.683" fill="#ffbc2d"/>
      </g>
    </g>
  </g>
</svg>
