<svg xmlns="http://www.w3.org/2000/svg" width="37" height="37" viewBox="0 0 37 37">
  <g id="Grupo_688" data-name="Grupo 688" transform="translate(-448 -9918)">
    <circle id="Elipse_80" data-name="Elipse 80" cx="18.5" cy="18.5" r="18.5" transform="translate(448 9918)" fill="#c1f428" opacity="0.33"/>
    <g id="Grupo_452" data-name="Grupo 452" transform="translate(458 9927)">
      <g id="Grupo_177" data-name="Grupo 177" transform="translate(0 0)">
        <path id="Trazado_87" data-name="Trazado 87" d="M177.995,29.429h-9.51a1.814,1.814,0,0,0-1.766,1.537l-1.657,9.7a2.656,2.656,0,0,0,2.546,3.153h11.266a2.656,2.656,0,0,0,2.546-3.153l-1.657-9.7A1.814,1.814,0,0,0,177.995,29.429Z" transform="translate(-165.021 -24.511)" fill="none" stroke="#a7d814" stroke-linecap="round" stroke-linejoin="round" stroke-width="2"/>
        <path id="Trazado_88" data-name="Trazado 88" d="M190.09,8.348V6.965a3.465,3.465,0,1,1,6.929,0V8.348" transform="translate(-185.335 -3.5)" fill="none" stroke="#a7d814" stroke-linecap="round" stroke-linejoin="round" stroke-width="2"/>
        <path id="Trazado_89" data-name="Trazado 89" d="M197.019,44.75v1.075a3.465,3.465,0,1,1-6.929,0V44.75" transform="translate(-185.335 -36.636)" fill="none" stroke="#a7d814" stroke-linecap="round" stroke-linejoin="round" stroke-width="2"/>
      </g>
    </g>
  </g>
</svg>
