<svg xmlns="http://www.w3.org/2000/svg" xmlns:xlink="http://www.w3.org/1999/xlink" width="65" height="65" viewBox="0 0 65 65">
  <defs>
    <clipPath id="clip-path">
      <rect id="Rectángulo_103" data-name="Rectángulo 103" width="30.037" height="35.463" transform="translate(0 0)" fill="none"/>
    </clipPath>
  </defs>
  <g id="Grupo_457" data-name="Grupo 457" transform="translate(-10220 -1354)">
    <g id="Elipse_23" data-name="Elipse 23" transform="translate(10220 1354)" fill="#fff" stroke="#eaeaea" stroke-width="1">
      <circle cx="32.5" cy="32.5" r="32.5" stroke="none"/>
      <circle cx="32.5" cy="32.5" r="32" fill="none"/>
    </g>
    <g id="Grupo_100" data-name="Grupo 100" transform="translate(10237.769 1369.088)">
      <g id="Grupo_148" data-name="Grupo 148" transform="translate(0 0)" clip-path="url(#clip-path)">
        <path id="Trazado_60" data-name="Trazado 60" d="M39.124,40.9l-9.013,8.99a2.173,2.173,0,0,1-3.078,0l-4.913-4.9v0L33.057,34.052l.128-.124,9.338-9.338a15.051,15.051,0,0,1-3.4,16.315" transform="translate(-13.556 -15.07)" fill="#34a852"/>
        <path id="Trazado_61" data-name="Trazado 61" d="M27.338,25.544c-.043.043-.085.081-.128.124l.124-.128Z" transform="translate(-16.676 -15.652)" fill="#fabb04"/>
        <path id="Trazado_62" data-name="Trazado 62" d="M9.728,45.777v0l-4.1-4.084A15.054,15.054,0,0,1,1.9,35.665l9.8-9.795a6.34,6.34,0,0,0,8.966,8.966c.043-.043.081-.085.124-.128l0,0Z" transform="translate(-1.164 -15.854)" fill="#fabb04"/>
        <path id="Trazado_63" data-name="Trazado 63" d="M45.839,10.685,36.5,20.023l0,0a6.34,6.34,0,0,0-8.963-8.963l0,0L36.686,1.9a14.727,14.727,0,0,1,9.152,8.785" transform="translate(-16.872 -1.164)" fill="#4285f4"/>
        <path id="Trazado_64" data-name="Trazado 64" d="M10.658,16.194l-.124.128-9.8,9.795A15.456,15.456,0,0,1,4.758,10.29Z" transform="translate(0 -6.306)" fill="#ea4335"/>
        <path id="Trazado_65" data-name="Trazado 65" d="M27.346.736,18.19,9.888l-5.9-5.9A14.483,14.483,0,0,1,21.922.012Q22.236,0,22.55,0c.209,0,.418,0,.623.012a15.046,15.046,0,0,1,4.174.724" transform="translate(-7.532 0)" fill="#1a73e8"/>
      </g>
    </g>
  </g>
</svg>
