<svg xmlns="http://www.w3.org/2000/svg" viewBox="0 0 11.21 11.21"><defs><style>.cls-1{fill:#6547eb;}</style></defs><title>Recurso 1</title><g id="Capa_2" data-name="Capa 2"><g id="Capa_1-2" data-name="Capa 1"><path class="cls-1" d="M8.34,0H2.87A2.88,2.88,0,0,0,0,2.87V8.34a2.88,2.88,0,0,0,2.87,2.87H8.34a2.88,2.88,0,0,0,2.87-2.87V2.87A2.88,2.88,0,0,0,8.34,0ZM3.06,4.35a.66.66,0,0,1,.94,0l.94.94V2A.67.67,0,0,1,6.27,2V5.29l.94-.94a.66.66,0,0,1,.94.94L6.08,7.36a.74.74,0,0,1-.22.14.65.65,0,0,1-.51,0,.6.6,0,0,1-.21-.14L3.06,5.29A.66.66,0,0,1,3.06,4.35ZM8,9.84h-5a.66.66,0,1,1,0-1.32H8A.66.66,0,1,1,8,9.84Z"/></g></g></svg>