<svg xmlns="http://www.w3.org/2000/svg" width="65" height="65" viewBox="0 0 65 65">
  <g id="Grupo_458" data-name="Grupo 458" transform="translate(-10145 -1354)">
    <circle id="Elipse_22" data-name="Elipse 22" cx="32.5" cy="32.5" r="32.5" transform="translate(10145 1354)" fill="#30c2f2"/>
    <path id="waze-svgrepo-com" d="M19.515,1.59q-.495.007-.989.044a16.172,16.172,0,0,0-8.9,3.411A14.2,14.2,0,0,0,4.506,15.379h0a12.328,12.328,0,0,1-.687,3.855c-.349.7-.616.935-1.818.937A2.06,2.06,0,0,0,.39,23.419,14.665,14.665,0,0,0,7.308,28.35a3.218,3.218,0,0,0,6.3,1.313,45.4,45.4,0,0,0,5.605.147c.534-.018,1.07-.066,1.6-.135a3.22,3.22,0,1,0,6.121-1.955,17.817,17.817,0,0,0,3.376-2.271A13.1,13.1,0,0,0,35.15,14.6a12.567,12.567,0,0,0-2.562-6.754A15.991,15.991,0,0,0,19.515,1.59Zm.536,2.257c.457.012.913.04,1.368.092A13.588,13.588,0,0,1,30.8,9.183h0a10.3,10.3,0,0,1,2.12,5.558v0a10.775,10.775,0,0,1-4.071,9.01,15.626,15.626,0,0,1-3.481,2.25A3.206,3.206,0,0,0,21.1,27.362a14.5,14.5,0,0,1-1.961.214,40.05,40.05,0,0,1-5.821-.217,3.213,3.213,0,0,0-4.806-1.016,12.942,12.942,0,0,1-6.09-4.049,4.055,4.055,0,0,0,3.4-2.064,12.682,12.682,0,0,0,.916-4.688v0A11.905,11.905,0,0,1,11.014,6.8h0a14.032,14.032,0,0,1,9.035-2.949Zm-4.628,6.8a1.9,1.9,0,1,0,1.835,1.9A1.871,1.871,0,0,0,15.424,10.646Zm8.082,0a1.9,1.9,0,1,0,1.835,1.9A1.869,1.869,0,0,0,23.507,10.646Zm-9.375,5.881A1.055,1.055,0,0,0,13.27,17a1.014,1.014,0,0,0-.161.792c.506,2.614,3.188,4.586,6.25,4.586h.183a7.281,7.281,0,0,0,4.128-1.351,5.419,5.419,0,0,0,2.165-3.132,1.093,1.093,0,0,0-.138-.8,1.011,1.011,0,0,0-.652-.469,1.047,1.047,0,0,0-1.271.79c-.322,1.363-1.9,2.785-4.3,2.844a4.148,4.148,0,0,1-4.289-2.867,1.055,1.055,0,0,0-1.052-.859Z" transform="translate(10159.91 1369.651)"/>
    <path id="waze-svgrepo-com-2" data-name="waze-svgrepo-com" d="M20.052,3.848c.457.012.913.04,1.368.092A13.588,13.588,0,0,1,30.8,9.183h0a10.3,10.3,0,0,1,2.12,5.558v0a10.775,10.775,0,0,1-4.071,9.01,15.626,15.626,0,0,1-3.481,2.25A3.206,3.206,0,0,0,21.1,27.362a14.5,14.5,0,0,1-1.961.214,40.05,40.05,0,0,1-5.821-.217,3.213,3.213,0,0,0-4.806-1.016,12.942,12.942,0,0,1-6.09-4.049,4.055,4.055,0,0,0,3.4-2.064,12.682,12.682,0,0,0,.916-4.688v0A11.905,11.905,0,0,1,11.014,6.8h0a14.032,14.032,0,0,1,9.035-2.949Zm-4.628,6.8a1.9,1.9,0,1,0,1.835,1.9A1.871,1.871,0,0,0,15.424,10.646Zm8.082,0a1.9,1.9,0,1,0,1.835,1.9A1.869,1.869,0,0,0,23.507,10.646Zm-9.375,5.881A1.055,1.055,0,0,0,13.27,17a1.014,1.014,0,0,0-.161.792c.506,2.614,3.188,4.586,6.25,4.586h.183a7.281,7.281,0,0,0,4.128-1.351,5.419,5.419,0,0,0,2.165-3.132,1.093,1.093,0,0,0-.138-.8,1.011,1.011,0,0,0-.652-.469,1.047,1.047,0,0,0-1.271.79c-.322,1.363-1.9,2.785-4.3,2.844a4.148,4.148,0,0,1-4.289-2.867,1.055,1.055,0,0,0-1.052-.859Z" transform="translate(10159.91 1369.651)" fill="#fff"/>
  </g>
</svg>
