<svg xmlns="http://www.w3.org/2000/svg" viewBox="0 0 22.31 21.32"><defs><style>.cls-1{fill:#fff;}</style></defs><title>Recurso 8icono-new</title><g id="Capa_2" data-name="Capa 2"><g id="Capa_1-2" data-name="Capa 1"><path class="cls-1" d="M.28,21.32H5.07V6.94H.28ZM2.71,0a2.49,2.49,0,1,0-.07,5h0a2.49,2.49,0,1,0,0-5Zm19.6,13.07v8.25H17.53v-7.7c0-1.93-.69-3.25-2.42-3.25a2.63,2.63,0,0,0-2.46,1.75,3.41,3.41,0,0,0-.16,1.17v8H7.71s.07-13,0-14.38h4.78V9a.09.09,0,0,1,0,0h0V9A4.77,4.77,0,0,1,16.81,6.6C20,6.6,22.31,8.65,22.31,13.07Z"/></g></g></svg>