<svg xmlns="http://www.w3.org/2000/svg" width="80.502" height="95.591" viewBox="0 0 80.502 95.591">
  <g id="Grupo_486" data-name="Grupo 486" transform="translate(1531.693 -592)">
    <path id="Trazado_381" data-name="Trazado 381" d="M1.56,74.882H12.868a1.56,1.56,0,0,1,1.554,1.471l1.169,21.126h1.495l1.145-21.124a1.56,1.56,0,0,1,1.555-1.473H30.591a1.56,1.56,0,0,1,1.56,1.56v34.637a1.56,1.56,0,0,1-1.56,1.56H24.648a1.56,1.56,0,0,1-1.557-1.564c0-.047,0-.093.007-.14l1.965-20.813H23.585l-3.121,21.187a1.56,1.56,0,0,1-1.541,1.331h-5.7a1.56,1.56,0,0,1-1.54-1.327L8.508,90.095H7L9.02,110.93a1.561,1.561,0,0,1-1.407,1.7c-.046,0-.093.007-.14.007H1.56A1.56,1.56,0,0,1,0,111.079V76.44a1.56,1.56,0,0,1,1.56-1.56" transform="translate(-1531.693 558.495)" fill="#fff"/>
    <path id="Trazado_382" data-name="Trazado 382" d="M1.56,1.3H12.868a1.56,1.56,0,0,1,1.554,1.468L15.591,23.9h1.495L18.231,2.771A1.56,1.56,0,0,1,19.783,1.3H30.591a1.56,1.56,0,0,1,1.56,1.56V37.5a1.56,1.56,0,0,1-1.56,1.56H24.648a1.56,1.56,0,0,1-1.557-1.564c0-.047,0-.093.007-.14l1.965-20.813H23.585L20.464,37.725a1.561,1.561,0,0,1-1.541,1.331h-5.7a1.56,1.56,0,0,1-1.54-1.328L8.508,16.511H7L9.02,37.346a1.561,1.561,0,0,1-1.407,1.7c-.046,0-.093.007-.14.007H1.56A1.56,1.56,0,0,1,0,37.493V2.856A1.561,1.561,0,0,1,1.56,1.3" transform="translate(-1531.693 591.419)" fill="#fff"/>
    <path id="Trazado_383" data-name="Trazado 383" d="M64.244,74.882H79.867a1.56,1.56,0,0,1,1.56,1.56v4.71a1.561,1.561,0,0,1-1.56,1.56h-.028l-3.487-.075a1.56,1.56,0,0,0-1.588,1.532v5.249a1.56,1.56,0,0,0,1.517,1.56l2.238.056a1.56,1.56,0,0,1,1.518,1.56v2.6a1.561,1.561,0,0,1-1.56,1.561h-.036l-2.082-.052a1.56,1.56,0,0,0-1.6,1.524c0,.012,0,.024,0,.036v5.091a1.56,1.56,0,0,0,1.527,1.56l3.748.073a1.561,1.561,0,0,1,1.527,1.56v4.55a1.561,1.561,0,0,1-1.56,1.56H64.237a1.561,1.561,0,0,1-1.56-1.56V76.44a1.56,1.56,0,0,1,1.56-1.56" transform="translate(-1559.738 558.495)" fill="#fff"/>
    <path id="Trazado_384" data-name="Trazado 384" d="M102.927,74.881h9.6a1.561,1.561,0,0,1,1.54,1.322l.519,3.4,2.459,15.654,1.478-.027L116.7,76.586a1.56,1.56,0,0,1,1.405-1.7,1.419,1.419,0,0,1,.145-.007H124.3a1.56,1.56,0,0,1,1.56,1.56v34.64a1.56,1.56,0,0,1-1.56,1.56h-9.631a1.56,1.56,0,0,1-1.539-1.314l-.516-3.292L109.82,90.182h-1.5l2.067,20.747a1.56,1.56,0,0,1-1.4,1.7,1.478,1.478,0,0,1-.149.007h-5.907a1.56,1.56,0,0,1-1.56-1.56V76.439a1.56,1.56,0,0,1,1.56-1.56" transform="translate(-1577.05 558.496)" fill="#fff"/>
    <path id="Trazado_385" data-name="Trazado 385" d="M76.156,0C67.523,0,63.08,4.053,63.08,11.854v15.3c.14,7.965,4.5,12.049,13.075,12.049,8.634,0,13.075-4.082,13.075-12.049V11.966C89.232,4.053,84.791,0,76.156,0m1.2,28.311a1.188,1.188,0,0,1-.814,1.121.987.987,0,0,1-.771,0,1.187,1.187,0,0,1-.813-1.121V10.8a1.189,1.189,0,0,1,.813-1.122,1,1,0,0,1,.767,0,1.189,1.189,0,0,1,.814,1.122Z" transform="translate(-1559.918 592)" fill="#fff"/>
    <path id="Trazado_386" data-name="Trazado 386" d="M5.377,165.286H2.464L2,166.638H0l2.828-7.657h2.2l2.828,7.657H5.845ZM3.92,161.043l-.958,2.8H4.889Z" transform="translate(-1531.693 520.863)" fill="#fff"/>
    <path id="Trazado_387" data-name="Trazado 387" d="M22.365,161.319H20.259a1.642,1.642,0,0,0-1.536-.785,1.985,1.985,0,0,0-2.037,2.181,2.038,2.038,0,0,0,2.193,2.247,1.869,1.869,0,0,0,1.894-1.352H18.357v-1.374H22.5v1.733a3.818,3.818,0,0,1-3.763,2.64,3.9,3.9,0,0,1-.011-7.8,3.463,3.463,0,0,1,3.641,2.509" transform="translate(-1538.328 520.947)" fill="#fff"/>
    <path id="Trazado_388" data-name="Trazado 388" d="M30.049,158.982h1.9v4.581a1.253,1.253,0,0,0,1.359,1.429A1.269,1.269,0,0,0,34.7,163.85a1.254,1.254,0,0,0,0-.288v-4.581h1.9v4.57a3.046,3.046,0,0,1-3.317,3.163,2.969,2.969,0,0,1-3.224-2.689,3.02,3.02,0,0,1,0-.474Z" transform="translate(-1545.136 520.863)" fill="#fff"/>
    <path id="Trazado_389" data-name="Trazado 389" d="M48.259,165.286H45.344l-.468,1.352H42.884l2.83-7.657h2.2l2.828,7.657H48.728ZM46.8,161.043l-.958,2.8h1.927Z" transform="translate(-1550.881 520.863)" fill="#fff"/>
    <path id="Trazado_390" data-name="Trazado 390" d="M61.342,158.982c1.915,0,2.874,1.08,2.874,2.411a2.236,2.236,0,0,1-1.737,2.217l1.807,3.032h-2.15l-1.625-2.89h-.458v2.89h-1.9v-7.66Zm-.112,1.549H60.054v1.9h1.18c.713,0,1.046-.36,1.046-.96,0-.566-.333-.938-1.046-.938" transform="translate(-1557.712 520.863)" fill="#fff"/>
    <rect id="Rectángulo_426" data-name="Rectángulo 426" width="1.904" height="7.657" transform="translate(-1492.584 679.845)" fill="#fff"/>
    <path id="Trazado_391" data-name="Trazado 391" d="M79.588,158.816A3.618,3.618,0,0,1,83.3,161.5H81.2a1.724,1.724,0,0,0-1.635-.986,2.217,2.217,0,0,0,0,4.407,1.724,1.724,0,0,0,1.635-.985H83.3a3.613,3.613,0,0,1-3.708,2.672,3.9,3.9,0,0,1,0-7.8" transform="translate(-1565.56 520.942)" fill="#fff"/>
    <path id="Trazado_392" data-name="Trazado 392" d="M94.637,166.624a3.895,3.895,0,1,1,.139,0h-.139m0-1.7a2.23,2.23,0,1,0-2.064-2.385c0,.055-.006.109-.006.164a2.02,2.02,0,0,0,2.071,2.225" transform="translate(-1572.317 520.953)" fill="#fff"/>
    <path id="Trazado_393" data-name="Trazado 393" d="M110.553,160.164h-1.1v-1.733h3.083V166.4h-1.981Z" transform="translate(-1580.667 521.109)" fill="#fff"/>
    <path id="Trazado_394" data-name="Trazado 394" d="M116.741,164.754c1.724-1.4,3.563-2.78,3.563-4.122,0-.575-.268-.948-.846-.948s-.9.436-.9,1.188h-1.837a2.623,2.623,0,0,1,2.472-2.763,2.763,2.763,0,0,1,.345,0c1.848,0,2.673,1.058,2.673,2.4,0,1.745-1.594,3.141-2.884,4.112h3.006v1.515h-5.589Z" transform="translate(-1583.917 521.255)" fill="#fff"/>
    <path id="Trazado_395" data-name="Trazado 395" d="M133.956,158.409v1.636h-3.474v1.505a2.064,2.064,0,0,1,1.492-.546,2.367,2.367,0,0,1,2.449,2.607,2.567,2.567,0,0,1-2.805,2.77c-1.826,0-2.884-.993-2.951-2.366h1.86a.957.957,0,0,0,1.023.785c.724,0,1.036-.513,1.036-1.2a.964.964,0,0,0-1.047-1.1.9.9,0,0,0-.945.657h-1.838v-4.746Z" transform="translate(-1589.266 521.119)" fill="#fff"/>
    <path id="Trazado_396" data-name="Trazado 396" d="M141.209,160.164h-1.1v-1.733h3.083V166.4h-1.981Z" transform="translate(-1594.385 521.109)" fill="#fff"/>
  </g>
</svg>
