<svg xmlns="http://www.w3.org/2000/svg" xmlns:xlink="http://www.w3.org/1999/xlink" width="123.416" height="86.639" viewBox="0 0 123.416 86.639">
  <defs>
    <clipPath id="clip-path">
      <rect id="Rectángulo_368" data-name="Rectángulo 368" width="69.833" height="20.468" transform="translate(24.218 28.635)" fill="none"/>
    </clipPath>
  </defs>
  <g id="Momen_Plano" data-name="Momen Plano" transform="translate(-899.168 -435.133)">
    <path id="x02" d="M112.572,47.1h-5.258v.571H94.051V48.86H88.786V65.239H90.76V66.7h24.269V65.259h8.305V47.128h-8.466v.94h-2.3Z" transform="translate(899 435)" fill="#2accc8"/>
    <path id="x01" d="M93.8,28.111h29.538V47.075h-8.466V45.489h-2.3V47.1h-5.259v.571H94.051V45.657H88.276V33.912h.6V30.488H93.8Z" transform="translate(899 435)" fill="#2accc8"/>
    <path id="x03" d="M54.431,48.86V66.266l5,.524H80.842V65.238h7.9V48.86S54.431,48.833,54.431,48.86Z" transform="translate(899 435)" fill="#2accc8"/>
    <path id="x04" d="M54.431,64.817V48.858L28.766,46.322,27.557,49.1l-4.593-1.773-5.947,13.66,5.181.522v1.854l23.651,2.3.2-1.772Z" transform="translate(899 435)" fill="#2accc8"/>
    <path id="x05" d="M9.144,30.111l7.964,2.82-1.316,2.875,4.975,2.276-.483,1.007L25.2,41.164V42.9l-.277-.005-.7,1.546,1.794.675-1.27,2.9-1.778-.686L17.018,60.988l-.407-.054-.59,1.451L1.838,56.314l1.961-4.4L.5,50.486Z" transform="translate(899 435)" fill="#2accc8"/>
    <path id="x06" d="M25.16,28.111H54.11V45.275H48.227l-8.038-.806V41.688H33V43.7l-7.8-.746V41.165L20.285,39.09l.483-1.007-2.609-1.194,1.32-3.178,5.681,2.055Z" transform="translate(899 435)" fill="#2accc8"/>
    <path id="x08" d="M74.94,34.355l-.625-.786v-13.4h1.431V13.4H72.764V9.092h1.531V.833L88.961.39V4.378h3.747v16H91.7v7.212h-2.82v6.326h-.6v.443Z" transform="translate(899 435)" fill="#2accc8"/>
    <path id="x07" d="M74.3,9.093H72.764v6.769h2.981v4.312h-1.43v8.461H70.991V34.6h-11.6v-.524H54.109v-.927h.685V29.058h-.685v-.947h5.2v-.826h-2.5V20.334H55.519v-16h3.828v-3.3L74.3.834Z" transform="translate(899 435)" fill="#2accc8"/>
    <g id="Grupo_1052" data-name="Grupo 1052">
      <path id="Trazado_807" data-name="Trazado 807" d="M112.572,47.1h-5.258v.571H94.051V48.86H88.786V65.239H90.76V66.7h24.269V65.259h8.305V47.128h-8.466v.94h-2.3Z" transform="translate(899 435)" fill="none" stroke="#fff" stroke-miterlimit="10" stroke-width="0.5"/>
      <path id="Trazado_809" data-name="Trazado 809" d="M93.8,28.111h29.538V47.075h-8.466V45.489h-2.3V47.1h-5.259v.571H94.051V45.657H88.276V33.912h.6V30.488H93.8Z" transform="translate(899 435)" fill="none" stroke="#fff" stroke-miterlimit="10" stroke-width="0.5"/>
      <path id="Trazado_810" data-name="Trazado 810" d="M54.431,48.86V66.266l5,.524H80.842V65.238h7.9V48.86S54.431,48.833,54.431,48.86Z" transform="translate(899 435)" fill="none" stroke="#fff" stroke-miterlimit="10" stroke-width="0.5"/>
      <path id="Trazado_811" data-name="Trazado 811" d="M54.431,64.817V48.858L28.766,46.322,27.557,49.1l-4.593-1.773-5.947,13.66,5.181.522v1.854l23.651,2.3.2-1.772Z" transform="translate(899 435)" fill="none" stroke="#fff" stroke-miterlimit="10" stroke-width="0.5"/>
      <path id="Trazado_812" data-name="Trazado 812" d="M9.144,30.111l7.964,2.82-1.316,2.875,4.975,2.276-.483,1.007L25.2,41.164V42.9l-.277-.005-.7,1.546,1.794.675-1.27,2.9-1.778-.686L17.018,60.988l-.407-.054-.59,1.451L1.838,56.314l1.961-4.4L.5,50.486Z" transform="translate(899 435)" fill="none" stroke="#fff" stroke-miterlimit="10" stroke-width="0.5"/>
      <path id="Trazado_813" data-name="Trazado 813" d="M25.16,28.111H54.11V45.275H48.227l-8.038-.806V41.688H33V43.7l-7.8-.746V41.165L20.285,39.09l.483-1.007-2.609-1.194,1.32-3.178,5.681,2.055Z" transform="translate(899 435)" fill="none" stroke="#fff" stroke-miterlimit="10" stroke-width="0.5"/>
      <path id="Trazado_814" data-name="Trazado 814" d="M74.94,34.355l-.625-.786v-13.4h1.431V13.4H72.764V9.092h1.531V.833L88.961.39V4.378h3.747v16H91.7v7.212h-2.82v6.326h-.6v.443Z" transform="translate(899 435)" fill="none" stroke="#fff" stroke-miterlimit="10" stroke-width="0.5"/>
      <path id="Trazado_815" data-name="Trazado 815" d="M74.3,9.093H72.764v6.769h2.981v4.312h-1.43v8.461H70.991V34.6h-11.6v-.524H54.109v-.927h.685V29.058h-.685v-.947h5.2v-.826h-2.5V20.334H55.519v-16h3.828v-3.3L74.3.834Z" transform="translate(899 435)" fill="none" stroke="#fff" stroke-miterlimit="10" stroke-width="0.5"/>
      <path id="Trazado_816" data-name="Trazado 816" d="M4.2-1.208H1.726L1.3,0H.289L2.407-5.919H3.529L5.647,0H4.626ZM3.929-2,2.968-4.746,2-2ZM7.935-.867,9.261-4.686H10.29L8.5,0H7.348L5.57-4.686H6.608ZM10.86.06a.6.6,0,0,1-.442-.179.6.6,0,0,1-.179-.442A.6.6,0,0,1,10.418-1a.6.6,0,0,1,.442-.179A.591.591,0,0,1,11.294-1a.6.6,0,0,1,.179.442.6.6,0,0,1-.179.442A.591.591,0,0,1,10.86.06Zm7.025-1.267H15.41L14.985,0H13.973l2.118-5.919h1.123L19.331,0H18.31ZM17.613-2l-.961-2.747L15.682-2ZM21.84-4.763a2.078,2.078,0,0,1,.965.217,1.854,1.854,0,0,1,.659.54v-.68h.978V.077a2.394,2.394,0,0,1-.272,1.152,1.966,1.966,0,0,1-.787.8,2.47,2.47,0,0,1-1.229.289,2.667,2.667,0,0,1-1.582-.446A1.647,1.647,0,0,1,19.858.655h.961a1.043,1.043,0,0,0,.472.591,1.6,1.6,0,0,0,.863.225,1.291,1.291,0,0,0,.948-.357A1.4,1.4,0,0,0,23.464.077V-.706a1.977,1.977,0,0,1-.668.557,2,2,0,0,1-.957.225,2.1,2.1,0,0,1-1.118-.31,2.191,2.191,0,0,1-.8-.867,2.669,2.669,0,0,1-.293-1.263,2.593,2.593,0,0,1,.293-1.25,2.151,2.151,0,0,1,.8-.846A2.142,2.142,0,0,1,21.84-4.763Zm1.624,2.415a1.7,1.7,0,0,0-.2-.842,1.4,1.4,0,0,0-.523-.544,1.368,1.368,0,0,0-.7-.187,1.393,1.393,0,0,0-.7.183,1.379,1.379,0,0,0-.523.536,1.673,1.673,0,0,0-.2.838,1.746,1.746,0,0,0,.2.85,1.41,1.41,0,0,0,.527.557,1.352,1.352,0,0,0,.693.191,1.368,1.368,0,0,0,.7-.187,1.4,1.4,0,0,0,.523-.549A1.721,1.721,0,0,0,23.464-2.347Zm6.37-2.339V0h-.97V-.553a1.569,1.569,0,0,1-.6.455,1.9,1.9,0,0,1-.787.166,2.1,2.1,0,0,1-.991-.23,1.659,1.659,0,0,1-.689-.68,2.207,2.207,0,0,1-.251-1.089V-4.686h.961v2.611a1.36,1.36,0,0,0,.315.965,1.12,1.12,0,0,0,.859.336,1.134,1.134,0,0,0,.863-.336,1.349,1.349,0,0,0,.319-.965V-4.686Zm.859,2.322a2.593,2.593,0,0,1,.293-1.25,2.151,2.151,0,0,1,.8-.846,2.142,2.142,0,0,1,1.118-.3,2.046,2.046,0,0,1,.965.217,1.959,1.959,0,0,1,.659.54v-.68h.978V0h-.978V-.7a1.925,1.925,0,0,1-.672.553,2.071,2.071,0,0,1-.97.221,2.06,2.06,0,0,1-1.106-.31,2.2,2.2,0,0,1-.8-.867A2.669,2.669,0,0,1,30.693-2.364Zm3.836.017a1.7,1.7,0,0,0-.2-.842,1.4,1.4,0,0,0-.523-.544,1.368,1.368,0,0,0-.7-.187,1.393,1.393,0,0,0-.7.183,1.379,1.379,0,0,0-.523.536,1.673,1.673,0,0,0-.2.838,1.746,1.746,0,0,0,.2.85,1.41,1.41,0,0,0,.527.557,1.352,1.352,0,0,0,.693.191,1.368,1.368,0,0,0,.7-.187,1.4,1.4,0,0,0,.523-.549A1.721,1.721,0,0,0,34.528-2.347Zm3.087-1.658a1.523,1.523,0,0,1,.566-.557,1.673,1.673,0,0,1,.838-.2v1h-.247a1.181,1.181,0,0,0-.863.289,1.383,1.383,0,0,0-.293,1V0h-.97V-4.686h.97Zm2.585-1.3a.6.6,0,0,1-.442-.179.6.6,0,0,1-.179-.442.6.6,0,0,1,.179-.442.6.6,0,0,1,.442-.179.59.59,0,0,1,.434.179.6.6,0,0,1,.179.442.6.6,0,0,1-.179.442A.59.59,0,0,1,40.2-5.307Zm.476.621V0h-.97V-4.686Zm.833,2.339A2.655,2.655,0,0,1,41.8-3.619a2.087,2.087,0,0,1,.812-.846,2.349,2.349,0,0,1,1.191-.3,2.336,2.336,0,0,1,1.407.4,1.989,1.989,0,0,1,.753,1.152H44.921a1.106,1.106,0,0,0-.408-.544,1.206,1.206,0,0,0-.706-.2,1.174,1.174,0,0,0-.948.421,1.781,1.781,0,0,0-.353,1.178,1.8,1.8,0,0,0,.353,1.182,1.169,1.169,0,0,0,.948.425,1.076,1.076,0,0,0,1.114-.74h1.046A2.094,2.094,0,0,1,45.2-.344a2.259,2.259,0,0,1-1.395.421,2.323,2.323,0,0,1-1.191-.3,2.116,2.116,0,0,1-.812-.85A2.655,2.655,0,0,1,41.51-2.347ZM48.833.077a2.4,2.4,0,0,1-1.2-.3,2.169,2.169,0,0,1-.842-.85,2.565,2.565,0,0,1-.306-1.271A2.516,2.516,0,0,1,46.8-3.614a2.173,2.173,0,0,1,.859-.85,2.492,2.492,0,0,1,1.216-.3,2.492,2.492,0,0,1,1.216.3,2.173,2.173,0,0,1,.859.85,2.516,2.516,0,0,1,.315,1.267,2.464,2.464,0,0,1-.323,1.267,2.238,2.238,0,0,1-.88.855A2.537,2.537,0,0,1,48.833.077Zm0-.842a1.443,1.443,0,0,0,.7-.179,1.361,1.361,0,0,0,.532-.536,1.723,1.723,0,0,0,.2-.867,1.758,1.758,0,0,0-.2-.863,1.321,1.321,0,0,0-.519-.532,1.419,1.419,0,0,0-.7-.179,1.4,1.4,0,0,0-.693.179,1.275,1.275,0,0,0-.506.532,1.824,1.824,0,0,0-.187.863,1.644,1.644,0,0,0,.387,1.169A1.279,1.279,0,0,0,48.833-.765Zm4.941-4.55V-6.2h1.769V0h-.978V-5.315Zm3.4,4q.816-.706,1.288-1.161a5.23,5.23,0,0,0,.787-.948,1.822,1.822,0,0,0,.315-.987,1.207,1.207,0,0,0-.242-.8.938.938,0,0,0-.761-.289.975.975,0,0,0-.778.319,1.327,1.327,0,0,0-.293.855h-.935a2,2,0,0,1,.583-1.484,2.005,2.005,0,0,1,1.416-.515,1.988,1.988,0,0,1,1.45.51,1.814,1.814,0,0,1,.523,1.361,2.416,2.416,0,0,1-.31,1.178,4.743,4.743,0,0,1-.74,1.012q-.429.446-1.093,1.033L58-.893h2.7v.808H56.563V-.791Zm8.13-4.048H62.457v1.692a1.347,1.347,0,0,1,.532-.4,1.787,1.787,0,0,1,.753-.162,2.013,2.013,0,0,1,1.161.306,1.715,1.715,0,0,1,.638.774,2.58,2.58,0,0,1,.191.987,2.486,2.486,0,0,1-.242,1.118,1.8,1.8,0,0,1-.723.77A2.3,2.3,0,0,1,63.588,0,2.277,2.277,0,0,1,62.1-.459a1.859,1.859,0,0,1-.672-1.216h.944a1.051,1.051,0,0,0,.417.634,1.342,1.342,0,0,0,.808.234,1.107,1.107,0,0,0,.906-.366,1.475,1.475,0,0,0,.3-.97,1.325,1.325,0,0,0-.306-.94,1.175,1.175,0,0,0-.9-.327,1.156,1.156,0,0,0-.7.208,1.167,1.167,0,0,0-.412.566h-.918v-3.58h3.742Zm.893.051V-6.2h1.769V0H66.99V-5.315Z" transform="translate(927.906 519.459)" fill="#fff"/>
      <g id="Grupo_1050" data-name="Grupo 1050" transform="translate(899 435)" opacity="0.23">
        <g id="Grupo_1051" data-name="Grupo 1051">
          <g id="Grupo_1050-2" data-name="Grupo 1050" clip-path="url(#clip-path)">
            <path id="Trazado_806" data-name="Trazado 806" d="M70.992,28.635h3.323v4.936l.624.785H88.275v11.3h5.776v3.2h-3.4s-36.221-.027-36.221,0v0L28.767,46.322,27.556,49.1l-2.813-1.088,1.27-2.9-1.794-.675.7-1.546.276,0v.06L33,43.7V41.689h7.191v2.78l8.04.806H54.11v-11.2h5.278V34.6h11.6Z" fill="#fff"/>
          </g>
        </g>
      </g>
    </g>
  </g>
</svg>
