<svg xmlns="http://www.w3.org/2000/svg" viewBox="0 0 233.59 120"><defs><style>.cls-1{fill:#fff;}</style></defs><title>Recurso 1</title><g id="Capa_2" data-name="Capa 2"><g id="Capa_1-2" data-name="Capa 1"><path class="cls-1" d="M231.66,83h-.07a2,2,0,0,0-2,1.93A2.31,2.31,0,0,1,228,87a2.29,2.29,0,0,1-2.9-1.44l-.66-1.94L207.1,27.3c-1.12-3.66-3.72-5.94-6.78-5.94s-5.66,2.28-6.78,5.94L174.88,88.58a2,2,0,0,0,1.33,2.48,2,2,0,0,0,.58.09,2,2,0,0,0,1.9-1.42l18.66-61.27c.59-1.92,1.72-3.11,3-3.11s2.38,1.19,3,3.12l17.39,56.39.69,2a6.27,6.27,0,0,0,12.22-1.8,2,2,0,0,0-1.93-2"/><path class="cls-1" d="M40.05,27.3c-1.12-3.66-3.72-5.94-6.78-5.94s-5.66,2.28-6.78,5.93L9.11,83.66,8.45,85.6a2.29,2.29,0,0,1-1.16,1.32A2.22,2.22,0,0,1,5.54,87,2.3,2.3,0,0,1,4,84.94a2,2,0,0,0-2-1.93A2,2,0,0,0,0,85.07a6.28,6.28,0,0,0,6.28,6.08,6.31,6.31,0,0,0,5.94-4.27l.67-2L30.3,28.46c.59-1.92,1.73-3.11,3-3.11s2.38,1.19,3,3.11L54.9,89.73a2,2,0,1,0,3.81-1.16Z"/><path class="cls-1" d="M89.46,21.36H58.33a6.28,6.28,0,0,0-6.28,6.28,2,2,0,0,0,4,0,2.29,2.29,0,0,1,2.3-2.29H71.9v63.8a2,2,0,1,0,4,0V25.35H89.46a2.29,2.29,0,0,1,2.29,2.29,2,2,0,0,0,4,0,6.29,6.29,0,0,0-6.28-6.28"/><path class="cls-1" d="M110.52,21.36a2,2,0,0,0-2,2v65.8a2,2,0,1,0,4,0V23.35a2,2,0,0,0-2-2"/><path class="cls-1" d="M186.68,5.55a2.29,2.29,0,0,1,1.16-1.32,2.29,2.29,0,0,1,3.08,1,2,2,0,1,0,3.59-1.73,6.28,6.28,0,0,0-11.6.72l-.67,2-24.32,78c-.59,1.92-1.73,3.11-3,3.11s-2.38-1.19-3-3.12l-17.4-56.39-.68-2a6.28,6.28,0,0,0-11.84-.15,2,2,0,1,0,3.74,1.37,2.26,2.26,0,0,1,1.42-1.38,2.3,2.3,0,0,1,2.91,1.44l.65,1.94,17.39,56.36c1.12,3.66,3.72,5.93,6.78,5.93s5.66-2.27,6.78-5.92L186,7.49Z"/><path class="cls-1" d="M81.16,111.41a4.93,4.93,0,0,0-1.1-1.77,4.71,4.71,0,0,0-1.66-1,6,6,0,0,0-2.07-.34H74.48l-3.15.08v.73l1.44.27V119l-1.44.31V120h4.73a5.77,5.77,0,0,0,2.84-.69,4.9,4.9,0,0,0,1.95-2,7,7,0,0,0,.72-3.33,7.08,7.08,0,0,0-.41-2.52m-1.4,5a3.92,3.92,0,0,1-.9,1.51,3.52,3.52,0,0,1-1.27.81,4.3,4.3,0,0,1-1.48.25h-2v-9.67H76.3a4.08,4.08,0,0,1,1.4.25,3.06,3.06,0,0,1,1.21.79,3.77,3.77,0,0,1,.86,1.46,7,7,0,0,1,.32,2.27,7.18,7.18,0,0,1-.33,2.33"/><polygon class="cls-1" points="91.97 117.22 91.71 118.95 87.16 118.95 87.16 114.49 91.39 114.49 91.39 113.48 87.16 113.48 87.16 109.28 91.51 109.28 91.77 110.91 92.61 110.91 92.61 108.26 87.14 108.26 84.34 108.34 84.34 109.07 85.78 109.33 85.78 118.95 84.34 119.26 84.34 119.98 92.81 119.98 92.81 117.22 91.97 117.22"/><path class="cls-1" d="M104.52,119l-1.32-2.66a5.57,5.57,0,0,0-.55-.93,2.13,2.13,0,0,0-.7-.6,2.34,2.34,0,0,0-.53-.21,3.82,3.82,0,0,0,2.11-1,3,3,0,0,0,.87-2.25,2.78,2.78,0,0,0-1-2.28,4.44,4.44,0,0,0-2.87-.79h-2l-2.87.08v.73l1.44.26V119l-1.44.31V120h4.55v-.72l-1.73-.32v-4.1l.9,0a3.48,3.48,0,0,1,1.22.17,1.58,1.58,0,0,1,.72.56,5.86,5.86,0,0,1,.61,1.12l1.55,3.31h2.06v-.72Zm-4.64-5.13H98.54v-4.55h1.84a3,3,0,0,1,2,.55,1.93,1.93,0,0,1,.66,1.59,2.12,2.12,0,0,1-.81,1.8,3.73,3.73,0,0,1-2.3.61"/><path class="cls-1" d="M116.26,115.26a2.59,2.59,0,0,0-1.19-1,4.45,4.45,0,0,0-1.36-.33,3.46,3.46,0,0,0,1.75-.85,2.72,2.72,0,0,0,.74-2,2.88,2.88,0,0,0-.41-1.56,2.5,2.5,0,0,0-1.2-1,5.16,5.16,0,0,0-2-.34h-2.08l-2.77.09v.72l1.44.27V119l-1.44.31V120h4.67a6.4,6.4,0,0,0,2.42-.4,3,3,0,0,0,1.4-1.12,3.13,3.13,0,0,0,.44-1.65,2.92,2.92,0,0,0-.39-1.55m-2.58-5.76a1.72,1.72,0,0,1,.84.67,2.15,2.15,0,0,1,.28,1.15,2.08,2.08,0,0,1-.32,1.19,2,2,0,0,1-1,.74,4.79,4.79,0,0,1-1.64.25h-1.33v-4.23h1.75a3.55,3.55,0,0,1,1.39.23m1.23,8.44a2.07,2.07,0,0,1-1,.76,4.33,4.33,0,0,1-1.64.27h-1.75v-4.48h2.2a3.13,3.13,0,0,1,1.35.27,2,2,0,0,1,.86.76,2.37,2.37,0,0,1,.29,1.2,2.16,2.16,0,0,1-.33,1.22"/><polygon class="cls-1" points="127.05 109.28 128.38 108.98 128.38 108.26 124.25 108.34 124.25 109.07 125.82 109.32 123.14 114.64 120.49 109.27 122.04 108.98 122.04 108.26 117.74 108.34 117.74 109.07 119.06 109.31 122.34 115.67 122.34 118.95 120.86 119.26 120.86 119.98 125.19 119.98 125.19 119.26 123.72 118.95 123.72 115.74 127.05 109.28"/><polygon class="cls-1" points="139.59 108.41 138.35 108.41 134.59 110.87 135.17 111.87 138.08 109.98 138.08 118.66 135.51 118.66 135.51 119.83 142.09 119.83 142.09 118.66 139.59 118.66 139.59 108.41"/><path class="cls-1" d="M150.75,113.81a3.16,3.16,0,0,0-1.1-.67,3.74,3.74,0,0,0-1.36-.23,4.08,4.08,0,0,0-.74.07,5.51,5.51,0,0,0-.8.2,6.55,6.55,0,0,0-.72.26,1.94,1.94,0,0,0-.49.27l-.24.2.08-.54a6.15,6.15,0,0,1,.12-.64,6.4,6.4,0,0,1,.29-.83,5,5,0,0,1,.51-.88,3.81,3.81,0,0,1,.76-.8,3.76,3.76,0,0,1,1.09-.58,4.24,4.24,0,0,1,1.45-.23c.25,0,.49,0,.71,0l.46,0,.07-1.11a4,4,0,0,0-1.13-.13,6.35,6.35,0,0,0-2.58.49,5.12,5.12,0,0,0-1.86,1.37,6.14,6.14,0,0,0-1.14,2.15,9.7,9.7,0,0,0-.38,2.79,7.56,7.56,0,0,0,.26,2,4.61,4.61,0,0,0,.77,1.57,3.4,3.4,0,0,0,1.28,1,4.31,4.31,0,0,0,1.82.36,4,4,0,0,0,1.51-.28,3.83,3.83,0,0,0,1.23-.75,3.57,3.57,0,0,0,.83-1.16,3.4,3.4,0,0,0,.31-1.47,3.68,3.68,0,0,0-.27-1.45,3.46,3.46,0,0,0-.74-1.08m-1.15,4.38a2.44,2.44,0,0,1-1.75.63A2.36,2.36,0,0,1,146,118a3.73,3.73,0,0,1-.74-2.53v-.57l.37-.21a3,3,0,0,1,.4-.19c.15-.07.32-.13.52-.2a5.44,5.44,0,0,1,.61-.15,4.58,4.58,0,0,1,.63,0,2.14,2.14,0,0,1,2.46,2.37,2.34,2.34,0,0,1-.65,1.74"/><path class="cls-1" d="M162,111.41a4.91,4.91,0,0,0-.7-1.78,2.82,2.82,0,0,0-1.23-1,4.46,4.46,0,0,0-1.89-.35c-2.9,0-4.3,1.92-4.3,5.88s1.35,5.88,4.13,5.88,4.21-2,4.21-6a12.71,12.71,0,0,0-.22-2.54m-1.94,6.2a2,2,0,0,1-2,1.21c-1.74,0-2.62-1.58-2.62-4.7a8.06,8.06,0,0,1,.59-3.53,2.1,2.1,0,0,1,2-1.18,2,2,0,0,1,2,1.16,8.24,8.24,0,0,1,.56,3.48,8.47,8.47,0,0,1-.57,3.56"/></g></g></svg>