<svg xmlns="http://www.w3.org/2000/svg" viewBox="0 0 101.15 40.58"><defs><style>.cls-1{fill:#fff;}</style></defs><title>Recurso 2icono-new</title><g id="Capa_2" data-name="Capa 2"><g id="Capa_1-2" data-name="Capa 1"><path class="cls-1" d="M100,35.83a1.36,1.36,0,0,1-2.72,0V33.22a1.31,1.31,0,0,1,1.36-1.36A1.38,1.38,0,0,1,100,33.22ZM98.66,31a2.25,2.25,0,0,0-2.27,2.15v2.6a2.18,2.18,0,0,0,2.27,2.16,2.25,2.25,0,0,0,2.26-2.16v-2.6A2.42,2.42,0,0,0,98.66,31"/><path class="cls-1" d="M51.55,1.4a1.31,1.31,0,0,0-1.36,1.36V21.33a1.36,1.36,0,1,0,2.71,0V2.76A1.37,1.37,0,0,0,51.55,1.4"/><path class="cls-1" d="M16.33,4.91,7.61,17.14a7.48,7.48,0,0,1-1.93-5.09,7.71,7.71,0,0,1,7.7-7.71,6.59,6.59,0,0,1,2.95.57M35.92,1.4a11,11,0,0,0-2.72.34,10.62,10.62,0,0,0-5.66,3.74L19.72,16.35c-.11.11-.22.23-.22.34a7.76,7.76,0,0,1-6.12,3.06,8.12,8.12,0,0,1-3.62-.91L18.82,6.16,19.61,5c.11-.11.11-.11.11-.22a.12.12,0,0,1,.12-.12V4.23h-.23l.23-.11V4l-.23.12L19.84,4V3.66a.11.11,0,0,0-.12-.11,1.63,1.63,0,0,0-.45-.34l-1-.68A10.29,10.29,0,0,0,13.38,1.4,10.63,10.63,0,0,0,2.74,12.05,10.46,10.46,0,0,0,6,19.75,12.76,12.76,0,0,0,8,21.22a10.29,10.29,0,0,0,5.43,1.47,11,11,0,0,0,2.72-.34,10.26,10.26,0,0,0,5.66-3.74,4.49,4.49,0,0,0,.57-.79L29.46,7.74l.34-.45a7.64,7.64,0,1,1-.68,8.38v-.11L29,15.44a2,2,0,0,0-1.7-.9,2,2,0,0,0-2,2v12a1.36,1.36,0,0,0,2.72,0V19.07A10.62,10.62,0,1,0,35.92,1.4"/><path class="cls-1" d="M74.76,12.05a7.7,7.7,0,0,1-15.4,0,7.79,7.79,0,0,1,7.7-7.71,7.57,7.57,0,0,1,7.7,7.71M67.06,1.4A10.65,10.65,0,1,0,75,19.18v9.63a1.36,1.36,0,0,0,2.72,0V12.05a10.75,10.75,0,0,0-2.27-6.57A10.55,10.55,0,0,0,67.06,1.4"/><path class="cls-1" d="M94.58,4.91,85.75,17.14a7.48,7.48,0,0,1-1.93-5.09,7.71,7.71,0,0,1,7.7-7.71,5.75,5.75,0,0,1,3.06.57M101,16.35a1.5,1.5,0,0,0-1.48-1.47,1.39,1.39,0,0,0-1.13.56.11.11,0,0,1-.11.12,7.68,7.68,0,0,1-6.8,4,8.12,8.12,0,0,1-3.62-.91l10-13.93c.33,0,.33-.34.33-.56a1.11,1.11,0,0,0-.45-.79c-.45-.23-.79-.57-1.24-.8A10.32,10.32,0,0,0,91.64,1.4,10.64,10.64,0,0,0,81,12.05a10.43,10.43,0,0,0,3.29,7.7,12.19,12.19,0,0,0,1.92,1.47,10.33,10.33,0,0,0,5.44,1.47,10.6,10.6,0,0,0,9.28-5.44c.12-.11.12-.34.23-.45v-.22c-.11,0-.11-.12-.11-.23h0"/><polygon class="cls-1" points="77.48 32.88 77.82 32.88 78.61 31.86 77.93 31.86 77.48 32.88"/><path class="cls-1" d="M60,37.19a2.72,2.72,0,0,1,.11-5.44,2.76,2.76,0,0,1,2.72,2.72A2.94,2.94,0,0,1,60,37.19M60,31a3.51,3.51,0,1,0,3.51,3.51A3.46,3.46,0,0,0,60,31"/><rect class="cls-1" x="64.46" y="30.96" width="0.79" height="6.91"/><path class="cls-1" d="M68.42,37.19a1.48,1.48,0,1,1,1.47-1.48,1.5,1.5,0,0,1-1.47,1.48m1.47-3.06a2.37,2.37,0,0,0-1.47-.57,2.31,2.31,0,0,0-2.26,2.27,2.31,2.31,0,0,0,2.26,2.26,2.36,2.36,0,0,0,1.47-.56v.68a1.5,1.5,0,0,1-1.47,1.47,1.63,1.63,0,0,1-1-.34l-.57.56a1.48,1.48,0,0,0,.46.34,2.24,2.24,0,0,0,1.24.34,2.32,2.32,0,0,0,2.27-2.26V33.79h-.91Z"/><path class="cls-1" d="M75,36.05a1.14,1.14,0,1,1-2.27,0V33.56h-.79v2.49a1.87,1.87,0,0,0,.57,1.36A2.14,2.14,0,0,0,74,38a2.37,2.37,0,0,0,1.47-.57A2.08,2.08,0,0,0,76,36.05V33.56h-.79Z"/><rect class="cls-1" x="77.14" y="33.56" width="0.79" height="4.3"/><path class="cls-1" d="M81.44,33.56A2.34,2.34,0,0,0,80.2,34v-.46h-.79v4.31h.79V35.49a1.25,1.25,0,1,1,2.49,0v2.38h.79V35.49A2.14,2.14,0,0,0,82.92,34a2.11,2.11,0,0,0-1.48-.46"/><path class="cls-1" d="M88.58,37.19a1.38,1.38,0,0,1-1.36-1.36,1.36,1.36,0,1,1,1.36,1.36m0-3.51h-.23l1.47-2.5h-1l-2.16,3.63a3.39,3.39,0,0,0-.22,1,2.15,2.15,0,0,0,4.3,0,2.08,2.08,0,0,0-2.15-2.15"/><path class="cls-1" d="M94.92,35.83a1.36,1.36,0,0,1-2.72,0V33.22a1.31,1.31,0,0,1,1.36-1.36,1.38,1.38,0,0,1,1.36,1.36ZM93.56,31a2.25,2.25,0,0,0-2.26,2.15v2.6a2.18,2.18,0,0,0,2.26,2.16,2.25,2.25,0,0,0,2.27-2.16v-2.6A2.25,2.25,0,0,0,93.56,31"/><path class="cls-1" d="M7.61.49A.94.94,0,0,0,6.47,0,10.27,10.27,0,0,0,0,8.08a.9.9,0,0,0,.79,1,.88.88,0,0,0,.91-.79A8.39,8.39,0,0,1,7,1.74.92.92,0,0,0,7.61.49"/></g></g></svg>