<?xml version="1.0" encoding="utf-8"?>
<!-- Generator: Adobe Illustrator 25.2.1, SVG Export Plug-In . SVG Version: 6.00 Build 0)  -->
<svg version="1.1" id="Capa_1" xmlns="http://www.w3.org/2000/svg" xmlns:xlink="http://www.w3.org/1999/xlink" x="0px" y="0px"
	 viewBox="0 0 824.51 179.1" style="enable-background:new 0 0 824.51 179.1;" xml:space="preserve">
<style type="text/css">
	.st0{fill:#FFFFFF;}
	.st1{opacity:0.5;fill:url(#SVGID_1_);}
	.st2{opacity:0.67;fill:url(#SVGID_2_);}
	.st3{fill:#6DBEC5;}
</style>
<g>
	<g>
		<path class="st0" d="M171.16,161.34c0,9.78-7.93,17.71-17.71,17.71c-9.78,0-17.71-7.93-17.71-17.71c0-9.78,7.93-17.71,17.71-17.71
			C163.24,143.63,171.16,151.56,171.16,161.34"/>
		<path class="st0" d="M62.96,149.48c-5.55,11.74-15.41,21.05-27.54,25.88c-0.51,0.21-1.02,0.4-1.53,0.58
			c-19.78-7.26-33.89-26.26-33.89-48.55V82.16c0-1.35,0.15-2.67,0.44-3.94c1.79-7.88,8.83-13.76,17.26-13.76
			c8.5,0,15.61,5.98,17.32,13.97c0.07,0.29,0.12,0.59,0.16,0.89c0.15,0.92,0.24,1.87,0.24,2.84v33.35
			c-0.01,0.19-0.01,0.38-0.01,0.58c0,0.19,0,0.39,0.01,0.58C35.68,132.99,47.45,146.5,62.96,149.48"/>
		<path class="st0" d="M103.41,3.73c-0.52-0.21-1.05-0.41-1.58-0.61c-19.78,7.23-33.9,26.21-33.9,48.52v75.75
			c0,7.91-1.78,15.39-4.96,22.08c-5.55,11.74-15.41,21.05-27.54,25.88c-0.51,0.21-1.02,0.4-1.53,0.58c0.51,0.19,1.02,0.37,1.53,0.54
			c5.12,1.69,10.59,2.62,16.28,2.62c5.66,0,11.12-0.91,16.21-2.59c20.61-6.81,35.49-26.21,35.49-49.11V63.08
			c-0.05-0.76-0.08-1.52-0.08-2.27s0.03-1.51,0.08-2.26c0.99-15.19,11.99-27.65,26.46-30.86C124.19,16.87,114.81,8.33,103.41,3.73
			 M78.84,83.42c-0.01-0.03-0.04-0.06-0.06-0.08c0.07,0.03,0.13,0.07,0.18,0.13C78.93,83.44,78.88,83.42,78.84,83.42"/>
		<linearGradient id="SVGID_1_" gradientUnits="userSpaceOnUse" x1="-34.2232" y1="16.9942" x2="56.8762" y2="178.7977">
			<stop  offset="0" style="stop-color:#FFFFFF;stop-opacity:0"/>
			<stop  offset="0.133" style="stop-color:#FBFBFB;stop-opacity:0.133"/>
			<stop  offset="0.2595" style="stop-color:#F0F0F0;stop-opacity:0.2595"/>
			<stop  offset="0.3835" style="stop-color:#DDDDDD;stop-opacity:0.3835"/>
			<stop  offset="0.5059" style="stop-color:#C2C2C2;stop-opacity:0.5059"/>
			<stop  offset="0.6273" style="stop-color:#9F9F9F;stop-opacity:0.6273"/>
			<stop  offset="0.7478" style="stop-color:#747474;stop-opacity:0.7478"/>
			<stop  offset="0.8676" style="stop-color:#414141;stop-opacity:0.8676"/>
			<stop  offset="0.9841" style="stop-color:#080808;stop-opacity:0.9841"/>
			<stop  offset="1" style="stop-color:#000000"/>
		</linearGradient>
		<path class="st1" d="M62.96,149.48c-5.55,11.74-15.41,21.05-27.54,25.88c-0.51,0.21-1.02,0.4-1.53,0.58
			c-19.78-7.26-33.89-26.26-33.89-48.55V82.16c0-1.35,0.15-2.67,0.44-3.94c1.79-7.88,8.83-13.76,17.26-13.76
			c8.5,0,15.61,5.98,17.32,13.97c0.07,0.29,0.12,0.59,0.16,0.89c0.15,0.92,0.24,1.87,0.24,2.84v33.35
			c-0.01,0.19-0.01,0.38-0.01,0.58c0,0.19,0,0.39,0.01,0.58C35.68,132.99,47.45,146.5,62.96,149.48"/>
		<linearGradient id="SVGID_2_" gradientUnits="userSpaceOnUse" x1="55.6771" y1="186.1425" x2="116.8633" y2="-11.0129">
			<stop  offset="0" style="stop-color:#FFFFFF;stop-opacity:0"/>
			<stop  offset="0.2226" style="stop-color:#FCFCFC;stop-opacity:0.2226"/>
			<stop  offset="0.3585" style="stop-color:#F4F4F4;stop-opacity:0.3585"/>
			<stop  offset="0.4712" style="stop-color:#E6E6E6;stop-opacity:0.4712"/>
			<stop  offset="0.5714" style="stop-color:#D1D1D1;stop-opacity:0.5714"/>
			<stop  offset="0.663" style="stop-color:#B7B7B7;stop-opacity:0.663"/>
			<stop  offset="0.7486" style="stop-color:#969696;stop-opacity:0.7486"/>
			<stop  offset="0.8294" style="stop-color:#6F6F6F;stop-opacity:0.8294"/>
			<stop  offset="0.9064" style="stop-color:#424242;stop-opacity:0.9064"/>
			<stop  offset="0.9779" style="stop-color:#111111;stop-opacity:0.9779"/>
			<stop  offset="1" style="stop-color:#000000"/>
		</linearGradient>
		<path class="st2" d="M103.41,3.73c-0.52-0.21-1.05-0.41-1.58-0.61c-19.78,7.23-33.9,26.21-33.9,48.52v75.75
			c0,7.91-1.78,15.39-4.96,22.08c-5.55,11.74-15.41,21.05-27.54,25.88c-0.51,0.21-1.02,0.4-1.53,0.58c0.51,0.19,1.02,0.37,1.53,0.54
			c5.12,1.69,10.59,2.62,16.28,2.62c5.66,0,11.12-0.91,16.21-2.59c20.61-6.81,35.49-26.21,35.49-49.11V63.08
			c-0.05-0.76-0.08-1.52-0.08-2.27s0.03-1.51,0.08-2.26c0.99-15.19,11.99-27.65,26.46-30.86C124.19,16.87,114.81,8.33,103.41,3.73
			 M78.84,83.42c-0.01-0.03-0.04-0.06-0.06-0.08c0.07,0.03,0.13,0.07,0.18,0.13C78.93,83.44,78.88,83.42,78.84,83.42"/>
		<path class="st3" d="M78.97,83.47c-0.04-0.03-0.08-0.04-0.12-0.04"/>
		<path class="st0" d="M171.17,49.28V96c0,9.78-7.93,17.7-17.72,17.7c-8.22,0-15.13-5.59-17.12-13.18
			c-0.37-1.45-0.58-2.96-0.58-4.52c0-0.44,0.01-0.87,0.06-1.29c-0.01,0.01-0.04,0.01-0.06,0V51.65c0-8.64-2.12-16.79-5.88-23.96
			c-5.68-10.81-15.06-19.36-26.46-23.96c-0.52-0.21-1.05-0.41-1.58-0.6c0.52-0.19,1.05-0.37,1.58-0.55
			C108.49,0.91,113.92,0,119.56,0c5.66,0,11.1,0.91,16.19,2.59C155.63,9.13,170.18,27.43,171.17,49.28"/>
		<path class="st0" d="M35.41,17.71c0,9.78-7.93,17.71-17.71,17.71C7.93,35.42,0,27.49,0,17.71C0,7.94,7.93,0.01,17.71,0.01
			C27.48,0.01,35.41,7.94,35.41,17.71"/>
	</g>
	<g>
		<path class="st0" d="M649.59,16.79c0.27,2.8-0.07,5.49-0.96,7.93l-2.29,4.46L613.15,93.7l-4.12,7.99l-0.41,0.8
			c-3.1,5.72-9.16,9.6-16.13,9.6c-6.64,0-12.45-3.53-15.68-8.8l-0.01-0.03l-1.14-2.23l-3.77-7.33l-33.23-64.57l-2.23-4.35
			c-0.88-2.44-1.24-5.13-0.97-7.95c0.79-8.37,7.41-15.27,15.74-16.38c7.82-1.04,14.87,2.85,18.42,9.02l0.83,1.6l22.08,42.72
			l22.08-42.72l0.83-1.6c3.55-6.16,10.57-10.06,18.41-9.02C642.16,1.56,648.79,8.44,649.59,16.79"/>
		<path class="st0" d="M401.49,52.46v41.29c0,10.13-8.22,18.35-18.35,18.35c-7.29,0-13.58-4.24-16.54-10.4
			c-1.16-2.41-1.8-5.11-1.8-7.95V49.54c0-8.54-6.93-15.47-15.47-15.47c-8.54,0-15.47,6.93-15.47,15.47l-0.03,44.21
			c0,2.84-0.65,5.54-1.8,7.94v0.01c-2.96,6.16-9.26,10.4-16.54,10.4c-7.27,0-13.57-4.24-16.54-10.4c-1.16-2.41-1.8-5.11-1.8-7.95
			V49.54c0-8.54-6.92-15.47-15.47-15.47c-8.54,0-15.46,6.93-15.46,15.47v44.21c0,2.84-0.65,5.54-1.8,7.95
			c-2.98,6.16-9.27,10.4-16.54,10.4c-10.14,0-18.36-8.22-18.36-18.35V52.46c0-23.43,15.46-43.26,36.71-49.84
			c4.88-1.51,10.07-2.33,15.46-2.33c5.39,0,10.58,0.81,15.47,2.33c6.83,2.12,13.06,5.61,18.36,10.13c5.3-4.52,11.53-8,18.36-10.13
			c4.89-1.51,10.08-2.33,15.47-2.33c5.39,0,10.58,0.81,15.47,2.33C386.05,9.22,401.49,29.03,401.49,52.46"/>
		<path class="st0" d="M521.42,18.64v41.29c0,23.42-15.43,43.24-36.7,49.84c-4.89,1.51-10.08,2.33-15.47,2.33
			c-5.39,0-10.58-0.81-15.47-2.33c-21.26-6.6-36.7-26.42-36.7-49.84V18.64c0-10.14,8.22-18.35,18.35-18.35
			c7.29,0,13.58,4.24,16.54,10.4c1.16,2.41,1.81,5.1,1.81,7.95v44.21c0,8.54,6.93,15.47,15.47,15.47c8.54,0,15.47-6.93,15.47-15.47
			V18.64c0-2.85,0.65-5.54,1.8-7.95c2.96-6.16,9.26-10.4,16.54-10.4C513.21,0.29,521.42,8.5,521.42,18.64"/>
		<path class="st0" d="M702.02,18.64v75.1c0,10.13-8.22,18.35-18.35,18.35c-10.14,0-18.35-8.22-18.35-18.35v-75.1
			c0-10.14,8.21-18.35,18.35-18.35C693.8,0.29,702.02,8.5,702.02,18.64"/>
		<path class="st0" d="M720.17,93.74V52.46c0-23.42,15.43-43.24,36.7-49.84c4.89-1.51,10.08-2.33,15.47-2.33
			c5.39,0,10.58,0.81,15.47,2.33c21.26,6.6,36.7,26.42,36.7,49.84v41.29c0,10.14-8.22,18.35-18.35,18.35
			c-7.29,0-13.58-4.24-16.54-10.4c-1.16-2.41-1.81-5.1-1.81-7.95V49.54c0-8.54-6.93-15.47-15.47-15.47
			c-8.54,0-15.47,6.93-15.47,15.47v44.21c0,2.85-0.65,5.54-1.8,7.95c-2.96,6.16-9.26,10.4-16.54,10.4
			C728.38,112.09,720.17,103.88,720.17,93.74"/>
		<g>
			<path class="st0" d="M749.77,167.92c0,1.21-0.51,1.82-1.54,1.82H736.8c-1.04,0-1.56-0.61-1.56-1.82c0-1.2,0.52-1.8,1.57-1.8h4.14
				v-20.99l-5.15,5.96c-0.32,0.38-0.68,0.57-1.1,0.57c-0.42,0-0.79-0.19-1.11-0.56c-0.32-0.37-0.48-0.81-0.48-1.31
				c0-0.46,0.16-0.89,0.47-1.27l7.6-8.8c0.46-0.53,0.89-0.8,1.29-0.8c1.06,0,1.59,0.72,1.59,2.17v25.03h4.16
				C749.26,166.12,749.77,166.72,749.77,167.92"/>
			<path class="st0" d="M771.38,160.49c0,2.55-0.91,4.72-2.71,6.53c-1.81,1.81-3.98,2.72-6.53,2.72c-2.55,0-4.72-0.91-6.53-2.72
				c-1.81-1.81-2.71-3.98-2.71-6.53c0-3.44,1.47-6.06,4.41-7.87c-1.91-1.55-2.86-3.55-2.86-6c0-2.12,0.75-3.93,2.26-5.44
				c1.51-1.5,3.32-2.26,5.44-2.26c2.12,0,3.93,0.76,5.43,2.26c1.5,1.51,2.26,3.32,2.26,5.44c0,2.45-0.95,4.45-2.86,6
				C769.91,154.43,771.38,157.05,771.38,160.49 M768.31,160.5c0-1.7-0.61-3.15-1.81-4.35c-1.21-1.21-2.66-1.81-4.35-1.81
				c-1.7,0-3.15,0.6-4.36,1.81c-1.21,1.21-1.81,2.66-1.81,4.35c0,1.7,0.61,3.15,1.81,4.35c1.21,1.21,2.66,1.81,4.36,1.81
				c1.69,0,3.14-0.6,4.35-1.81C767.7,163.64,768.31,162.19,768.31,160.5 M766.76,146.63c0-1.27-0.45-2.36-1.36-3.27
				c-0.9-0.91-1.99-1.36-3.26-1.36c-1.27,0-2.36,0.45-3.27,1.36c-0.9,0.91-1.36,2-1.36,3.27c0,1.27,0.45,2.36,1.36,3.27
				c0.9,0.91,1.99,1.36,3.27,1.36c1.27,0,2.36-0.45,3.26-1.36C766.31,148.99,766.76,147.9,766.76,146.63"/>
			<path class="st0" d="M797.44,140.32c0,0.31-0.09,0.63-0.28,0.95l-15.27,27.71c-0.3,0.55-0.75,0.83-1.35,0.83
				c-0.43,0-0.82-0.15-1.15-0.45c-0.33-0.3-0.5-0.66-0.5-1.08c0-0.25,0.07-0.51,0.21-0.77l14.02-25.43H776.8
				c-1.04,0-1.56-0.51-1.56-1.54c0-1.02,0.52-1.53,1.57-1.53h18.97C796.89,139.01,797.44,139.45,797.44,140.32"/>
			<path class="st0" d="M824.51,154.36c0,3.91-1.11,7.38-3.33,10.4c-2.46,3.32-5.57,4.98-9.33,4.98c-3.77,0-6.88-1.66-9.33-4.98
				c-2.22-3.02-3.33-6.49-3.33-10.4c0-3.9,1.11-7.36,3.33-10.38c2.45-3.32,5.57-4.98,9.33-4.98c3.76,0,6.87,1.66,9.33,4.98
				C823.39,147,824.51,150.46,824.51,154.36 M820.9,154.36c0-2.87-0.76-5.47-2.29-7.79c-1.76-2.64-4.02-3.96-6.76-3.96
				c-2.75,0-5,1.32-6.76,3.96c-1.53,2.32-2.29,4.92-2.29,7.79c0,2.88,0.76,5.49,2.29,7.81c1.76,2.64,4.02,3.95,6.76,3.95
				c2.74,0,5-1.32,6.76-3.95C820.13,159.85,820.9,157.24,820.9,154.36"/>
			<g>
				<path class="st0" d="M445.94,168.16v-28.08c0-0.41,0.15-0.78,0.47-1.1c0.31-0.31,0.67-0.47,1.09-0.47h7.8
					c2.59,0,4.79,0.92,6.62,2.74c1.83,1.83,2.74,4.04,2.74,6.63c0,2.58-0.91,4.79-2.74,6.62c-1.83,1.83-4.04,2.75-6.63,2.75h-4.69
					c-1.03,0-1.55-0.52-1.55-1.57v12.48c0,1.04-0.51,1.57-1.55,1.57C446.46,169.73,445.94,169.21,445.94,168.16z M449.05,155.69
					c0-1.03,0.52-1.55,1.55-1.55h4.69c1.72,0,3.2-0.61,4.42-1.83c1.22-1.22,1.84-2.69,1.84-4.42c0-1.72-0.62-3.2-1.84-4.42
					c-1.23-1.23-2.71-1.84-4.42-1.84h-6.24V155.69z"/>
				<path class="st0" d="M487.55,168.16c0,0.41-0.16,0.78-0.47,1.1c-0.32,0.32-0.69,0.48-1.1,0.48c-0.39,0-0.76-0.16-1.08-0.47
					L472.63,157c-0.4-0.37-0.63-0.71-0.69-1.01v12.18c0,1.04-0.51,1.57-1.55,1.57c-1.04,0-1.56-0.52-1.56-1.57v-28.1
					c0-1.03,0.51-1.55,1.54-1.55h7.82c2.59,0,4.79,0.92,6.62,2.75c1.83,1.83,2.74,4.04,2.74,6.62c0,2.58-0.91,4.79-2.73,6.62
					c-1.82,1.83-4.03,2.75-6.62,2.75l-0.9-0.01l9.81,9.82C487.4,167.39,487.55,167.75,487.55,168.16z M484.44,147.89
					c0-1.72-0.62-3.2-1.84-4.42c-1.23-1.23-2.71-1.84-4.42-1.84h-6.24v13.8c0.14-0.86,0.76-1.28,1.86-1.28h4.38
					c1.72,0,3.2-0.61,4.42-1.83C483.82,151.09,484.44,149.62,484.44,147.89z"/>
				<path class="st0" d="M520.87,154.11c0,4.31-1.53,7.99-4.59,11.04c-3.05,3.05-6.73,4.58-11.03,4.58s-7.97-1.53-11.03-4.58
					c-3.05-3.05-4.59-6.73-4.59-11.04c0-4.3,1.53-7.97,4.59-11.03c3.06-3.05,6.73-4.58,11.03-4.58s7.97,1.53,11.03,4.58
					C519.35,146.14,520.87,149.81,520.87,154.11z M517.76,154.11c0-3.44-1.22-6.38-3.66-8.83c-2.45-2.44-5.39-3.66-8.83-3.66
					c-3.44,0-6.38,1.22-8.83,3.66c-2.45,2.45-3.67,5.38-3.67,8.83c0,3.45,1.22,6.4,3.67,8.84c2.44,2.44,5.39,3.67,8.83,3.67
					c3.45,0,6.38-1.22,8.83-3.67C516.54,160.51,517.76,157.56,517.76,154.11z"/>
				<path class="st0" d="M543.75,168.17c0,1.04-0.51,1.57-1.54,1.57h-15.61c-0.42,0-0.78-0.16-1.09-0.47
					c-0.32-0.31-0.47-0.68-0.47-1.1v-28.08c0-1.04,0.51-1.57,1.56-1.57c1.04,0,1.55,0.53,1.55,1.57v26.54h14.07
					C543.23,166.62,543.75,167.14,543.75,168.17z"/>
				<path class="st0" d="M550.57,167.37c0,0.64-0.23,1.2-0.69,1.66c-0.47,0.47-1.02,0.7-1.66,0.7c-0.63,0-1.2-0.23-1.66-0.7
					c-0.47-0.47-0.71-1.02-0.71-1.66c0-0.66,0.23-1.21,0.7-1.65c0.46-0.44,1.02-0.67,1.67-0.67c0.64,0,1.2,0.22,1.66,0.67
					C550.34,166.16,550.57,166.71,550.57,167.37z"/>
				<path class="st0" d="M568.26,168.16c0,1.05-0.52,1.57-1.56,1.57s-1.56-0.52-1.56-1.57v-28.08c0-1.04,0.52-1.57,1.56-1.57
					s1.56,0.53,1.56,1.57V168.16z"/>
				<path class="st0" d="M603.63,177.53c0,1.04-0.52,1.57-1.57,1.57c-3.09,0-5.93-0.86-8.54-2.56c-2.59-1.71-4.52-3.98-5.77-6.81
					c-4.25-0.07-7.87-1.63-10.87-4.67c-2.99-3.04-4.49-6.69-4.49-10.95c0-4.3,1.53-7.97,4.59-11.02c3.06-3.05,6.73-4.58,11.03-4.58
					c4.3,0,7.97,1.53,11.03,4.58c3.06,3.05,4.59,6.73,4.59,11.02c0,3.73-1.18,7.03-3.54,9.91c-2.36,2.88-5.36,4.68-8.99,5.41
					c1.08,2.01,2.61,3.6,4.58,4.78c1.98,1.18,4.1,1.77,6.39,1.77C603.11,175.98,603.63,176.5,603.63,177.53z M600.51,154.11
					c0-3.44-1.22-6.38-3.66-8.83c-2.45-2.44-5.39-3.66-8.83-3.66c-3.44,0-6.38,1.22-8.83,3.66c-2.45,2.45-3.67,5.38-3.67,8.83
					c0,3.21,1.08,6,3.23,8.38c2.15,2.38,4.82,3.73,8,4.06c-0.19-1-0.3-2.03-0.3-3.07c0-1.03,0.52-1.55,1.57-1.55
					c1.04,0,1.57,0.51,1.57,1.53c0,1.02,0.11,2.02,0.35,3c3.04-0.47,5.57-1.88,7.57-4.22C599.51,159.9,600.51,157.19,600.51,154.11z
					"/>
				<path class="st0" d="M628.58,158.8c0,3.02-1.07,5.6-3.2,7.74c-2.13,2.13-4.71,3.2-7.73,3.2c-3.01,0-5.58-1.07-7.71-3.2
					c-2.14-2.14-3.2-4.71-3.2-7.74v-18.72c0-1.04,0.52-1.57,1.57-1.57c1.03,0,1.54,0.53,1.54,1.57v18.72c0,2.15,0.76,3.99,2.3,5.52
					c1.53,1.53,3.36,2.3,5.5,2.3c2.14,0,3.98-0.77,5.52-2.3c1.53-1.53,2.3-3.37,2.3-5.52v-18.72c0-1.04,0.51-1.57,1.55-1.57
					c1.04,0,1.57,0.53,1.57,1.57V158.8z"/>
				<path class="st0" d="M636.92,168.16c0,1.05-0.52,1.57-1.56,1.57c-1.04,0-1.56-0.52-1.56-1.57v-28.08c0-1.04,0.52-1.57,1.56-1.57
					c1.04,0,1.56,0.53,1.56,1.57V168.16z"/>
				<path class="st0" d="M662.89,140.08c0,1.03-0.52,1.55-1.57,1.55h-7.79v26.54c0,1.05-0.52,1.57-1.56,1.57
					c-1.04,0-1.56-0.52-1.56-1.57v-26.54h-7.79c-1.05,0-1.57-0.52-1.57-1.55c0-1.04,0.52-1.57,1.57-1.57h18.71
					C662.37,138.51,662.89,139.04,662.89,140.08z"/>
				<path class="st0" d="M695.17,154.11c0,4.31-1.53,7.99-4.59,11.04c-3.05,3.05-6.73,4.58-11.03,4.58c-4.3,0-7.97-1.53-11.03-4.58
					c-3.05-3.05-4.59-6.73-4.59-11.04c0-4.3,1.53-7.97,4.59-11.03c3.06-3.05,6.73-4.58,11.03-4.58c4.3,0,7.97,1.53,11.03,4.58
					C693.64,146.14,695.17,149.81,695.17,154.11z M692.05,154.11c0-3.44-1.22-6.38-3.66-8.83c-2.45-2.44-5.39-3.66-8.83-3.66
					c-3.44,0-6.38,1.22-8.83,3.66c-2.45,2.45-3.67,5.38-3.67,8.83c0,3.45,1.22,6.4,3.67,8.84c2.44,2.44,5.39,3.67,8.83,3.67
					c3.45,0,6.38-1.22,8.83-3.67C690.83,160.51,692.05,157.56,692.05,154.11z"/>
				<path class="st0" d="M714.94,160.37c0,2.58-0.92,4.78-2.75,6.61c-1.83,1.83-4.04,2.75-6.62,2.75c-1.63,0-3.19-0.42-4.67-1.27
					c-1.53-0.86-2.68-2-3.44-3.41c-0.16-0.3-0.24-0.57-0.24-0.82c0-0.43,0.17-0.8,0.51-1.1s0.72-0.45,1.15-0.45
					c0.44,0,0.88,0.26,1.29,0.8c0.15,0.24,0.4,0.59,0.75,1.05c1.2,1.39,2.75,2.08,4.66,2.08c1.72,0,3.2-0.61,4.42-1.84
					c1.22-1.22,1.84-2.69,1.84-4.41c0-1.71-0.62-3.19-1.84-4.41c-1.22-1.22-2.7-1.83-4.42-1.83c-2.14,0-3.98-0.76-5.5-2.29
					c-1.53-1.53-2.29-3.36-2.29-5.52c0-2.15,0.76-3.99,2.29-5.51c1.52-1.53,3.36-2.29,5.5-2.29c1.37,0,2.67,0.35,3.92,1.06
					c1.25,0.71,2.2,1.65,2.83,2.82c0.16,0.3,0.23,0.58,0.23,0.84c0,0.41-0.16,0.77-0.49,1.08c-0.33,0.3-0.71,0.45-1.14,0.45
					c-0.35,0-1-0.53-1.95-1.57s-2.09-1.57-3.4-1.57c-1.28,0-2.39,0.46-3.3,1.38s-1.37,2.02-1.37,3.31c0,1.29,0.46,2.4,1.37,3.32
					c0.92,0.92,2.02,1.38,3.3,1.38c2.58,0,4.79,0.92,6.62,2.75C714.02,155.59,714.94,157.8,714.94,160.37z"/>
			</g>
		</g>
	</g>
</g>
</svg>
