<svg xmlns="http://www.w3.org/2000/svg" xmlns:xlink="http://www.w3.org/1999/xlink" viewBox="0 0 98.13 57.88"><defs><style>.cls-1{fill:#fff;}.cls-2{fill:url(#Degradado_sin_nombre_5);}.cls-3{fill:url(#Degradado_sin_nombre_5-2);}.cls-4{fill:url(#Degradado_sin_nombre_5-3);}.cls-5{fill:url(#Degradado_sin_nombre_5-4);}.cls-6{fill:url(#Degradado_sin_nombre_5-5);}</style><linearGradient id="Degradado_sin_nombre_5" x1="-432.21" y1="630.47" x2="-426.89" y2="630.47" gradientTransform="matrix(1, 0, 0, -1, 495.73, 639.64)" gradientUnits="userSpaceOnUse"><stop offset="0" stop-color="#fff"/><stop offset="0.16" stop-color="#fbfbfc"/><stop offset="0.38" stop-color="#edecec"/><stop offset="0.64" stop-color="#cfcfd0"/><stop offset="0.93" stop-color="#a5a4a5"/><stop offset="0.99" stop-color="#9a999b"/><stop offset="1" stop-color="#9a999b"/></linearGradient><linearGradient id="Degradado_sin_nombre_5-2" x1="-429.09" y1="631.53" x2="-416.46" y2="631.53" gradientTransform="matrix(1, 0, 0, -1, 494.23, 640.45)" xlink:href="#Degradado_sin_nombre_5"/><linearGradient id="Degradado_sin_nombre_5-3" x1="-417.04" y1="623.71" x2="-400.41" y2="645.69" gradientTransform="matrix(1, 0, 0, -1, 488.19, 645.79)" xlink:href="#Degradado_sin_nombre_5"/><linearGradient id="Degradado_sin_nombre_5-4" x1="-376.09" y1="639.55" x2="-392.17" y2="639.55" gradientTransform="matrix(1, 0, 0, -1, 478.05, 645.45)" xlink:href="#Degradado_sin_nombre_5"/><linearGradient id="Degradado_sin_nombre_5-5" x1="-396.91" y1="607.08" x2="-400.24" y2="615.95" gradientTransform="matrix(1, 0, 0, -1, 481.33, 633.93)" xlink:href="#Degradado_sin_nombre_5"/></defs><title>Recurso 1icono-new</title><g id="Capa_2" data-name="Capa 2"><g id="Capa_1-2" data-name="Capa 1"><path class="cls-1" d="M48.61,52.68a.61.61,0,0,1,0,.14.12.12,0,0,1,0,.09.09.09,0,0,1,0,.06H46.92v4.76s0,0,0,.06l-.06,0-.12,0h-.35l-.11,0a.09.09,0,0,1-.06,0,.08.08,0,0,1,0-.06V53h-1.6a.1.1,0,0,1-.05-.06l0-.09s0-.09,0-.14,0-.1,0-.14a.62.62,0,0,1,0-.1.1.1,0,0,1,.05-.06l.06,0h3.82l.06,0a.09.09,0,0,1,0,.06.15.15,0,0,1,0,.1A.61.61,0,0,1,48.61,52.68Z"/><path class="cls-1" d="M57.6,57.55a.61.61,0,0,1,0,.14.2.2,0,0,1,0,.09l0,.06h-2.7a.28.28,0,0,1-.18-.06.26.26,0,0,1-.09-.23v-4.9a.26.26,0,0,1,.09-.23.29.29,0,0,1,.18-.07h2.61l.06,0a.15.15,0,0,1,0,.06l0,.09a.61.61,0,0,1,0,.14.57.57,0,0,1,0,.14l0,.09a.11.11,0,0,1,0,.05.07.07,0,0,1-.06,0H55.28v1.72h1.84l.06,0s0,0,0,.06a.46.46,0,0,1,0,.09v.27a.46.46,0,0,1,0,.09.12.12,0,0,1,0,.05h-1.9v2h2.17a.08.08,0,0,1,.07,0l0,0a.2.2,0,0,1,0,.09A.61.61,0,0,1,57.6,57.55Z"/><path class="cls-1" d="M66.5,53.89a1,1,0,0,0-.15-.55.79.79,0,0,0-.48-.32l-.24,0h-1v1.85h.71a1.83,1.83,0,0,0,.5-.07,1,1,0,0,0,.35-.2.72.72,0,0,0,.2-.29A.94.94,0,0,0,66.5,53.89Zm1.1,3.85a.08.08,0,0,1,0,.06s0,0,0,.05l-.12,0H67a.21.21,0,0,1-.12,0,.15.15,0,0,1-.06-.05.2.2,0,0,1,0-.08l-.51-1.3c-.06-.14-.12-.28-.18-.4a1.31,1.31,0,0,0-.23-.32,1,1,0,0,0-.31-.21,1.11,1.11,0,0,0-.43-.07h-.48v2.33a.08.08,0,0,1,0,.06l-.06,0-.11,0h-.36l-.11,0a.09.09,0,0,1-.06,0,.08.08,0,0,1,0-.06V52.66a.26.26,0,0,1,.09-.23.34.34,0,0,1,.19-.07h1.16l.35,0,.25,0a2.17,2.17,0,0,1,.56.17,1.4,1.4,0,0,1,.41.3,1.38,1.38,0,0,1,.25.42,1.72,1.72,0,0,1,.08.52,1.55,1.55,0,0,1-.07.5,1.3,1.3,0,0,1-.22.38,1.32,1.32,0,0,1-.33.29,2.56,2.56,0,0,1-.44.21,1.28,1.28,0,0,1,.25.15,1.07,1.07,0,0,1,.2.22,1.6,1.6,0,0,1,.18.29c.06.11.11.24.17.38l.49,1.21c0,.1.07.17.08.21A.51.51,0,0,1,67.6,57.74Z"/><path class="cls-1" d="M76.36,53.89a1,1,0,0,0-.14-.55.85.85,0,0,0-.49-.32l-.24,0h-1v1.85h.71a1.83,1.83,0,0,0,.5-.07.92.92,0,0,0,.35-.2.72.72,0,0,0,.2-.29A.94.94,0,0,0,76.36,53.89Zm1.1,3.85a.35.35,0,0,1,0,.06s0,0-.06.05l-.12,0h-.38a.16.16,0,0,1-.11,0,.18.18,0,0,1-.07-.05.2.2,0,0,1,0-.08l-.51-1.3A3.7,3.7,0,0,0,76,56a1.09,1.09,0,0,0-.23-.32.85.85,0,0,0-.31-.21,1.11,1.11,0,0,0-.43-.07h-.48v2.33a.08.08,0,0,1,0,.06.09.09,0,0,1-.06,0l-.11,0H74l-.12,0-.06,0s0,0,0-.06V52.66a.29.29,0,0,1,.08-.23.34.34,0,0,1,.19-.07h1.17l.34,0,.25,0a2.17,2.17,0,0,1,.56.17,1.4,1.4,0,0,1,.41.3,1.38,1.38,0,0,1,.25.42,1.72,1.72,0,0,1,.08.52,1.55,1.55,0,0,1-.07.5,1.11,1.11,0,0,1-.22.38,1.32,1.32,0,0,1-.33.29,2.56,2.56,0,0,1-.44.21,1.28,1.28,0,0,1,.25.15,1.07,1.07,0,0,1,.2.22,1.19,1.19,0,0,1,.18.29,2.7,2.7,0,0,1,.17.38l.5,1.21a1.64,1.64,0,0,1,.07.21A.51.51,0,0,1,77.46,57.74Z"/><path class="cls-1" d="M85.41,53.09h0l-.94,2.74h1.91Zm2.36,4.51a.56.56,0,0,1,0,.15.09.09,0,0,1,0,.08.16.16,0,0,1-.11,0h-.42l-.12,0-.06,0a.33.33,0,0,1,0-.06l-.47-1.34H84.27l-.44,1.32a.43.43,0,0,1,0,.07.09.09,0,0,1-.06,0,.21.21,0,0,1-.12,0h-.39a.23.23,0,0,1-.11,0,.12.12,0,0,1,0-.09.34.34,0,0,1,0-.15L85,52.49a.16.16,0,0,1,0-.07l.08-.05.14,0h.43l.15,0,.08.05a.16.16,0,0,1,.05.08Z"/><path class="cls-1" d="M16.67,37.4v7.44A2.09,2.09,0,0,1,16.3,46h0l-.06.08h0a.79.79,0,0,1-.56.27H13.52a.77.77,0,0,1-.56-.29l0,0a2.07,2.07,0,0,1-.39-1.2V37.4a4.21,4.21,0,0,0-8.41,0v7.44A2,2,0,0,1,3.75,46l0,.06a.76.76,0,0,1-.59.28H1a.76.76,0,0,1-.58-.28h0l0-.05h0A2.09,2.09,0,0,1,0,44.84V37.4a8.34,8.34,0,1,1,16.67,0"/><path class="cls-1" d="M88,37.39h0v7.46a2,2,0,0,1-.1.6,2.09,2.09,0,0,1-.17.41l-.14.22h0a.77.77,0,0,1-.61.3H84.81a.75.75,0,0,1-.53-.26h0L84.22,46h0a2.06,2.06,0,0,1-.38-1.19v-8a3.92,3.92,0,0,0-4.21-3.64,4.48,4.48,0,0,0-1.55.28l-.1,0a4.18,4.18,0,0,0-1.76,1.35.44.44,0,0,1-.08.11,4.36,4.36,0,0,0-.78,2.52A4.41,4.41,0,0,0,77,41.27a4.71,4.71,0,0,0,1.31.71h0a3.93,3.93,0,0,0,1.37.27h.12a2.14,2.14,0,0,1,1.08.39,0,0,0,0,1,0,0h0a.73.73,0,0,1,.3.59v2.12a.74.74,0,0,1-.29.6l0,0h0a2,2,0,0,1-1.17.38h0a9.58,9.58,0,0,1-1.33-.09l-.2,0-.37-.08-.11,0A7.87,7.87,0,0,1,74,44.26l-.08-.08a9,9,0,0,1-2.62-6.59A8.76,8.76,0,0,1,71.43,36a.44.44,0,0,1,0-.1,8.45,8.45,0,0,1,8.16-6.82,8,8,0,0,1,6.41,3A8.38,8.38,0,0,1,87.9,36.4c0,.06,0,.15,0,.21v0a6.34,6.34,0,0,1,0,.76"/><path class="cls-1" d="M69.13,43.18h0v2.14a.79.79,0,0,1-.27.56l-.08.06h0a2.09,2.09,0,0,1-1.19.37H65a8.34,8.34,0,0,1-7.27-8.19v-.56h0V33.41H56.1a2.21,2.21,0,0,1-.37,0h-.07a2,2,0,0,1-.75-.33h0L54.83,33a.75.75,0,0,1-.27-.58h0v-2.1a.72.72,0,0,1,.27-.56h0l.07-.06a2,2,0,0,1,1.18-.38h1.58V27a2,2,0,0,1,.41-1.23h0l0,0h0a.76.76,0,0,1,.57-.27H60.8a.74.74,0,0,1,.55.24l.1.12A2.12,2.12,0,0,1,61.82,27v1.48a.69.69,0,0,0,.79.76h5a2.19,2.19,0,0,1,.36,0H68l.15,0h0a2.19,2.19,0,0,1,.59.3l0,0h0a.8.8,0,0,1,.28.57v2.15a.76.76,0,0,1-.28.55l-.07.05a2,2,0,0,1-1.19.38H63c-.55,0-.72-.06-1,.23s-.15.67-.15,1.46V38a4.21,4.21,0,0,0,1.68,3.37,3.58,3.58,0,0,0,1.6.74l.38,0h2.11a2.1,2.1,0,0,1,1.19.38h0l.08.06h0a.75.75,0,0,1,.27.55"/><path class="cls-1" d="M53.89,41.19a5.19,5.19,0,0,1-5.18,5.19H39A2.06,2.06,0,0,1,38,46l0,0a.76.76,0,0,1-.29-.57V43.26a.78.78,0,0,1,.3-.59h0a2.16,2.16,0,0,1,1.1-.4h9.14l.23,0h.08a1.3,1.3,0,0,0,1-1.27,1.12,1.12,0,0,0-.1-.5,1.29,1.29,0,0,0-1-.79h-6a5.21,5.21,0,0,1-4.83-4.78c0-.13,0-.26,0-.4a5.22,5.22,0,0,1,5.2-5.21H51.1a2.07,2.07,0,0,1,.95.36h0l.05,0h0a.76.76,0,0,1,.29.58V32.4a.78.78,0,0,1-.29.58h0a2,2,0,0,1-1.11.39H43l-.06,0a1.3,1.3,0,0,0-1,1.27,1.31,1.31,0,0,0,1,1.28L43,36h5.68a5.17,5.17,0,0,1,5.15,4.59v0a5.49,5.49,0,0,1,0,.58"/><path class="cls-1" d="M35.44,43.24v2.1h0v0a.75.75,0,0,1-.28.57h0l0,0a2,2,0,0,1-1.19.4H27.16a8.18,8.18,0,0,1-7.85-5.56,9.88,9.88,0,0,1-.48-3.2,8.49,8.49,0,0,1,8.34-8.51,8,8,0,0,1,6.4,3,8.1,8.1,0,0,1,1.91,4.71A3.29,3.29,0,0,1,34.84,39a2.48,2.48,0,0,1-1.54.68H27.19a2.07,2.07,0,0,1-1.22-.4h0a.76.76,0,0,1-.3-.57v-1.7a.78.78,0,0,1,.29-.57l0,0A2.1,2.1,0,0,1,27.19,36l3.89,0a4.22,4.22,0,0,0-8.17,1.63c0,2.32,1.94,4.68,4.26,4.68H33.9a1.9,1.9,0,0,1,.86.19h0a2.5,2.5,0,0,1,.35.21h0l0,0h0a.77.77,0,0,1,.28.57"/><path class="cls-2" d="M67.29,7.62a3,3,0,0,0-2.15-1l-.1.16a8.39,8.39,0,0,0-1.52,3.77c0,1.86,1.16.75,1.16.75a16.54,16.54,0,0,1,4.16-2.23L67.29,7.62"/><path class="cls-3" d="M65.92,6.21a2.33,2.33,0,0,0-.76.43l0,0a3,3,0,0,1,2.15,1l1.55,1.49a40,40,0,0,1,2.84,2.94L77.77,7c-7.35-1.6-10.51-1.24-11.85-.74"/><path class="cls-4" d="M90,.36h0c-.11,0-3-1.08-5,.56L77.77,7l.07,0-.07,0-6.09,5.1c2.28,2.43,5,5.41,7.58,8.64a1.49,1.49,0,0,1,0-1.36c.34-.75,1.25-3.17,2.73-6.48h0c.2-.46.42-.93.64-1.41A101.31,101.31,0,0,1,88.09,1.29,2.14,2.14,0,0,1,90,.36"/><path class="cls-5" d="M90,.36h0a2.14,2.14,0,0,0-1.94.93,100.23,100.23,0,0,0-5.43,10.15A19.67,19.67,0,0,1,96.6,5.76s2.42.37,1.17-1.49S90,.36,90,.36"/><path class="cls-6" d="M79.26,20.69h0c1.16,1.43,2.31,2.91,3.41,4.41.39.56.66.56,1,.56s.77-.28.68-.93-2-10.68-2.3-11.88c-1.49,3.31-2.39,5.73-2.73,6.48a1.49,1.49,0,0,0,0,1.36"/></g></g></svg>