<svg xmlns="http://www.w3.org/2000/svg" viewBox="0 0 136.64 50.31"><defs><style>.cls-1{fill:#fff;}</style></defs><title>Recurso 3icono-new</title><g id="Capa_2" data-name="Capa 2"><g id="Capa_1-2" data-name="Capa 1"><path class="cls-1" d="M15.56,15l-3.89-.9C7.33,13,7.33,10.92,7.33,10.18a3.25,3.25,0,0,1,1.5-2.85,6.89,6.89,0,0,1,3.74-1A6.39,6.39,0,0,1,18.26,9a2.91,2.91,0,0,0,2.84,1.94,3,3,0,0,0,3-3V2.69A2.91,2.91,0,0,0,21.25,0a2.61,2.61,0,0,0-2.54,1.65A15,15,0,0,0,12.87.45h-.45A13.07,13.07,0,0,0,4.34,3,8.52,8.52,0,0,0,1.05,9.88c0,4.49,3.14,7.78,8.83,9.13l4.49,1.19c3.14.75,4.49,1.95,4.49,3.89a3.46,3.46,0,0,1-2.25,3.15,8.67,8.67,0,0,1-4.19.9A7.55,7.55,0,0,1,5.84,25,2.89,2.89,0,0,0,3,22.75a3,3,0,0,0-3,3V31a3,3,0,0,0,3,3,2.55,2.55,0,0,0,2.4-1.34,16.73,16.73,0,0,0,6.88,1.49h.15a15.4,15.4,0,0,0,8.83-2.54,9,9,0,0,0,3.89-7.49C25.14,18.11,19.75,16,15.56,15Z"/><path class="cls-1" d="M32.79,23.05a8.78,8.78,0,0,1-.3-1.95,8.36,8.36,0,0,1,8.38-8.38,7.94,7.94,0,0,1,5.54,2.1Zm18.86-5.39.3-.15a2.66,2.66,0,0,0,1.19-2.25,2.82,2.82,0,0,0-.3-1.19c-.15-.15-.15-.3-.3-.45A11.35,11.35,0,0,0,51.35,12a13.68,13.68,0,0,0-24,9,12.94,12.94,0,0,0,.9,4.79,13.24,13.24,0,0,0,2.54,4.19,13.71,13.71,0,0,0,10.33,4.64,13,13,0,0,0,10-4.49c.15-.15.3-.3.3-.45A2.52,2.52,0,0,0,52,28.14a2.69,2.69,0,0,0-2.7-2.7,3.11,3.11,0,0,0-1.94.75l-.15.15A8.36,8.36,0,0,1,41,29a7.83,7.83,0,0,1-5.69-2.24L49.1,18.56Z"/><path class="cls-1" d="M82.6,28.88V19.46A12.33,12.33,0,0,0,70.33,7.18a12.49,12.49,0,0,0-8.53,3.45,10.35,10.35,0,0,0-3.14-2.55c-.15-.15-.45-.15-.6-.3a1.9,1.9,0,0,0-.9-.15,2.88,2.88,0,0,0-2.54,1.5,2.53,2.53,0,0,0-.45,1.5,2.52,2.52,0,0,0,.45,1.49A2.59,2.59,0,0,0,56,13.32a3.64,3.64,0,0,1,2.1,3.14V28.73a2.95,2.95,0,0,0,.6,5.84h4.93a3,3,0,0,0,3-3,3.05,3.05,0,0,0-2.55-3V19.31a6.29,6.29,0,1,1,12.57,0v9.27a2.88,2.88,0,0,0-2.84,3,3,3,0,0,0,3,3H81.7a3,3,0,0,0,3-3A2.88,2.88,0,0,0,82.6,28.88Z"/><path class="cls-1" d="M93.22,14.37V11.22h5.69a3,3,0,1,0,0-6H93.22V3.14a3,3,0,1,0-6,0v2.1H85a3,3,0,1,0,0,6h2.25V25.29a9.32,9.32,0,0,0,9.27,9.28h.3a3,3,0,0,0,2.7-3,3.09,3.09,0,0,0-2.85-3h-.3a3.45,3.45,0,0,1-3.29-3.44Z"/><path class="cls-1" d="M124.84,17.36c.15-.15.3-.15.45-.3a2.41,2.41,0,0,0,.9-1.94,2.83,2.83,0,0,0-.3-1.2c-.15-.15-.15-.3-.3-.45a12.16,12.16,0,0,0-1.19-1.65,13.49,13.49,0,0,0-10.93-4.64,13.77,13.77,0,0,0-13,13.62,13.68,13.68,0,0,0,3.44,9,13.67,13.67,0,0,0,10.33,4.64,13,13,0,0,0,10-4.49c.15-.15.3-.3.3-.45a2.94,2.94,0,0,0,.44-1.94,2.54,2.54,0,0,0-2.24-2.25,2.48,2.48,0,0,0-2.25.75,8.4,8.4,0,0,1-14.81-4.79,8.33,8.33,0,0,1,8.38-9,8.55,8.55,0,0,1,7.18,4,2.35,2.35,0,0,0,3.3.9Z"/><path class="cls-1" d="M136.52,10.33,134,2.24A2.85,2.85,0,0,0,130.38.45L122.3,3a2.84,2.84,0,1,0,1.8,5.39l1.49-.45a20.94,20.94,0,0,1-19.15,12.12,24.76,24.76,0,0,1-6.74-1h-.15a6.5,6.5,0,0,1-.75-.15A2.94,2.94,0,0,0,96,21.7a2.86,2.86,0,0,0,2,2.69h.15a26.69,26.69,0,0,0,8.53,1.35,27,27,0,0,0,24.24-15.26l.6,1.64a2.74,2.74,0,0,0,2.69,2,1.9,1.9,0,0,0,.9-.15A3.33,3.33,0,0,0,136.52,10.33Z"/><path class="cls-1" d="M8.68,48.82a2.07,2.07,0,0,1-.6.45.78.78,0,0,1-.6.3c-.3.15-.6.15-.9.3A3.22,3.22,0,0,1,5.39,50a4.73,4.73,0,0,1-3.74-1.5,5,5,0,0,1-1.5-3.74A5.44,5.44,0,0,1,1.5,41a4.73,4.73,0,0,1,3.74-1.5,7.52,7.52,0,0,1,1.94.3,4.4,4.4,0,0,1,1.2.6l.3.3-1.2,1.49-.3-.3c-.15-.15-.3-.15-.74-.3a3.51,3.51,0,0,0-1.2-.29A3,3,0,0,0,3,42.23a3.4,3.4,0,0,0-.89,2.4,3.88,3.88,0,0,0,1,2.54,3.05,3.05,0,0,0,2.25.9,2.85,2.85,0,0,0,1.19-.15,3.28,3.28,0,0,0,.75-.45l.3-.15Z"/><path class="cls-1" d="M11.37,45.53h2.85q-.22-1.35-1.35-1.35A1.38,1.38,0,0,0,11.37,45.53Zm4.34,3.74-.3.3c-.14.15-.44.15-.89.3a4.45,4.45,0,0,1-1.5.29,3.17,3.17,0,0,1-2.69-1,3.61,3.61,0,0,1-1.05-2.7,4.18,4.18,0,0,1,.9-2.69,3.07,3.07,0,0,1,2.54-1,3.17,3.17,0,0,1,2.4.9A3.56,3.56,0,0,1,16,46.12v.6H11.22a1.77,1.77,0,0,0,1.95,1.8,1.9,1.9,0,0,0,.9-.15c.3-.15.6-.15.6-.3l.3-.15Z"/><path class="cls-1" d="M19.6,49.87H17.66v-7H19l.3,1.05h.15a2.45,2.45,0,0,1,.89-.9,3,3,0,0,1,1.35-.3,2.52,2.52,0,0,1,2.1.9,3,3,0,0,1,.74,2.24v4H22.6V46a2.16,2.16,0,0,0-.3-1,1.45,1.45,0,0,0-2.1,0,.82.82,0,0,0-.6.89Z"/><path class="cls-1" d="M26.79,43v-2.1h1.94V43h1.8v1.49h-1.8v3.15c0,.6.3.75.75.75h.3c.15,0,.15-.15.3-.15h.15l.6,1.34a3.68,3.68,0,0,1-1.8.6,2.38,2.38,0,0,1-1.79-.6,3.18,3.18,0,0,1-.6-1.79v-3.3h-1.2V43Z"/><path class="cls-1" d="M33.52,45.67h2.85c-.15-.9-.6-1.34-1.35-1.34A1.46,1.46,0,0,0,33.52,45.67ZM38,49.41l-.3.3c-.15.15-.45.15-.89.3a4.44,4.44,0,0,1-1.5.3,3.18,3.18,0,0,1-2.69-1.05,3.58,3.58,0,0,1-1.05-2.69,4.14,4.14,0,0,1,.9-2.69A3.06,3.06,0,0,1,35,42.83a3.13,3.13,0,0,1,2.39.9,3.5,3.5,0,0,1,.9,2.54v.6H33.52a1.77,1.77,0,0,0,1.95,1.8,1.9,1.9,0,0,0,.9-.15c.3-.15.6-.15.6-.3l.14-.15Z"/><path class="cls-1" d="M41.9,50H40V43h1.35L41.6,44h.15a2.55,2.55,0,0,1,.9-.9,3,3,0,0,1,1.35-.3,2.48,2.48,0,0,1,2.09.9A2.92,2.92,0,0,1,46.84,46v4H44.9V46.12a2.17,2.17,0,0,0-.3-1,1.45,1.45,0,0,0-2.1,0,1.27,1.27,0,0,0-.3,1Z"/><path class="cls-1" d="M52.23,48.52a1.3,1.3,0,0,0,.45-.9V47a2.92,2.92,0,0,0-1.2-.15,2.83,2.83,0,0,0-1.2.3.83.83,0,0,0-.44.75,1.15,1.15,0,0,0,.3.75A1.55,1.55,0,0,0,51,49,4.73,4.73,0,0,0,52.23,48.52ZM54.62,50H53.28l-.3-.9h-.15a2.37,2.37,0,0,1-2.25,1,2.76,2.76,0,0,1-1.94-.6,2.13,2.13,0,0,1-.75-1.64,1.94,1.94,0,0,1,.75-1.65,3.79,3.79,0,0,1,2.39-.6,4.62,4.62,0,0,1,1.5.15v-.15c0-.75-.6-1.19-1.65-1.19a2,2,0,0,0-.89.14c-.3.15-.6.15-.75.3l-.15.15-.6-1.49c.15,0,.15-.15.3-.15a5.9,5.9,0,0,0,.9-.3A5,5,0,0,1,51.18,43a3.82,3.82,0,0,1,2.4.75,2.7,2.7,0,0,1,.9,2.09Z"/><path class="cls-1" d="M60.46,44.62h-.3a1.7,1.7,0,0,0-1.2.45,1.87,1.87,0,0,0-.44,1.35V50h-2V43h1.35l.3,1.05h.15A1.89,1.89,0,0,1,60.31,43h.3Z"/><path class="cls-1" d="M61.81,43h1.94v7H61.81Zm.15-1.5a1.27,1.27,0,0,1-.3-.9,1.6,1.6,0,0,1,.3-.89,1.27,1.27,0,0,1,.9-.3,2.09,2.09,0,0,1,.89.3,1.26,1.26,0,0,1,.3.89,2.13,2.13,0,0,1-.3.9,1.57,1.57,0,0,1-.89.3C62.41,41.78,62.11,41.78,62,41.48Z"/><path class="cls-1" d="M70.19,48.07a2.72,2.72,0,0,0,0-3,1.84,1.84,0,0,0-1.2-.59,1.35,1.35,0,0,0-1.2.59,2.78,2.78,0,0,0,0,3,1.85,1.85,0,0,0,1.2.6A3,3,0,0,0,70.19,48.07Zm1.35,1a3.51,3.51,0,0,1-2.55,1,3.59,3.59,0,0,1-2.69-1,3.37,3.37,0,0,1-1-2.69,3.38,3.38,0,0,1,1-2.69,3.59,3.59,0,0,1,2.69-1,3.09,3.09,0,0,1,2.55,1,3.62,3.62,0,0,1,1,2.69A3.2,3.2,0,0,1,71.54,49.11Z"/><polygon class="cls-1" points="77.07 40.13 81.26 40.13 81.26 50.16 79.17 50.16 79.17 41.78 77.07 41.78 77.07 40.13"/><polygon class="cls-1" points="83.51 40.13 90.69 40.13 90.69 41.63 86.35 50.31 83.96 50.31 88.15 41.93 83.36 41.93 83.36 40.13 83.51 40.13"/><path class="cls-1" d="M94.58,41.78v1.95h.9a4.48,4.48,0,0,1,3,.89,3.05,3.05,0,0,1,.9,2.25,2.77,2.77,0,0,1-1.05,2.39,4.18,4.18,0,0,1-3,.9,2.92,2.92,0,0,1-1.2-.15c-.44-.15-.74-.15-.89-.3a2.07,2.07,0,0,1-.6-.45c-.15-.15-.3-.3-.45-.3L92,48.81l1-1.49.3.3a3.18,3.18,0,0,0,.74.45,3.53,3.53,0,0,0,1.2.3,1.83,1.83,0,0,0,1.35-.45,1.36,1.36,0,0,0,.45-1.05c0-1-.75-1.5-2.25-1.5a2.55,2.55,0,0,0-1,.15,6.71,6.71,0,0,0-.74.15.52.52,0,0,0-.3.15l-.15-.15.15-5.53h6v1.79Z"/></g></g></svg>