<svg xmlns="http://www.w3.org/2000/svg" viewBox="0 0 37 37"><defs><style>.cls-1,.cls-2{fill:none;}.cls-2{stroke:#3fcaff;stroke-linecap:round;stroke-linejoin:round;stroke-width:2px;}</style></defs><g id="Capa_2" data-name="Capa 2"><g id="Capa_1-2" data-name="Capa 1"><rect class="cls-1" width="37" height="37"/><g id="Grupo_453" data-name="Grupo 453"><g id="Grupo_176" data-name="Grupo 176"><path id="Trazado_83" data-name="Trazado 83" class="cls-2" d="M16.78,19.74,11.13,17.6a1.65,1.65,0,0,1-.9-2.16,1.67,1.67,0,0,1,.9-.91l5.65-2.16a4.85,4.85,0,0,1,3.44,0l5.65,2.16a1.65,1.65,0,0,1,.9,2.16,1.67,1.67,0,0,1-.9.91l-5.65,2.14A4.75,4.75,0,0,1,16.78,19.74Z"/><path id="Trazado_84" data-name="Trazado 84" class="cls-2" d="M12,18.43v3a2,2,0,0,0,1.28,1.87L17,24.67a4.3,4.3,0,0,0,3,0l3.67-1.41A2,2,0,0,0,25,21.39v-3"/><line id="Línea_40" data-name="Línea 40" class="cls-2" x1="18.5" y1="16.15" x2="24.2" y2="18.28"/></g></g></g></g></svg>