<svg xmlns="http://www.w3.org/2000/svg" viewBox="0 0 18.46 21.34"><defs><style>.cls-1{fill:none;stroke:#a7d814;stroke-linecap:round;stroke-linejoin:round;stroke-width:2px;}</style></defs><g id="Capa_2" data-name="Capa 2"><g id="Capa_1-2" data-name="Capa 1"><g id="Grupo_452" data-name="Grupo 452"><g id="Grupo_177" data-name="Grupo 177"><path id="Trazado_87" data-name="Trazado 87" class="cls-1" d="M14,6H4.47A1.82,1.82,0,0,0,2.73,7.55L1.05,17.22a2.67,2.67,0,0,0,2.11,3.11,3.23,3.23,0,0,0,.44,0H14.86a2.66,2.66,0,0,0,2.6-2.71c0-.15,0-.29-.05-.44L15.73,7.55A1.83,1.83,0,0,0,14,6Z"/><path id="Trazado_88" data-name="Trazado 88" class="cls-1" d="M5.73,5.94V4.56a3.5,3.5,0,1,1,7-.12h0v1.5"/><path id="Trazado_89" data-name="Trazado 89" class="cls-1" d="M12.73,9.22v1.07a3.46,3.46,0,1,1-6.92.12.24.24,0,0,1,0-.12V9.22"/></g></g></g></g></svg>