<svg xmlns="http://www.w3.org/2000/svg" viewBox="0 0 37 37"><defs><style>.cls-1,.cls-2{fill:none;}.cls-1{stroke:#a7d814;stroke-linecap:round;stroke-linejoin:round;stroke-width:2px;}</style></defs><g id="Capa_2" data-name="Capa 2"><g id="Capa_1-2" data-name="Capa 1"><g id="Grupo_452" data-name="Grupo 452"><g id="Grupo_177" data-name="Grupo 177"><path id="Trazado_87" data-name="Trazado 87" class="cls-1" d="M22.72,14.36H14.27a1.62,1.62,0,0,0-1.55,1.37l-1.49,8.59a2.37,2.37,0,0,0,1.88,2.76,2.54,2.54,0,0,0,.39,0h10a2.37,2.37,0,0,0,2.31-2.41,2.6,2.6,0,0,0,0-.39l-1.49-8.55A1.62,1.62,0,0,0,22.72,14.36Z"/><path id="Trazado_88" data-name="Trazado 88" class="cls-1" d="M15.39,14.3V13.07a3.11,3.11,0,1,1,6.22-.1h0V14.3"/><path id="Trazado_89" data-name="Trazado 89" class="cls-1" d="M21.61,17.21v.95a3.08,3.08,0,1,1-6.15.11.2.2,0,0,1,0-.11v-.95"/></g></g><rect class="cls-2" width="37" height="37"/></g></g></svg>