<svg xmlns="http://www.w3.org/2000/svg" viewBox="0 0 22.26 17.56"><defs><style>.cls-1{fill:none;stroke:#3fcaff;stroke-linecap:round;stroke-linejoin:round;stroke-width:2px;}</style></defs><g id="Capa_2" data-name="Capa 2"><g id="Capa_1-2" data-name="Capa 1"><g id="Grupo_453" data-name="Grupo 453"><g id="Grupo_176" data-name="Grupo 176"><path id="Trazado_83" data-name="Trazado 83" class="cls-1" d="M9.05,10.27,2.24,7.69A2,2,0,0,1,1.15,5.08,2,2,0,0,1,2.24,4L9.05,1.38a5.85,5.85,0,0,1,4.16,0L20,4A2,2,0,0,1,21.11,6.6,2,2,0,0,1,20,7.69l-6.81,2.58A5.74,5.74,0,0,1,9.05,10.27Z"/><path id="Trazado_84" data-name="Trazado 84" class="cls-1" d="M3.32,8.69v3.58a2.41,2.41,0,0,0,1.55,2.25l4.43,1.7a5.13,5.13,0,0,0,3.66,0l4.43-1.7a2.41,2.41,0,0,0,1.55-2.25V8.69"/><line id="Línea_40" data-name="Línea 40" class="cls-1" x1="11.13" y1="5.94" x2="18.01" y2="8.51"/></g></g></g></g></svg>