<svg id="Grupo_1068" data-name="Grupo 1068" xmlns="http://www.w3.org/2000/svg" xmlns:xlink="http://www.w3.org/1999/xlink" width="26.17" height="26.326" viewBox="0 0 26.17 26.326">
  <defs>
    <clipPath id="clip-path">
      <rect id="Rectángulo_371" data-name="Rectángulo 371" width="26.17" height="26.326" fill="#fff"/>
    </clipPath>
  </defs>
  <g id="Grupo_1067" data-name="Grupo 1067" transform="translate(0 0)" clip-path="url(#clip-path)">
    <path id="Trazado_808" data-name="Trazado 808" d="M19.194,15.809c-.263-.131-1.972-.92-2.235-1.052a.619.619,0,0,0-.789.131c-.263.263-.789,1.052-1.052,1.315-.131.263-.394.263-.657.131a10.747,10.747,0,0,1-2.629-1.578,15.133,15.133,0,0,1-1.841-2.235.578.578,0,0,1,.131-.657c.131-.131.263-.394.526-.526a1,1,0,0,0,.263-.526.4.4,0,0,0,0-.526A23.369,23.369,0,0,1,9.86,7.921C9.729,7,9.466,7,9.2,7H8.545a1.5,1.5,0,0,0-.789.394,3.784,3.784,0,0,0-1.183,2.761,6.887,6.887,0,0,0,1.315,3.418,14.017,14.017,0,0,0,5.522,4.864,10.3,10.3,0,0,0,1.841.657,3.755,3.755,0,0,0,2.1.131,3.406,3.406,0,0,0,2.235-1.578,2.2,2.2,0,0,0,.131-1.578l-.526-.263M22.481,3.845A13.1,13.1,0,0,0,1.841,19.622L0,26.326l6.968-1.841A12.99,12.99,0,0,0,26.162,13.048a12.8,12.8,0,0,0-3.681-9.2m-3.55,18.406a11.033,11.033,0,0,1-5.785,1.709,11.529,11.529,0,0,1-5.522-1.446l-.394-.263L3.155,23.3l1.052-3.944-.263-.394A11.039,11.039,0,0,1,7.494,3.845,10.7,10.7,0,0,1,22.35,7.264a10.848,10.848,0,0,1-3.418,14.987" transform="translate(0 0)" fill="#fff"/>
  </g>
</svg>
